<svg xmlns="http://www.w3.org/2000/svg" width="938" height="1118" viewBox="0 0 938 1118">
<g>
<path d="M 332.00,0.12 L 338.77,0.12 L 352.78,0.12 L 359.86,0.12 L 374.51,0.13 L 381.92,0.13 L 397.22,0.13 L 404.96,0.14 L 420.91,0.15 L 428.98,0.15 L 445.60,0.16 L 453.99,0.17 L 471.29,0.18 L 498.00,0.20 L 503.97,0.20 L 515.64,0.21 L 521.44,0.21 L 532.77,0.22 L 538.39,0.23 L 549.38,0.24 L 554.83,0.24 L 565.48,0.25 L 570.77,0.25 L 581.09,0.26 L 586.22,0.27 L 596.22,0.27 L 601.18,0.28 L 610.86,0.29 L 615.66,0.29 L 625.03,0.30 L 629.67,0.30 L 638.73,0.31 L 643.23,0.32 L 651.98,0.32 L 656.32,0.33 L 664.78,0.34 L 668.97,0.34 L 677.14,0.35 L 681.18,0.35 L 689.06,0.36 L 692.97,0.37 L 700.56,0.38 L 704.32,0.38 L 711.64,0.39 L 715.27,0.40 L 722.31,0.41 L 729.29,0.42 L 742.46,0.44 L 748.91,0.45 L 761.06,0.47 L 767.01,0.48 L 778.18,0.50 L 783.64,0.51 L 793.88,0.54 L 798.88,0.55 L 808.22,0.57 L 812.78,0.59 L 821.27,0.62 L 825.41,0.63 L 833.09,0.66 L 836.83,0.68 L 843.74,0.71 L 847.10,0.73 L 853.29,0.76 L 856.29,0.78 L 861.79,0.82 L 864.46,0.84 L 869.32,0.88 L 871.67,0.90 L 875.93,0.95 L 877.98,0.97 L 881.68,1.02 L 883.46,1.05 L 886.65,1.10 L 888.18,1.13 L 890.88,1.18 L 892.18,1.21 L 894.46,1.27 L 895.54,1.31 L 897.43,1.37 L 898.33,1.40 L 899.86,1.47 L 900.59,1.51 L 901.82,1.59 L 902.39,1.62 L 903.36,1.70 L 904.26,1.79 L 905.45,1.96 L 906.65,2.26 L 908.20,2.79 L 911.22,4.14 L 912.72,4.86 L 915.61,6.57 L 917.04,7.46 L 919.77,9.50 L 921.11,10.55 L 923.65,12.87 L 924.88,14.06 L 927.18,16.64 L 928.30,17.95 L 930.32,20.75 L 931.29,22.17 L 933.01,25.14 L 935.19,29.78 L 937.50,35.50 L 937.50,1082.50 L 935.19,1088.22 L 934.55,1089.80 L 933.01,1092.86 L 932.19,1094.36 L 930.32,1097.25 L 929.34,1098.67 L 927.18,1101.36 L 926.07,1102.68 L 923.65,1105.13 L 922.41,1106.32 L 919.77,1108.50 L 918.43,1109.56 L 915.61,1111.43 L 914.18,1112.33 L 911.22,1113.86 L 906.65,1115.74 L 906.34,1115.85 L 905.45,1116.04 L 904.93,1116.13 L 903.36,1116.30 L 902.91,1116.34 L 901.82,1116.41 L 901.24,1116.45 L 899.86,1116.52 L 899.13,1116.56 L 897.43,1116.63 L 896.53,1116.66 L 894.45,1116.72 L 893.36,1116.75 L 890.87,1116.81 L 889.57,1116.84 L 886.62,1116.89 L 885.09,1116.92 L 881.65,1116.97 L 879.86,1117.00 L 875.88,1117.04 L 873.81,1117.06 L 869.25,1117.11 L 866.89,1117.13 L 861.70,1117.17 L 859.03,1117.19 L 853.17,1117.22 L 850.16,1117.24 L 843.60,1117.27 L 840.22,1117.29 L 832.91,1117.32 L 829.16,1117.33 L 821.05,1117.36 L 816.90,1117.37 L 807.96,1117.40 L 803.38,1117.41 L 793.56,1117.43 L 788.54,1117.44 L 777.81,1117.46 L 772.32,1117.47 L 760.63,1117.49 L 754.65,1117.50 L 741.96,1117.51 L 735.48,1117.52 L 721.73,1117.54 L 718.23,1117.54 L 711.02,1117.55 L 707.38,1117.55 L 699.90,1117.56 L 696.12,1117.56 L 688.35,1117.57 L 684.43,1117.57 L 676.38,1117.58 L 672.32,1117.58 L 663.97,1117.59 L 659.76,1117.59 L 651.12,1117.60 L 646.76,1117.60 L 637.82,1117.61 L 633.31,1117.61 L 624.06,1117.61 L 619.40,1117.62 L 609.83,1117.62 L 605.01,1117.62 L 595.13,1117.63 L 590.15,1117.63 L 579.94,1117.64 L 574.80,1117.64 L 564.27,1117.65 L 558.96,1117.65 L 548.09,1117.65 L 542.62,1117.66 L 531.41,1117.66 L 525.77,1117.66 L 514.22,1117.67 L 496.50,1117.68 L 486.87,1117.68 L 468.23,1117.69 L 459.01,1117.69 L 441.17,1117.70 L 432.35,1117.70 L 415.30,1117.70 L 406.88,1117.71 L 390.60,1117.71 L 382.56,1117.71 L 367.05,1117.71 L 359.39,1117.71 L 344.62,1117.71 L 337.33,1117.71 L 323.30,1117.71 L 316.38,1117.71 L 303.06,1117.70 L 296.50,1117.70 L 283.89,1117.69 L 277.67,1117.69 L 265.76,1117.68 L 259.88,1117.68 L 248.64,1117.67 L 243.11,1117.67 L 232.53,1117.65 L 227.33,1117.65 L 217.40,1117.64 L 212.52,1117.63 L 203.22,1117.61 L 198.65,1117.61 L 189.98,1117.59 L 185.72,1117.58 L 177.66,1117.56 L 173.70,1117.55 L 166.23,1117.53 L 162.56,1117.52 L 155.67,1117.50 L 152.29,1117.49 L 145.96,1117.46 L 142.87,1117.45 L 137.09,1117.42 L 134.27,1117.41 L 129.02,1117.38 L 126.47,1117.36 L 121.75,1117.33 L 119.45,1117.32 L 115.24,1117.28 L 113.19,1117.26 L 109.47,1117.23 L 107.68,1117.21 L 104.44,1117.17 L 102.88,1117.15 L 100.10,1117.11 L 98.77,1117.09 L 96.45,1117.05 L 95.35,1117.03 L 93.46,1116.98 L 92.57,1116.96 L 91.11,1116.91 L 90.44,1116.89 L 89.39,1116.84 L 88.91,1116.81 L 88.26,1116.76 L 87.98,1116.73 L 87.70,1116.68 L 86.56,1116.32 L 84.10,1114.91 L 82.87,1114.12 L 80.58,1112.14 L 79.49,1111.12 L 77.79,1108.99 L 77.42,1108.46 L 76.87,1107.45 L 76.38,1106.05 L 76.37,1105.96 L 76.33,1105.53 L 76.32,1105.28 L 76.28,1104.54 L 76.26,1104.14 L 76.23,1103.10 L 76.21,1102.55 L 76.18,1101.23 L 76.14,1099.85 L 76.08,1096.31 L 76.05,1094.43 L 75.98,1090.00 L 75.95,1087.69 L 75.89,1082.50 L 75.86,1079.83 L 75.81,1074.03 L 75.79,1071.07 L 75.75,1064.79 L 75.70,1055.00 L 75.50,1006.50 L 44.50,1006.00 L 42.81,1005.97 L 39.69,1005.92 L 38.18,1005.89 L 35.39,1005.84 L 34.03,1005.81 L 31.55,1005.76 L 30.35,1005.73 L 28.15,1005.68 L 26.02,1005.62 L 22.54,1005.50 L 20.92,1005.43 L 18.31,1005.28 L 17.11,1005.20 L 15.22,1005.02 L 14.35,1004.92 L 13.02,1004.68 L 12.41,1004.56 L 11.46,1004.27 L 10.30,1003.75 L 9.50,1003.31 L 8.07,1002.31 L 7.37,1001.79 L 6.15,1000.64 L 4.98,999.45 L 3.28,996.73 L 2.54,995.33 L 1.68,992.32 L 1.35,990.79 L 1.32,987.68 L 1.41,986.13 L 2.19,983.11 L 2.69,981.63 L 4.28,978.88 L 5.18,977.57 L 7.57,975.30 L 8.22,974.77 L 9.66,973.83 L 12.04,972.63 L 12.40,972.48 L 13.30,972.22 L 13.80,972.10 L 15.06,971.90 L 15.75,971.81 L 17.48,971.65 L 18.42,971.58 L 20.74,971.47 L 21.98,971.42 L 25.00,971.35 L 26.61,971.32 L 30.44,971.28 L 32.47,971.27 L 37.23,971.27 L 38.48,971.27 L 41.18,971.27 L 45.53,971.29 L 75.50,971.41 L 75.50,883.50 L 44.00,883.00 L 41.34,882.96 L 36.50,882.86 L 34.16,882.82 L 29.97,882.71 L 27.96,882.65 L 24.40,882.53 L 22.70,882.47 L 19.77,882.34 L 18.39,882.27 L 16.08,882.12 L 15.00,882.04 L 13.31,881.88 L 12.54,881.80 L 11.45,881.62 L 10.50,881.34 L 9.72,880.88 L 8.03,879.50 L 7.18,878.75 L 5.55,876.99 L 4.76,876.09 L 3.44,874.24 L 2.06,871.68 L 1.75,870.85 L 1.36,869.09 L 1.21,868.20 L 1.13,866.37 L 1.13,865.45 L 1.34,863.60 L 1.48,862.67 L 1.97,860.86 L 2.24,859.96 L 2.98,858.23 L 3.39,857.39 L 4.37,855.81 L 4.89,855.05 L 6.09,853.67 L 8.13,851.90 L 8.97,851.30 L 10.60,850.51 L 11.09,850.34 L 12.41,850.07 L 13.14,849.94 L 15.15,849.74 L 15.70,849.70 L 16.99,849.62 L 17.66,849.58 L 19.22,849.51 L 20.03,849.47 L 21.88,849.41 L 22.84,849.38 L 25.03,849.33 L 26.16,849.30 L 28.71,849.25 L 30.04,849.22 L 32.99,849.17 L 34.51,849.14 L 37.90,849.09 L 43.50,849.00 L 75.50,848.50 L 76.02,761.13 L 45.26,760.82 L 43.52,760.80 L 40.32,760.76 L 38.76,760.74 L 35.92,760.71 L 34.53,760.69 L 32.02,760.65 L 30.80,760.63 L 28.59,760.59 L 27.52,760.57 L 25.59,760.52 L 24.66,760.50 L 22.98,760.44 L 21.37,760.39 L 18.82,760.24 L 17.63,760.17 L 15.79,759.98 L 14.94,759.88 L 13.62,759.63 L 10.66,758.59 L 9.83,758.18 L 8.29,757.13 L 7.55,756.58 L 6.21,755.28 L 5.57,754.60 L 4.44,753.09 L 3.91,752.31 L 3.02,750.64 L 2.60,749.79 L 1.97,747.99 L 1.69,747.08 L 1.34,745.21 L 1.20,744.27 L 1.15,742.36 L 1.43,739.51 L 1.60,738.60 L 2.60,736.42 L 3.18,735.31 L 4.78,733.03 L 5.62,731.92 L 7.52,729.94 L 10.39,727.71 L 10.57,727.61 L 11.35,727.41 L 11.81,727.31 L 13.17,727.14 L 13.92,727.05 L 15.87,726.89 L 16.92,726.81 L 19.49,726.67 L 20.86,726.60 L 24.08,726.47 L 25.77,726.41 L 29.67,726.30 L 31.70,726.24 L 36.30,726.14 L 44.00,726.00 L 75.50,725.50 L 76.02,638.00 L 45.76,637.98 L 44.05,637.98 L 40.92,637.97 L 39.39,637.97 L 36.60,637.96 L 35.24,637.96 L 32.77,637.94 L 31.57,637.93 L 29.40,637.91 L 27.29,637.89 L 23.87,637.82 L 22.28,637.78 L 19.74,637.66 L 18.56,637.60 L 16.71,637.43 L 15.85,637.33 L 14.50,637.10 L 11.42,636.10 L 10.58,635.72 L 9.04,634.81 L 8.30,634.33 L 6.98,633.25 L 5.71,632.13 L 3.81,629.49 L 2.96,628.12 L 1.90,625.13 L 1.48,623.61 L 1.26,620.46 L 1.26,618.88 L 1.90,615.78 L 2.32,614.25 L 3.80,611.38 L 4.64,609.99 L 6.97,607.56 L 7.60,606.98 L 9.03,605.96 L 11.41,604.61 L 11.77,604.44 L 12.63,604.15 L 13.09,604.01 L 14.27,603.78 L 14.92,603.67 L 16.56,603.50 L 17.46,603.42 L 19.71,603.29 L 20.93,603.23 L 23.95,603.15 L 25.57,603.11 L 29.50,603.06 L 30.55,603.05 L 32.83,603.03 L 34.01,603.02 L 36.58,603.01 L 37.89,603.01 L 40.76,603.00 L 45.40,603.00 L 76.00,603.00 L 76.00,515.00 L 43.77,515.00 L 40.76,515.00 L 39.29,514.99 L 36.58,514.99 L 35.26,514.98 L 32.83,514.97 L 31.66,514.96 L 29.50,514.94 L 27.41,514.92 L 23.95,514.85 L 22.33,514.81 L 19.71,514.71 L 18.49,514.65 L 16.56,514.50 L 15.67,514.42 L 14.27,514.22 L 13.63,514.11 L 12.63,513.85 L 11.41,513.39 L 10.56,512.99 L 9.03,512.04 L 8.29,511.55 L 6.97,510.44 L 5.70,509.30 L 3.80,506.62 L 2.95,505.24 L 1.90,502.22 L 1.47,500.69 L 1.26,497.54 L 1.27,495.96 L 1.90,492.87 L 2.32,491.35 L 3.81,488.51 L 4.65,487.14 L 6.98,484.75 L 7.61,484.19 L 9.04,483.19 L 11.42,481.90 L 12.34,481.48 L 14.50,480.90 L 15.13,480.78 L 16.71,480.57 L 17.56,480.48 L 19.74,480.34 L 20.91,480.28 L 23.87,480.18 L 25.47,480.14 L 29.40,480.09 L 30.45,480.08 L 32.77,480.06 L 33.97,480.05 L 36.60,480.04 L 37.96,480.03 L 40.92,480.03 L 45.76,480.02 L 76.02,480.00 L 75.50,392.50 L 44.00,392.00 L 41.25,391.96 L 36.30,391.86 L 33.91,391.81 L 29.67,391.70 L 27.64,391.65 L 24.08,391.53 L 22.39,391.47 L 19.49,391.33 L 18.13,391.26 L 15.87,391.11 L 14.81,391.03 L 13.17,390.86 L 12.42,390.78 L 11.35,390.59 L 10.39,390.29 L 9.04,389.51 L 6.78,387.56 L 5.73,386.53 L 4.08,384.16 L 3.33,382.94 L 2.29,380.30 L 1.85,378.96 L 1.44,376.18 L 1.31,374.78 L 1.54,372.00 L 1.73,370.63 L 2.61,367.98 L 3.14,366.69 L 4.68,364.32 L 7.76,361.23 L 11.34,358.50 L 75.50,357.50 L 76.02,270.13 L 45.26,269.82 L 43.45,269.80 L 40.15,269.76 L 38.54,269.74 L 35.62,269.71 L 34.21,269.69 L 31.64,269.65 L 30.40,269.63 L 28.16,269.59 L 27.08,269.57 L 25.15,269.52 L 24.21,269.50 L 22.55,269.44 L 20.95,269.38 L 18.45,269.24 L 17.30,269.16 L 15.53,268.96 L 14.71,268.85 L 13.45,268.57 L 10.50,267.41 L 9.64,266.96 L 8.08,265.89 L 7.32,265.32 L 5.98,264.03 L 5.34,263.36 L 4.23,261.89 L 3.70,261.13 L 2.85,259.50 L 2.45,258.68 L 1.85,256.93 L 1.59,256.04 L 1.27,254.20 L 1.15,253.27 L 1.13,251.37 L 1.44,248.48 L 1.61,247.57 L 2.60,245.40 L 3.19,244.29 L 4.78,242.03 L 5.63,240.91 L 7.52,238.93 L 10.39,236.71 L 10.57,236.61 L 11.35,236.41 L 11.81,236.31 L 13.17,236.14 L 13.92,236.05 L 15.87,235.89 L 16.92,235.81 L 19.49,235.67 L 20.86,235.60 L 24.08,235.47 L 25.77,235.41 L 29.67,235.30 L 31.70,235.24 L 36.30,235.14 L 44.00,235.00 L 75.50,234.50 L 76.02,147.00 L 45.76,146.98 L 44.05,146.98 L 40.90,146.97 L 39.37,146.97 L 36.57,146.96 L 35.21,146.96 L 32.74,146.94 L 31.54,146.93 L 29.36,146.91 L 27.25,146.89 L 23.83,146.82 L 22.23,146.78 L 19.70,146.66 L 18.52,146.59 L 16.68,146.42 L 15.82,146.33 L 14.48,146.09 L 11.38,145.09 L 9.77,144.35 L 7.11,142.36 L 5.88,141.28 L 4.01,138.75 L 3.16,137.43 L 2.07,134.55 L 1.62,133.08 L 1.32,130.02 L 1.27,128.49 L 1.76,125.45 L 2.11,123.95 L 3.41,121.11 L 4.16,119.73 L 6.26,117.28 L 10.34,114.23 L 10.68,114.04 L 11.49,113.72 L 11.93,113.57 L 13.05,113.31 L 13.67,113.19 L 15.26,112.98 L 16.14,112.88 L 18.37,112.71 L 19.58,112.64 L 22.60,112.50 L 24.23,112.44 L 28.21,112.32 L 29.27,112.29 L 31.60,112.24 L 32.80,112.21 L 35.43,112.16 L 36.78,112.13 L 39.72,112.08 L 44.50,112.00 L 75.50,111.50 L 75.70,63.00 L 75.71,59.67 L 75.75,53.21 L 75.77,50.02 L 75.81,43.97 L 75.84,41.01 L 75.89,35.50 L 75.92,32.83 L 75.98,28.01 L 76.01,25.70 L 76.07,21.70 L 76.11,19.82 L 76.17,16.79 L 76.19,16.10 L 76.23,14.92 L 76.24,14.37 L 76.28,13.48 L 76.29,13.08 L 76.33,12.50 L 76.38,11.99 L 76.48,11.45 L 76.94,10.32 L 77.20,9.75 L 77.95,8.61 L 78.75,7.47 L 81.02,5.32 L 82.24,4.30 L 85.03,2.62 L 89.37,0.99 L 89.49,0.97 L 90.05,0.92 L 90.38,0.89 L 91.38,0.85 L 91.94,0.83 L 93.39,0.78 L 94.17,0.76 L 96.08,0.72 L 97.09,0.70 L 99.47,0.66 L 100.72,0.64 L 103.57,0.60 L 105.06,0.59 L 108.39,0.55 L 110.12,0.53 L 113.94,0.50 L 115.92,0.49 L 120.24,0.46 L 122.47,0.44 L 127.30,0.41 L 129.77,0.40 L 135.12,0.37 L 137.86,0.36 L 143.72,0.33 L 146.72,0.32 L 153.12,0.30 L 156.38,0.29 L 163.32,0.27 L 166.85,0.26 L 174.33,0.24 L 178.14,0.23 L 186.18,0.21 L 190.27,0.21 L 198.86,0.19 L 203.23,0.19 L 212.40,0.17 L 217.05,0.17 L 226.80,0.16 L 231.74,0.15 L 242.07,0.14 L 247.31,0.14 L 258.24,0.13 L 263.77,0.13 L 275.30,0.12 L 281.14,0.12 L 293.27,0.12 L 299.42,0.12 L 312.17,0.12 L 318.62,0.12 M 637.30,34.99 L 626.99,34.99 L 621.78,34.99 L 611.08,34.99 L 605.68,34.99 L 594.57,35.00 L 588.96,35.00 L 577.44,35.00 L 571.62,35.00 L 559.68,35.00 L 553.66,35.00 L 541.29,35.00 L 535.05,35.00 L 522.25,35.00 L 502.55,35.00 L 110.00,35.00 L 110.00,112.00 L 137.61,112.00 L 140.38,112.00 L 141.73,112.00 L 144.19,111.99 L 145.38,111.99 L 147.53,111.98 L 148.58,111.97 L 150.46,111.95 L 152.28,111.93 L 155.19,111.86 L 156.54,111.82 L 158.64,111.71 L 159.61,111.64 L 161.07,111.47 L 161.74,111.37 L 162.75,111.12 L 164.92,110.06 L 165.79,109.44 L 167.69,108.43 L 168.66,107.96 L 170.73,107.26 L 171.78,106.95 L 173.97,106.55 L 175.07,106.40 L 177.31,106.31 L 178.44,106.31 L 180.69,106.53 L 181.82,106.68 L 184.03,107.21 L 185.13,107.51 L 187.26,108.36 L 190.28,109.96 L 191.81,110.94 L 194.38,113.26 L 195.59,114.48 L 197.49,117.22 L 198.36,118.63 L 199.58,121.67 L 200.11,123.21 L 200.64,126.43 L 200.81,128.06 L 200.64,131.35 L 200.46,132.99 L 199.57,136.24 L 199.04,137.84 L 197.42,140.93 L 194.15,145.27 L 193.20,146.28 L 191.18,148.00 L 190.15,148.81 L 187.98,150.12 L 186.88,150.72 L 184.60,151.60 L 183.44,151.99 L 181.06,152.45 L 179.86,152.63 L 177.41,152.66 L 176.17,152.63 L 173.68,152.23 L 172.42,151.98 L 169.90,151.14 L 166.12,149.40 L 165.05,148.81 L 163.16,148.03 L 162.63,147.86 L 161.37,147.60 L 160.68,147.49 L 158.93,147.32 L 157.96,147.24 L 155.49,147.14 L 154.14,147.09 L 150.73,147.04 L 149.81,147.03 L 147.74,147.02 L 146.68,147.01 L 144.30,147.01 L 143.07,147.00 L 140.36,147.00 L 135.87,147.00 L 110.00,147.00 L 110.00,235.00 L 160.80,235.00 L 166.50,232.00 L 167.78,231.33 L 170.33,230.35 L 171.61,229.92 L 174.14,229.40 L 175.41,229.20 L 177.89,229.11 L 179.12,229.11 L 181.51,229.41 L 182.69,229.61 L 184.97,230.28 L 186.09,230.65 L 188.21,231.65 L 189.25,232.18 L 191.19,233.48 L 192.13,234.16 L 193.86,235.72 L 194.69,236.53 L 196.16,238.33 L 196.86,239.26 L 198.06,241.26 L 198.61,242.29 L 199.49,244.46 L 199.89,245.57 L 200.42,247.88 L 200.64,249.06 L 200.79,251.48 L 200.82,252.70 L 200.56,255.21 L 200.37,256.46 L 199.67,259.01 L 198.08,262.85 L 197.51,263.96 L 196.10,266.01 L 195.35,267.00 L 193.62,268.79 L 192.72,269.65 L 190.73,271.15 L 189.71,271.86 L 187.53,273.03 L 186.42,273.58 L 184.11,274.40 L 182.94,274.77 L 180.55,275.22 L 179.36,275.39 L 176.96,275.42 L 173.41,274.98 L 172.08,274.68 L 169.06,273.64 L 168.34,273.37 L 167.02,272.79 L 165.41,271.95 L 164.69,271.50 L 163.01,270.88 L 162.51,270.75 L 161.24,270.54 L 160.54,270.44 L 158.74,270.30 L 157.75,270.23 L 155.24,270.14 L 153.88,270.10 L 150.48,270.05 L 149.57,270.04 L 147.55,270.03 L 146.50,270.02 L 144.20,270.01 L 143.01,270.01 L 140.40,270.00 L 136.12,270.00 L 109.98,270.00 L 110.24,313.75 L 110.50,357.50 L 135.75,357.77 L 160.99,358.03 L 165.11,355.31 L 165.72,354.91 L 167.13,354.21 L 167.87,353.88 L 169.49,353.32 L 171.16,352.80 L 174.87,352.21 L 176.74,352.00 L 180.46,352.08 L 185.49,353.00 L 186.49,353.33 L 188.35,354.19 L 189.26,354.65 L 190.94,355.76 L 191.75,356.34 L 193.23,357.66 L 193.95,358.35 L 195.23,359.85 L 196.46,361.40 L 198.30,364.91 L 199.11,366.72 L 200.08,370.59 L 200.45,372.55 L 200.49,376.54 L 200.40,378.53 L 199.49,382.39 L 199.19,383.34 L 198.43,385.17 L 198.01,386.08 L 196.98,387.80 L 196.44,388.65 L 195.15,390.23 L 192.92,392.41 L 191.96,393.22 L 189.95,394.58 L 188.93,395.22 L 186.83,396.23 L 185.77,396.70 L 183.60,397.36 L 182.50,397.64 L 180.27,397.95 L 179.14,398.06 L 176.86,398.02 L 175.72,397.95 L 173.42,397.55 L 172.27,397.30 L 169.96,396.54 L 166.50,395.00 L 160.80,392.00 L 110.00,392.00 L 110.00,480.00 L 135.87,480.00 L 137.46,480.00 L 140.36,480.00 L 141.76,480.00 L 144.30,479.99 L 145.53,479.99 L 147.74,479.98 L 148.81,479.97 L 150.73,479.96 L 152.57,479.94 L 155.49,479.86 L 156.84,479.82 L 158.93,479.68 L 159.89,479.61 L 161.37,479.40 L 162.06,479.28 L 163.16,478.97 L 166.12,477.60 L 167.37,476.91 L 169.85,475.86 L 171.08,475.38 L 173.51,474.75 L 174.71,474.49 L 177.09,474.28 L 178.27,474.23 L 180.59,474.45 L 181.74,474.61 L 184.00,475.25 L 185.12,475.62 L 187.30,476.68 L 188.38,477.26 L 190.49,478.74 L 193.55,481.43 L 194.58,482.46 L 196.31,484.61 L 197.13,485.70 L 198.43,487.95 L 199.03,489.08 L 199.90,491.42 L 200.28,492.59 L 200.72,494.99 L 200.88,496.20 L 200.88,498.64 L 200.83,499.87 L 200.39,502.34 L 200.11,503.57 L 199.23,506.05 L 197.41,509.75 L 196.61,511.11 L 194.58,513.48 L 193.51,514.61 L 191.03,516.49 L 189.74,517.37 L 186.92,518.74 L 185.49,519.35 L 182.46,520.17 L 180.94,520.51 L 177.83,520.75 L 176.28,520.79 L 173.22,520.44 L 171.70,520.18 L 168.81,519.19 L 164.79,516.96 L 164.16,516.51 L 162.65,515.88 L 162.19,515.75 L 160.99,515.54 L 160.33,515.44 L 158.58,515.29 L 157.62,515.23 L 155.15,515.14 L 153.80,515.10 L 150.43,515.05 L 149.52,515.04 L 147.50,515.02 L 146.45,515.02 L 144.15,515.01 L 142.96,515.01 L 140.34,515.00 L 136.04,515.00 L 110.00,515.00 L 110.00,603.00 L 137.61,603.00 L 140.38,603.00 L 141.73,603.00 L 144.19,602.99 L 145.38,602.99 L 147.53,602.98 L 148.58,602.97 L 150.46,602.95 L 152.28,602.93 L 155.19,602.86 L 156.54,602.82 L 158.64,602.71 L 159.61,602.64 L 161.07,602.47 L 161.74,602.37 L 162.75,602.12 L 164.92,601.06 L 165.29,600.79 L 166.34,600.21 L 166.91,599.92 L 168.21,599.34 L 172.31,597.94 L 173.37,597.68 L 175.47,597.37 L 176.52,597.26 L 178.58,597.25 L 179.60,597.28 L 181.58,597.55 L 182.57,597.71 L 184.47,598.24 L 186.35,598.82 L 189.78,600.67 L 191.43,601.70 L 194.29,604.34 L 195.63,605.74 L 197.77,609.00 L 198.74,610.70 L 200.02,614.44 L 200.28,615.40 L 200.61,617.38 L 200.75,618.38 L 200.82,620.42 L 200.82,621.46 L 200.60,623.55 L 199.94,626.74 L 199.70,627.58 L 198.97,629.30 L 198.56,630.16 L 197.53,631.87 L 196.42,633.57 L 193.55,636.71 L 192.04,638.20 L 188.68,640.60 L 187.83,641.13 L 186.11,641.98 L 183.57,642.88 L 182.07,643.26 L 179.12,643.58 L 177.66,643.67 L 174.77,643.41 L 173.33,643.20 L 170.46,642.35 L 166.12,640.40 L 165.05,639.81 L 163.16,639.03 L 162.63,638.86 L 161.37,638.60 L 160.68,638.49 L 158.93,638.32 L 157.96,638.24 L 155.49,638.14 L 154.14,638.09 L 150.73,638.04 L 149.81,638.03 L 147.74,638.02 L 146.68,638.01 L 144.30,638.01 L 143.07,638.00 L 140.36,638.00 L 135.87,638.00 L 110.00,638.00 L 110.00,726.00 L 160.80,726.00 L 166.50,723.00 L 167.65,722.40 L 169.96,721.46 L 171.11,721.03 L 173.42,720.45 L 174.57,720.21 L 176.86,719.98 L 178.01,719.92 L 180.27,720.05 L 181.39,720.16 L 183.60,720.64 L 184.69,720.93 L 186.83,721.77 L 187.89,722.23 L 189.95,723.42 L 192.92,725.59 L 194.18,726.64 L 196.22,729.12 L 197.17,730.40 L 198.60,733.25 L 199.24,734.70 L 200.05,737.79 L 200.38,739.35 L 200.58,742.56 L 200.59,744.17 L 200.17,747.38 L 199.88,748.97 L 198.83,752.05 L 198.23,753.56 L 196.55,756.38 L 193.34,760.20 L 192.51,760.99 L 190.63,762.33 L 189.65,762.97 L 187.54,764.00 L 186.45,764.48 L 184.17,765.19 L 183.01,765.51 L 180.62,765.89 L 179.42,766.04 L 176.99,766.08 L 175.78,766.06 L 173.38,765.75 L 172.19,765.56 L 169.88,764.90 L 166.60,763.50 L 165.43,762.88 L 163.46,762.06 L 162.92,761.89 L 161.64,761.62 L 160.94,761.50 L 159.18,761.32 L 158.21,761.24 L 155.73,761.14 L 154.38,761.09 L 150.94,761.04 L 150.01,761.03 L 147.93,761.02 L 146.86,761.01 L 144.46,761.01 L 143.22,761.00 L 140.48,761.00 L 135.94,761.00 L 109.98,761.00 L 110.24,804.75 L 110.50,848.50 L 135.75,848.77 L 160.99,849.03 L 165.11,846.31 L 165.72,845.91 L 167.13,845.21 L 167.87,844.88 L 169.49,844.32 L 171.16,843.80 L 174.87,843.21 L 176.74,843.00 L 180.46,843.08 L 185.49,844.00 L 186.68,844.39 L 189.12,845.72 L 190.33,846.46 L 192.65,848.35 L 193.77,849.34 L 195.74,851.59 L 198.08,855.15 L 198.73,856.43 L 199.67,858.99 L 200.08,860.27 L 200.56,862.79 L 200.74,864.05 L 200.79,866.52 L 200.76,867.74 L 200.42,870.12 L 200.20,871.29 L 199.49,873.54 L 199.09,874.64 L 198.06,876.74 L 197.50,877.76 L 196.16,879.67 L 195.46,880.59 L 193.86,882.28 L 193.03,883.09 L 191.19,884.52 L 190.25,885.20 L 188.21,886.35 L 187.17,886.89 L 184.97,887.72 L 183.85,888.10 L 181.51,888.59 L 180.33,888.78 L 177.89,888.89 L 176.66,888.90 L 174.14,888.60 L 172.88,888.39 L 170.33,887.65 L 166.50,886.00 L 160.80,883.00 L 110.00,883.00 L 110.00,971.00 L 127.25,971.25 L 129.08,971.28 L 132.46,971.32 L 134.10,971.34 L 137.12,971.37 L 138.59,971.39 L 141.27,971.40 L 142.58,971.41 L 144.95,971.41 L 146.10,971.40 L 148.20,971.39 L 149.21,971.37 L 151.04,971.33 L 152.82,971.29 L 155.69,971.13 L 157.04,971.04 L 159.21,970.78 L 160.23,970.64 L 161.90,970.26 L 165.99,968.64 L 167.27,967.94 L 169.84,966.89 L 171.13,966.41 L 173.67,965.79 L 174.93,965.54 L 177.42,965.35 L 178.66,965.31 L 181.08,965.55 L 182.28,965.72 L 184.61,966.39 L 185.76,966.78 L 187.99,967.88 L 189.08,968.48 L 191.18,969.99 L 194.15,972.73 L 195.43,974.10 L 197.42,977.07 L 198.32,978.58 L 199.57,981.76 L 200.11,983.37 L 200.64,986.65 L 200.82,988.30 L 200.64,991.57 L 200.46,993.19 L 199.58,996.33 L 199.05,997.88 L 197.49,1000.78 L 196.62,1002.19 L 194.38,1004.74 L 190.28,1008.04 L 189.31,1008.65 L 187.26,1009.64 L 186.21,1010.10 L 184.03,1010.79 L 182.94,1011.09 L 180.69,1011.47 L 179.57,1011.62 L 177.31,1011.69 L 176.19,1011.69 L 173.97,1011.45 L 172.86,1011.29 L 170.73,1010.74 L 169.68,1010.43 L 167.69,1009.57 L 164.92,1007.94 L 164.28,1007.49 L 162.75,1006.88 L 162.29,1006.74 L 161.07,1006.53 L 160.40,1006.44 L 158.64,1006.29 L 157.68,1006.23 L 155.19,1006.14 L 153.85,1006.10 L 150.46,1006.05 L 149.55,1006.04 L 147.53,1006.02 L 146.49,1006.02 L 144.19,1006.01 L 143.00,1006.01 L 140.38,1006.00 L 136.10,1006.00 L 110.00,1006.00 L 110.00,1083.00 L 511.20,1083.00 L 528.22,1083.00 L 536.65,1083.00 L 553.02,1083.00 L 561.13,1083.00 L 576.86,1082.99 L 584.65,1082.99 L 599.75,1082.99 L 607.23,1082.98 L 621.71,1082.98 L 628.87,1082.97 L 642.74,1082.97 L 649.59,1082.96 L 662.85,1082.95 L 669.40,1082.95 L 682.05,1082.94 L 688.30,1082.93 L 700.36,1082.92 L 706.31,1082.92 L 717.78,1082.90 L 723.44,1082.90 L 734.32,1082.88 L 739.69,1082.88 L 750.00,1082.86 L 755.08,1082.85 L 764.82,1082.84 L 769.62,1082.83 L 778.80,1082.81 L 783.32,1082.80 L 791.94,1082.78 L 796.18,1082.77 L 804.25,1082.75 L 808.22,1082.74 L 815.75,1082.71 L 819.45,1082.70 L 826.44,1082.68 L 829.87,1082.67 L 836.34,1082.64 L 839.51,1082.63 L 845.45,1082.60 L 848.36,1082.58 L 853.79,1082.56 L 856.44,1082.54 L 861.37,1082.51 L 863.76,1082.49 L 868.18,1082.46 L 870.33,1082.45 L 874.26,1082.41 L 876.16,1082.39 L 879.60,1082.36 L 881.26,1082.34 L 884.22,1082.30 L 885.64,1082.28 L 888.12,1082.24 L 889.30,1082.22 L 891.32,1082.18 L 892.27,1082.16 L 893.83,1082.12 L 894.55,1082.10 L 895.65,1082.05 L 896.15,1082.03 L 896.80,1081.99 L 897.07,1081.96 L 897.29,1081.91 L 897.94,1081.62 L 899.46,1080.32 L 901.33,1078.01 L 901.43,1077.85 L 901.61,1077.02 L 901.65,1076.76 L 901.73,1076.04 L 901.77,1075.65 L 901.85,1074.64 L 901.89,1074.09 L 901.96,1072.73 L 902.00,1072.01 L 902.06,1070.26 L 902.10,1069.33 L 902.16,1067.13 L 902.19,1065.98 L 902.25,1063.29 L 902.28,1061.88 L 902.33,1058.64 L 902.36,1056.95 L 902.41,1053.12 L 902.43,1051.13 L 902.48,1046.65 L 902.50,1044.33 L 902.54,1039.16 L 902.56,1036.49 L 902.60,1030.57 L 902.62,1027.52 L 902.65,1020.81 L 902.67,1017.36 L 902.70,1009.80 L 902.72,1005.92 L 902.75,997.47 L 902.76,993.13 L 902.79,983.74 L 902.80,978.93 L 902.82,968.54 L 902.83,963.22 L 902.85,951.79 L 902.86,948.87 L 902.87,942.81 L 902.87,939.75 L 902.88,933.42 L 902.89,930.22 L 902.89,923.60 L 902.90,920.26 L 902.91,913.35 L 902.91,909.86 L 902.92,902.66 L 902.92,899.02 L 902.93,891.51 L 902.93,887.72 L 902.93,879.90 L 902.94,875.95 L 902.94,867.82 L 902.95,863.72 L 902.95,855.26 L 902.95,850.99 L 902.96,842.21 L 902.96,837.78 L 902.96,828.66 L 902.97,824.06 L 902.97,814.60 L 902.97,809.83 L 902.97,800.03 L 902.98,795.08 L 902.98,784.92 L 902.98,779.80 L 902.98,769.28 L 902.98,763.98 L 902.99,753.10 L 902.99,747.61 L 902.99,736.36 L 902.99,730.68 L 902.99,719.05 L 902.99,713.19 L 902.99,701.17 L 902.99,695.11 L 903.00,682.71 L 903.00,676.45 L 903.00,663.65 L 903.00,657.20 L 903.00,643.99 L 903.00,637.33 L 903.00,623.72 L 903.00,616.86 L 903.00,602.83 L 903.00,595.76 L 903.00,581.30 L 903.00,559.14 L 903.00,552.92 L 903.00,540.69 L 903.00,534.61 L 903.00,522.65 L 903.00,510.75 L 903.00,487.76 L 903.00,476.39 L 902.99,454.44 L 902.99,443.60 L 902.99,422.68 L 902.98,412.35 L 902.98,392.43 L 902.98,382.60 L 902.97,363.67 L 902.97,354.33 L 902.96,336.37 L 902.95,327.51 L 902.94,310.49 L 902.94,302.10 L 902.93,286.02 L 902.92,278.09 L 902.91,262.91 L 902.90,255.43 L 902.89,241.14 L 902.88,234.10 L 902.86,220.68 L 902.86,214.07 L 902.84,201.50 L 902.83,195.31 L 902.81,183.56 L 902.80,177.79 L 902.78,166.85 L 902.77,161.48 L 902.75,151.33 L 902.74,146.35 L 902.71,136.97 L 902.70,132.37 L 902.67,123.73 L 902.66,119.51 L 902.63,111.60 L 902.62,107.74 L 902.59,100.54 L 902.57,97.03 L 902.54,90.52 L 902.52,87.35 L 902.49,81.51 L 902.47,78.67 L 902.44,73.48 L 902.42,70.96 L 902.38,66.40 L 902.36,64.20 L 902.32,60.25 L 902.30,58.35 L 902.26,54.99 L 902.24,53.38 L 902.19,50.58 L 902.17,49.26 L 902.12,47.02 L 902.10,45.96 L 902.05,44.25 L 902.02,43.46 L 901.97,42.26 L 901.94,41.72 L 901.89,41.01 L 901.81,40.47 L 901.47,39.74 L 901.41,38.54 L 901.28,38.27 L 900.59,37.78 L 900.36,37.66 L 899.71,37.44 L 899.35,37.33 L 898.39,37.13 L 897.87,37.03 L 896.55,36.85 L 895.84,36.76 L 894.10,36.59 L 893.17,36.51 L 890.94,36.36 L 889.76,36.29 L 886.99,36.15 L 885.53,36.08 L 882.16,35.96 L 880.39,35.91 L 876.35,35.80 L 874.24,35.75 L 869.47,35.65 L 866.99,35.61 L 861.45,35.53 L 858.57,35.49 L 852.17,35.42 L 848.87,35.38 L 841.57,35.32 L 837.80,35.29 L 829.54,35.24 L 825.28,35.22 L 815.99,35.18 L 813.60,35.17 L 808.62,35.15 L 806.10,35.14 L 800.84,35.12 L 798.18,35.12 L 792.64,35.10 L 789.83,35.09 L 784.00,35.08 L 781.04,35.08 L 774.91,35.06 L 771.81,35.06 L 765.37,35.05 L 762.11,35.05 L 755.36,35.04 L 751.94,35.03 L 744.87,35.03 L 741.29,35.02 L 733.88,35.02 L 730.14,35.01 L 722.40,35.01 L 718.48,35.01 L 710.40,35.00 L 706.31,35.00 L 697.87,35.00 L 693.61,35.00 L 684.81,35.00 L 680.37,35.00 L 671.21,34.99 L 666.58,34.99 L 657.04,34.99 L 652.23,34.99 L 642.31,34.99 M 409.09,81.48 L 411.96,81.50 L 417.65,81.66 L 420.46,81.75 L 425.68,82.04 L 426.94,82.12 L 429.29,82.30 L 430.43,82.39 L 432.51,82.60 L 433.52,82.71 L 435.28,82.96 L 437.50,83.35 L 441.08,84.13 L 447.69,85.71 L 450.92,86.50 L 456.99,88.16 L 459.97,89.01 L 465.69,90.82 L 468.51,91.76 L 474.06,93.80 L 476.83,94.86 L 482.39,97.20 L 485.20,98.42 L 490.97,101.13 L 493.90,102.55 L 500.08,105.71 L 510.00,111.03 L 513.11,112.74 L 518.78,115.67 L 521.54,117.05 L 526.62,119.33 L 529.09,120.40 L 533.69,122.08 L 535.94,122.84 L 540.19,123.94 L 542.27,124.42 L 546.28,124.97 L 548.27,125.18 L 552.17,125.20 L 554.12,125.15 L 558.04,124.68 L 564.07,123.44 L 564.91,123.23 L 566.67,122.70 L 567.58,122.41 L 569.57,121.68 L 570.60,121.29 L 572.95,120.31 L 574.18,119.78 L 577.01,118.49 L 578.50,117.79 L 581.95,116.13 L 583.77,115.24 L 587.97,113.13 L 589.07,112.58 L 591.44,111.37 L 592.65,110.75 L 595.25,109.42 L 596.58,108.73 L 599.43,107.26 L 604.00,104.89 L 605.17,104.28 L 607.93,102.91 L 609.35,102.21 L 612.35,100.78 L 613.85,100.08 L 616.72,98.77 L 620.50,97.12 L 621.60,96.66 L 623.76,95.76 L 624.82,95.32 L 626.74,94.51 L 627.64,94.14 L 629.09,93.53 L 630.50,92.94 L 630.86,92.78 L 631.99,92.37 L 632.61,92.15 L 634.18,91.64 L 635.01,91.36 L 636.92,90.77 L 637.91,90.46 L 640.06,89.81 L 642.24,89.15 L 646.90,87.83 L 653.50,86.05 L 655.37,85.57 L 658.77,84.76 L 660.43,84.37 L 663.53,83.73 L 666.59,83.12 L 672.53,82.35 L 674.06,82.19 L 677.28,81.95 L 678.93,81.84 L 682.52,81.70 L 684.38,81.64 L 688.51,81.59 L 695.50,81.57 L 697.78,81.58 L 701.66,81.61 L 703.50,81.62 L 706.62,81.68 L 708.10,81.72 L 710.65,81.82 L 711.86,81.88 L 714.00,82.05 L 716.07,82.24 L 719.76,82.86 L 720.70,83.05 L 722.69,83.50 L 726.00,84.31 L 729.01,85.07 L 734.93,86.83 L 737.86,87.74 L 743.45,89.72 L 746.17,90.72 L 751.15,92.82 L 757.64,95.99 L 761.18,97.93 L 768.01,102.28 L 771.38,104.52 L 777.83,109.43 L 781.01,111.96 L 787.07,117.41 L 790.04,120.20 L 795.66,126.14 L 798.41,129.17 L 803.55,135.57 L 806.06,138.83 L 810.69,145.65 L 812.94,149.11 L 817.03,156.31 L 822.52,167.50 L 823.03,168.66 L 823.88,170.59 L 824.28,171.50 L 824.93,173.01 L 825.24,173.71 L 825.73,174.89 L 825.97,175.44 L 826.35,176.39 L 826.71,177.29 L 827.23,178.82 L 828.06,181.50 L 828.39,182.60 L 829.20,185.06 L 829.40,185.65 L 829.77,186.71 L 830.26,188.00 L 830.60,188.84 L 831.28,190.85 L 831.62,191.91 L 832.30,194.32 L 832.64,195.57 L 833.32,198.34 L 833.66,199.76 L 834.32,202.86 L 834.65,204.45 L 835.30,207.84 L 835.61,209.57 L 836.23,213.23 L 837.94,225.00 L 838.09,226.17 L 838.45,228.78 L 838.63,230.11 L 839.00,232.80 L 839.19,234.12 L 839.55,236.57 L 840.02,239.62 L 840.10,240.11 L 840.24,241.41 L 840.31,242.11 L 840.44,243.77 L 840.50,244.64 L 840.60,246.62 L 840.65,247.64 L 840.73,249.88 L 840.81,252.18 L 840.91,257.35 L 840.95,259.99 L 840.97,265.56 L 840.97,268.36 L 840.91,273.93 L 840.87,276.68 L 840.73,281.84 L 840.65,284.34 L 840.43,288.69 L 840.37,289.72 L 840.23,291.54 L 840.01,293.89 L 839.50,298.31 L 838.47,306.89 L 837.95,311.12 L 836.92,319.09 L 836.42,322.98 L 835.44,330.09 L 835.19,331.80 L 834.73,335.02 L 834.05,339.50 L 833.71,341.71 L 833.04,345.58 L 832.70,347.50 L 831.88,351.46 L 831.65,352.50 L 831.15,354.75 L 830.88,355.92 L 830.26,358.51 L 829.94,359.86 L 829.20,362.91 L 827.90,368.12 L 827.65,369.11 L 827.27,371.43 L 827.18,371.99 L 827.07,373.02 L 827.00,374.31 L 827.00,375.02 L 826.71,376.31 L 826.00,377.50 L 825.72,377.67 L 825.29,378.67 L 825.00,380.62 L 825.00,381.31 L 824.70,382.96 L 823.97,385.05 L 823.83,385.32 L 823.50,386.13 L 823.33,386.58 L 822.98,387.66 L 822.04,391.24 L 821.79,392.41 L 821.10,395.28 L 820.93,395.98 L 820.58,397.30 L 820.12,399.00 L 819.84,399.96 L 819.12,402.50 L 818.14,406.00 L 817.92,406.80 L 817.39,408.58 L 817.10,409.50 L 816.44,411.51 L 816.09,412.55 L 815.30,414.82 L 813.96,418.50 L 813.86,418.77 L 813.55,419.67 L 813.38,420.16 L 812.98,421.38 L 811.65,425.50 L 811.07,427.36 L 810.00,430.58 L 809.49,432.10 L 808.59,434.57 L 808.16,435.70 L 807.46,437.31 L 806.69,438.65 L 806.50,438.84 L 806.20,439.80 L 806.00,441.61 L 806.00,442.23 L 805.71,443.40 L 805.00,444.50 L 804.72,444.67 L 804.29,445.35 L 804.00,446.53 L 804.00,446.73 L 803.79,447.54 L 803.66,448.00 L 803.24,449.23 L 801.40,453.72 L 801.03,454.54 L 800.39,455.96 L 800.09,456.64 L 799.56,457.84 L 799.05,459.00 L 798.24,460.93 L 797.86,461.87 L 797.14,463.73 L 795.95,467.00 L 795.61,467.96 L 794.72,470.35 L 793.50,473.50 L 793.04,474.66 L 792.18,477.04 L 791.76,478.22 L 791.06,480.42 L 790.74,481.46 L 790.29,483.18 L 790.00,484.88 L 790.00,485.05 L 789.80,485.80 L 789.67,486.22 L 789.24,487.36 L 787.42,491.58 L 786.97,492.54 L 786.08,494.17 L 785.64,494.93 L 784.70,496.21 L 784.21,496.81 L 783.11,497.78 L 782.52,498.23 L 781.15,498.94 L 780.42,499.27 L 778.67,499.78 L 777.73,500.01 L 775.50,500.35 L 774.32,500.50 L 771.50,500.73 L 766.50,501.00 L 754.50,501.50 L 753.86,525.50 L 753.80,527.74 L 753.67,531.74 L 753.61,533.67 L 753.47,537.09 L 753.40,538.73 L 753.25,541.63 L 753.17,543.01 L 752.99,545.43 L 752.90,546.59 L 752.70,548.59 L 752.60,549.54 L 752.37,551.18 L 752.26,551.96 L 752.00,553.29 L 751.56,555.00 L 751.11,556.51 L 750.10,559.91 L 749.85,560.73 L 749.42,562.21 L 748.89,564.00 L 748.43,565.58 L 747.05,569.20 L 746.30,571.07 L 744.41,575.10 L 743.42,577.15 L 741.13,581.39 L 737.36,587.73 L 736.96,588.36 L 735.73,589.99 L 735.06,590.85 L 733.37,592.85 L 732.48,593.89 L 730.44,596.15 L 729.39,597.29 L 727.12,599.68 L 724.81,602.08 L 720.00,606.76 L 718.81,607.89 L 716.54,609.95 L 713.39,612.66 L 712.49,613.40 L 711.25,614.57 L 710.70,615.15 L 710.01,616.37 L 709.71,617.03 L 709.34,618.81 L 709.26,619.31 L 709.11,620.51 L 708.89,622.66 L 708.81,623.60 L 708.55,625.82 L 708.41,626.97 L 708.07,629.37 L 707.90,630.58 L 707.53,632.88 L 706.99,635.91 L 706.85,636.65 L 706.61,637.89 L 706.51,638.47 L 706.35,639.44 L 706.22,640.35 L 706.21,641.54 L 706.25,642.06 L 706.59,642.76 L 707.56,643.66 L 708.06,644.03 L 709.60,644.61 L 711.94,645.01 L 712.35,645.01 L 713.40,645.23 L 713.95,645.37 L 715.22,645.83 L 716.53,646.35 L 719.54,647.96 L 721.06,648.83 L 724.04,650.90 L 727.86,654.14 L 728.86,655.15 L 730.62,657.18 L 731.47,658.20 L 732.95,660.27 L 733.66,661.32 L 734.87,663.48 L 735.44,664.57 L 736.40,666.84 L 736.84,667.99 L 737.55,670.41 L 737.88,671.64 L 738.36,674.24 L 738.57,675.57 L 738.83,678.38 L 738.98,682.88 L 738.99,683.97 L 738.97,685.82 L 738.96,686.71 L 738.90,688.22 L 738.83,689.66 L 738.46,691.95 L 738.22,693.07 L 737.38,695.33 L 737.14,695.94 L 736.53,697.28 L 735.41,699.61 L 734.21,702.09 L 731.38,706.38 L 729.90,708.42 L 726.46,711.88 L 724.66,713.52 L 720.54,716.23 L 713.50,719.52 L 713.23,719.62 L 712.01,719.85 L 711.32,719.97 L 709.45,720.22 L 708.45,720.34 L 706.16,720.58 L 702.51,720.88 L 693.52,721.50 L 692.25,728.50 L 692.08,729.46 L 691.80,731.32 L 691.67,732.22 L 691.50,733.81 L 691.42,734.56 L 691.38,735.71 L 691.46,736.75 L 691.54,736.96 L 692.12,737.30 L 692.48,737.46 L 693.62,737.69 L 694.27,737.80 L 695.99,737.93 L 699.22,738.01 L 701.45,738.02 L 705.63,738.36 L 707.67,738.59 L 711.49,739.40 L 713.35,739.87 L 716.81,741.14 L 718.50,741.84 L 721.62,743.59 L 723.14,744.53 L 725.94,746.76 L 727.30,747.94 L 729.77,750.66 L 730.97,752.09 L 733.15,755.31 L 736.08,760.71 L 736.73,762.08 L 737.62,764.29 L 738.02,765.36 L 738.50,767.44 L 738.71,768.52 L 738.90,771.10 L 738.93,771.80 L 738.97,773.41 L 738.98,776.21 L 738.98,777.87 L 738.83,780.92 L 738.73,782.41 L 738.37,785.16 L 738.16,786.51 L 737.57,789.01 L 737.24,790.23 L 736.40,792.54 L 735.94,793.67 L 734.82,795.83 L 734.22,796.90 L 732.80,798.98 L 732.05,800.01 L 730.31,802.04 L 727.31,805.12 L 726.17,806.21 L 724.11,808.04 L 723.10,808.91 L 721.18,810.34 L 720.22,811.01 L 718.28,812.10 L 717.29,812.60 L 715.16,813.39 L 714.06,813.75 L 711.58,814.29 L 710.28,814.53 L 707.29,814.89 L 705.72,815.05 L 702.05,815.26 L 695.62,815.49 L 694.12,815.53 L 691.46,815.62 L 690.20,815.66 L 687.98,815.76 L 686.93,815.81 L 685.12,815.93 L 684.27,815.99 L 682.83,816.12 L 682.15,816.19 L 681.04,816.36 L 680.53,816.44 L 679.72,816.63 L 678.25,817.33 L 678.02,817.55 L 677.63,818.39 L 677.44,818.86 L 677.15,820.16 L 677.02,820.86 L 676.83,822.59 L 676.66,825.62 L 676.50,832.50 L 687.50,833.11 L 689.49,833.22 L 693.08,833.59 L 694.82,833.81 L 697.97,834.42 L 699.50,834.76 L 702.27,835.66 L 703.61,836.14 L 706.07,837.35 L 707.27,838.00 L 709.49,839.55 L 710.57,840.38 L 712.61,842.33 L 713.62,843.35 L 715.55,845.72 L 718.40,849.79 L 719.03,850.76 L 720.09,852.48 L 720.58,853.30 L 721.41,854.80 L 722.19,856.26 L 723.20,859.01 L 723.64,860.42 L 724.16,863.69 L 724.28,864.59 L 724.46,866.62 L 724.70,870.15 L 724.82,872.19 L 724.74,875.71 L 724.64,877.41 L 724.05,880.58 L 723.68,882.16 L 722.47,885.42 L 719.84,890.89 L 719.53,891.48 L 718.63,892.85 L 718.14,893.55 L 716.97,895.08 L 715.75,896.62 L 712.93,899.71 L 712.23,900.44 L 710.87,901.77 L 710.21,902.41 L 709.00,903.46 L 708.42,903.93 L 707.46,904.59 L 706.43,905.00 L 706.10,905.00 L 705.25,905.41 L 704.09,906.39 L 703.85,906.67 L 703.27,907.17 L 702.94,907.40 L 702.11,907.81 L 701.65,908.00 L 700.48,908.33 L 699.84,908.48 L 698.22,908.75 L 697.35,908.87 L 695.19,909.09 L 694.04,909.20 L 691.25,909.38 L 689.76,909.47 L 686.24,909.64 L 680.01,909.88 L 662.53,910.50 L 661.71,914.50 L 661.60,915.05 L 661.35,916.53 L 661.23,917.31 L 660.98,919.09 L 660.36,924.50 L 659.82,930.50 L 663.31,932.35 L 664.15,932.80 L 665.81,933.90 L 666.63,934.48 L 668.23,935.82 L 669.81,937.23 L 672.72,940.67 L 674.12,942.49 L 676.56,946.61 L 679.53,953.35 L 679.87,954.34 L 680.37,956.69 L 680.60,957.92 L 680.87,960.64 L 681.09,963.41 L 680.87,969.35 L 680.77,970.81 L 680.42,973.62 L 680.22,974.99 L 679.68,977.51 L 679.39,978.71 L 678.68,980.76 L 677.43,983.13 L 677.15,983.51 L 676.29,984.94 L 674.98,987.36 L 674.76,987.80 L 673.98,988.91 L 673.55,989.49 L 672.43,990.80 L 671.24,992.13 L 668.25,995.01 L 666.71,996.42 L 663.61,998.92 L 662.86,999.49 L 661.49,1000.42 L 659.69,1001.45 L 659.25,1001.65 L 657.91,1002.11 L 657.18,1002.34 L 655.42,1002.81 L 649.63,1004.00 L 647.97,1004.26 L 645.18,1005.03 L 643.88,1005.44 L 641.87,1006.50 L 640.97,1007.06 L 639.79,1008.36 L 639.03,1010.57 L 639.03,1010.76 L 638.81,1011.31 L 638.66,1011.62 L 638.19,1012.40 L 637.93,1012.81 L 637.23,1013.78 L 636.86,1014.28 L 635.98,1015.41 L 635.05,1016.57 L 632.74,1019.24 L 631.53,1020.60 L 628.85,1023.49 L 627.48,1024.94 L 624.65,1027.81 L 623.23,1029.21 L 620.50,1031.80 L 619.16,1033.03 L 616.76,1035.09 L 616.19,1035.56 L 615.15,1036.35 L 613.78,1037.30 L 611.42,1038.78 L 606.98,1041.30 L 604.77,1042.50 L 600.44,1044.55 L 598.26,1045.53 L 593.75,1047.24 L 586.50,1049.56 L 586.18,1049.65 L 585.19,1049.83 L 584.65,1049.92 L 583.26,1050.10 L 582.53,1050.18 L 580.79,1050.35 L 579.88,1050.43 L 577.84,1050.58 L 575.73,1050.73 L 570.82,1051.00 L 568.28,1051.12 L 562.79,1051.32 L 560.01,1051.41 L 554.35,1051.54 L 551.54,1051.59 L 546.10,1051.62 L 543.44,1051.63 L 538.62,1051.56 L 537.47,1051.53 L 535.35,1051.47 L 534.33,1051.43 L 532.50,1051.33 L 531.54,1051.27 L 529.71,1051.09 L 528.82,1050.99 L 527.28,1050.75 L 526.56,1050.62 L 525.47,1050.35 L 524.55,1049.95 L 524.29,1049.69 L 523.21,1049.28 L 521.33,1049.00 L 520.82,1049.00 L 519.34,1048.69 L 518.54,1048.49 L 516.56,1047.83 L 515.52,1047.46 L 513.17,1046.50 L 511.97,1046.00 L 509.40,1044.81 L 506.79,1043.58 L 501.45,1040.70 L 500.14,1039.97 L 497.67,1038.48 L 494.30,1036.26 L 493.33,1035.57 L 491.23,1033.91 L 490.16,1033.03 L 487.93,1031.06 L 485.69,1029.02 L 481.17,1024.40 L 478.97,1022.05 L 475.07,1017.38 L 474.16,1016.24 L 472.58,1014.08 L 470.65,1011.11 L 469.98,1009.95 L 468.89,1008.28 L 468.37,1007.53 L 467.45,1006.53 L 466.99,1006.10 L 466.06,1005.61 L 464.44,1005.27 L 462.82,1005.14 L 459.85,1004.85 L 458.40,1004.70 L 455.75,1004.36 L 454.47,1004.19 L 452.12,1003.80 L 450.98,1003.60 L 448.90,1003.15 L 446.89,1002.69 L 443.58,1001.57 L 439.50,999.53 L 437.81,998.46 L 434.76,995.97 L 433.28,994.68 L 430.67,991.81 L 429.43,990.33 L 427.29,987.12 L 426.28,985.47 L 424.63,981.98 L 423.87,980.20 L 422.73,976.48 L 422.23,974.59 L 421.63,970.68 L 421.40,968.71 L 421.36,964.68 L 421.96,958.55 L 422.22,957.02 L 422.97,954.08 L 423.39,952.62 L 424.46,949.83 L 425.03,948.46 L 426.40,945.84 L 427.13,944.55 L 428.79,942.12 L 429.65,940.93 L 431.59,938.71 L 432.59,937.63 L 434.79,935.63 L 435.93,934.65 L 438.38,932.89 L 442.33,930.54 L 443.16,930.11 L 444.61,929.23 L 445.30,928.79 L 446.41,927.96 L 446.91,927.55 L 447.58,926.84 L 448.00,925.97 L 448.00,925.56 L 447.90,924.43 L 447.84,923.83 L 447.64,922.44 L 447.41,920.99 L 446.76,917.81 L 446.42,916.26 L 445.70,913.59 L 445.53,913.00 L 445.21,912.09 L 444.79,911.25 L 444.69,911.14 L 444.29,910.93 L 444.05,910.84 L 443.34,910.67 L 442.95,910.59 L 441.90,910.45 L 441.33,910.39 L 439.92,910.28 L 439.16,910.23 L 437.35,910.15 L 436.39,910.12 L 434.16,910.07 L 432.98,910.04 L 430.29,910.02 L 425.70,910.00 L 423.60,910.00 L 419.90,909.97 L 418.13,909.94 L 415.03,909.86 L 413.55,909.81 L 410.98,909.66 L 409.75,909.58 L 407.62,909.36 L 406.61,909.24 L 404.86,908.94 L 404.02,908.78 L 402.57,908.40 L 399.00,906.88 L 398.59,906.63 L 397.35,906.00 L 395.50,905.12 L 395.06,904.92 L 393.98,904.19 L 393.41,903.77 L 392.15,902.65 L 390.86,901.45 L 388.04,898.29 L 386.65,896.64 L 384.08,893.12 L 383.48,892.25 L 382.44,890.57 L 381.18,888.22 L 380.58,886.94 L 379.75,884.83 L 379.39,883.79 L 378.94,881.63 L 378.85,881.05 L 378.72,879.77 L 378.66,879.09 L 378.58,877.54 L 378.55,876.73 L 378.52,874.83 L 378.50,871.50 L 378.50,870.22 L 378.51,868.05 L 378.53,867.03 L 378.58,865.29 L 378.61,864.47 L 378.72,863.05 L 378.78,862.37 L 378.97,861.16 L 379.18,859.99 L 379.91,857.81 L 380.12,857.24 L 380.65,856.01 L 381.62,853.91 L 382.59,851.86 L 384.95,848.16 L 386.20,846.37 L 389.10,843.22 L 390.61,841.71 L 394.03,839.11 L 399.73,835.87 L 401.17,835.21 L 403.45,834.30 L 404.56,833.91 L 406.85,833.44 L 407.46,833.34 L 408.84,833.21 L 409.57,833.15 L 411.25,833.07 L 412.15,833.04 L 414.26,833.01 L 418.01,833.00 L 419.21,833.00 L 421.30,832.99 L 422.29,832.97 L 423.98,832.94 L 424.78,832.91 L 426.12,832.85 L 426.74,832.81 L 427.76,832.71 L 428.71,832.60 L 429.82,832.26 L 430.62,831.54 L 430.69,831.37 L 430.69,830.52 L 430.67,830.04 L 430.53,828.71 L 430.36,827.30 L 429.72,823.78 L 429.38,822.03 L 428.63,818.93 L 428.44,818.25 L 428.10,817.21 L 427.66,816.33 L 427.62,816.29 L 427.18,816.22 L 426.91,816.18 L 426.02,816.11 L 425.52,816.07 L 424.24,816.00 L 423.55,815.96 L 421.92,815.89 L 421.07,815.86 L 419.15,815.79 L 418.15,815.76 L 415.99,815.70 L 408.83,815.55 L 406.62,815.52 L 402.96,815.46 L 401.23,815.42 L 398.41,815.34 L 397.08,815.30 L 394.92,815.18 L 393.91,815.12 L 392.26,814.94 L 391.48,814.84 L 390.16,814.59 L 389.53,814.45 L 388.39,814.09 L 384.80,812.55 L 382.98,811.68 L 379.48,809.27 L 377.76,807.96 L 374.55,804.80 L 372.99,803.14 L 370.22,799.38 L 366.70,793.22 L 366.34,792.45 L 365.73,791.11 L 365.45,790.46 L 364.98,789.30 L 364.55,788.16 L 364.03,785.99 L 363.82,784.86 L 363.64,782.12 L 363.61,781.36 L 363.58,779.60 L 363.57,776.50 L 363.58,775.38 L 363.61,773.45 L 363.62,772.54 L 363.69,770.96 L 363.76,769.44 L 364.10,767.07 L 364.31,765.94 L 365.02,763.78 L 366.63,760.00 L 367.43,758.28 L 369.66,754.75 L 370.85,753.00 L 373.60,749.70 L 375.02,748.12 L 377.97,745.42 L 378.71,744.80 L 380.16,743.74 L 382.26,742.46 L 383.69,741.72 L 386.85,740.52 L 388.48,739.97 L 392.03,739.13 L 393.86,738.76 L 397.81,738.30 L 404.19,738.01 L 405.39,738.01 L 407.61,737.93 L 408.68,737.88 L 410.50,737.72 L 411.35,737.63 L 412.56,737.41 L 413.48,737.04 L 413.59,736.86 L 413.66,736.01 L 413.67,735.52 L 413.58,734.17 L 413.46,732.74 L 412.86,729.19 L 412.70,728.31 L 412.32,726.60 L 412.13,725.77 L 411.73,724.31 L 411.54,723.63 L 411.15,722.61 L 410.62,721.77 L 410.46,721.66 L 409.64,721.48 L 409.17,721.39 L 407.83,721.24 L 407.11,721.17 L 405.42,721.08 L 402.69,721.02 L 401.08,721.01 L 398.10,720.88 L 396.66,720.79 L 393.99,720.47 L 392.69,720.29 L 390.28,719.77 L 389.10,719.49 L 386.89,718.75 L 385.80,718.35 L 383.74,717.37 L 382.72,716.85 L 380.77,715.61 L 379.79,714.95 L 377.89,713.44 L 375.02,710.83 L 373.54,709.37 L 370.98,706.12 L 369.76,704.45 L 367.75,700.84 L 366.82,699.00 L 365.38,695.13 L 364.73,693.16 L 363.87,689.11 L 363.51,687.07 L 363.25,682.92 L 363.20,680.85 L 363.55,676.71 L 363.81,674.64 L 364.79,670.59 L 366.99,664.72 L 367.59,663.45 L 369.04,661.01 L 369.79,659.81 L 371.52,657.54 L 372.41,656.43 L 374.38,654.36 L 375.39,653.36 L 377.55,651.53 L 378.66,650.64 L 380.99,649.08 L 382.17,648.34 L 384.61,647.08 L 385.84,646.49 L 388.37,645.57 L 392.19,644.59 L 392.79,644.49 L 393.78,644.22 L 394.24,644.08 L 394.98,643.70 L 395.33,643.49 L 395.84,642.94 L 396.07,642.63 L 396.36,641.86 L 396.49,641.44 L 396.58,640.40 L 396.60,639.83 L 396.51,638.46 L 396.45,637.73 L 396.18,635.97 L 395.62,632.86 L 395.22,630.84 L 394.41,626.49 L 394.22,625.46 L 393.89,623.63 L 393.53,621.50 L 393.40,620.66 L 393.15,619.25 L 393.02,618.58 L 392.74,617.45 L 392.45,616.37 L 391.52,614.69 L 391.24,614.28 L 390.51,613.48 L 390.12,613.07 L 389.13,612.19 L 388.60,611.74 L 387.28,610.71 L 384.87,608.90 L 382.72,607.31 L 378.61,603.66 L 376.58,601.76 L 372.74,597.55 L 370.86,595.39 L 367.35,590.71 L 365.63,588.32 L 362.49,583.25 L 360.97,580.67 L 358.25,575.30 L 356.95,572.58 L 354.70,566.97 L 353.64,564.15 L 351.91,558.40 L 349.95,549.70 L 349.87,549.28 L 349.72,548.02 L 349.64,547.34 L 349.48,545.62 L 349.40,544.71 L 349.24,542.60 L 349.17,541.50 L 349.01,539.08 L 348.86,536.59 L 348.60,530.99 L 348.29,522.25 L 347.72,501.00 L 334.74,501.00 L 332.48,500.99 L 331.41,500.98 L 329.63,500.93 L 328.79,500.91 L 327.40,500.82 L 326.75,500.77 L 325.67,500.62 L 324.64,500.45 L 323.08,499.86 L 320.74,498.47 L 319.66,497.73 L 317.95,496.21 L 317.16,495.41 L 315.87,493.45 L 315.26,492.38 L 314.16,489.59 L 313.88,488.82 L 313.32,487.05 L 312.45,484.00 L 312.32,483.55 L 311.96,482.37 L 311.76,481.73 L 311.25,480.21 L 310.98,479.42 L 310.36,477.63 L 310.03,476.71 L 309.31,474.71 L 308.57,472.67 L 306.90,468.23 L 304.27,461.50 L 300.90,453.07 L 294.72,436.36 L 293.23,432.21 L 290.39,423.99 L 289.00,419.90 L 286.39,411.83 L 285.11,407.82 L 282.72,399.94 L 281.56,396.03 L 279.42,388.38 L 278.38,384.59 L 276.50,377.22 L 273.97,366.50 L 273.43,364.07 L 272.52,359.92 L 272.09,357.95 L 271.36,354.57 L 271.01,352.96 L 270.42,350.13 L 270.14,348.77 L 269.65,346.28 L 269.18,343.84 L 268.37,339.10 L 268.17,337.85 L 267.74,335.13 L 267.02,330.50 L 266.54,327.33 L 265.70,321.43 L 265.30,318.54 L 264.61,313.10 L 263.96,307.74 L 263.07,297.68 L 262.69,292.65 L 262.26,282.29 L 262.17,279.62 L 262.07,274.01 L 262.02,265.00 L 262.02,261.79 L 262.09,255.84 L 262.14,252.93 L 262.32,247.49 L 262.42,244.82 L 262.72,239.76 L 262.89,237.26 L 263.33,232.44 L 263.80,227.66 L 265.21,218.29 L 265.60,215.93 L 266.52,211.08 L 268.10,203.50 L 268.65,201.03 L 269.95,195.99 L 270.64,193.46 L 272.20,188.34 L 273.81,183.22 L 277.68,173.08 L 278.68,170.58 L 280.82,165.70 L 281.90,163.29 L 284.17,158.65 L 285.31,156.37 L 287.67,152.04 L 291.28,146.00 L 293.65,142.29 L 298.90,135.21 L 301.61,131.72 L 307.48,125.14 L 310.48,121.92 L 316.88,115.90 L 320.14,112.97 L 326.97,107.59 L 330.43,104.98 L 337.61,100.30 L 341.23,98.06 L 348.67,94.15 L 352.41,92.30 L 360.01,89.23 L 371.50,85.64 L 373.15,85.23 L 377.21,84.19 L 378.20,83.94 L 380.09,83.45 L 382.50,82.82 L 382.99,82.69 L 384.29,82.46 L 384.99,82.35 L 386.68,82.16 L 387.57,82.07 L 389.60,81.91 L 390.65,81.84 L 392.95,81.72 L 395.31,81.61 L 400.63,81.49 L 403.36,81.45 M 423.83,626.00 L 424.35,632.25 L 424.43,633.11 L 424.64,635.15 L 424.75,636.20 L 425.02,638.43 L 425.16,639.54 L 425.45,641.68 L 425.88,644.50 L 426.16,646.14 L 426.61,648.99 L 426.83,650.34 L 427.16,652.67 L 427.31,653.77 L 427.53,655.66 L 427.63,656.55 L 427.73,658.07 L 427.77,658.79 L 427.77,660.02 L 427.76,660.60 L 427.65,661.62 L 426.96,664.24 L 426.57,665.23 L 425.73,666.93 L 425.30,667.74 L 424.33,669.10 L 423.82,669.74 L 422.64,670.80 L 422.02,671.30 L 420.56,672.09 L 419.79,672.45 L 418.00,673.00 L 417.05,673.24 L 414.83,673.59 L 413.67,673.74 L 410.97,673.91 L 406.30,674.00 L 405.09,674.00 L 403.06,674.01 L 402.10,674.02 L 400.52,674.06 L 399.78,674.09 L 398.58,674.17 L 398.01,674.22 L 397.10,674.37 L 396.24,674.53 L 395.06,675.10 L 393.45,676.45 L 392.55,677.36 L 391.47,679.38 L 391.05,680.41 L 390.92,682.53 L 390.97,683.59 L 391.79,685.64 L 394.08,688.41 L 397.15,691.00 L 507.79,691.00 L 514.78,691.00 L 518.22,691.00 L 524.75,691.00 L 527.96,691.00 L 534.05,691.00 L 537.03,691.00 L 542.69,691.00 L 545.46,691.00 L 550.70,691.00 L 553.27,691.00 L 558.11,691.01 L 560.48,691.02 L 564.94,691.03 L 567.12,691.03 L 571.22,691.05 L 573.22,691.06 L 576.97,691.08 L 578.80,691.09 L 582.21,691.12 L 583.88,691.14 L 586.98,691.17 L 588.49,691.19 L 591.29,691.24 L 592.65,691.26 L 595.17,691.32 L 596.39,691.35 L 598.65,691.41 L 600.84,691.48 L 604.49,691.65 L 606.20,691.74 L 609.01,691.97 L 610.32,692.09 L 612.41,692.37 L 613.37,692.52 L 614.88,692.87 L 615.58,693.06 L 616.63,693.49 L 617.12,693.71 L 617.86,694.22 L 618.20,694.48 L 618.76,695.08 L 620.37,697.24 L 621.01,698.08 L 621.94,699.94 L 622.36,700.89 L 622.85,702.91 L 623.04,703.93 L 623.11,706.03 L 623.09,707.08 L 622.75,709.16 L 622.54,710.19 L 621.81,712.18 L 621.40,713.15 L 620.30,714.95 L 619.71,715.82 L 618.26,717.34 L 615.71,719.24 L 615.60,719.30 L 615.17,719.41 L 614.91,719.47 L 614.16,719.58 L 613.74,719.63 L 612.64,719.73 L 612.04,719.78 L 610.56,719.87 L 609.77,719.92 L 607.89,720.00 L 606.90,720.04 L 604.58,720.12 L 603.37,720.16 L 600.59,720.24 L 599.14,720.27 L 595.88,720.34 L 594.18,720.37 L 590.40,720.44 L 588.44,720.47 L 584.11,720.53 L 581.87,720.56 L 576.97,720.62 L 574.44,720.64 L 568.93,720.70 L 566.10,720.73 L 559.96,720.78 L 556.81,720.80 L 550.01,720.85 L 546.52,720.88 L 539.04,720.93 L 527.00,721.00 L 440.50,721.50 L 440.68,725.00 L 440.73,725.91 L 440.86,727.57 L 440.95,728.44 L 441.28,730.67 L 441.38,731.31 L 441.64,732.85 L 441.78,733.67 L 442.14,735.67 L 442.33,736.73 L 442.80,739.29 L 443.65,743.89 L 443.89,745.14 L 444.24,747.37 L 444.40,748.45 L 444.59,750.37 L 444.67,751.30 L 444.71,752.98 L 444.71,753.79 L 444.58,755.26 L 444.41,756.70 L 443.55,759.17 L 441.42,762.70 L 440.87,763.41 L 439.83,764.60 L 439.30,765.16 L 438.17,766.08 L 437.57,766.51 L 436.57,767.00 L 436.74,766.89 L 436.83,766.80 L 436.94,766.62 L 436.89,766.57 L 436.32,766.45 L 435.55,766.39 L 434.99,766.38 L 433.76,766.36 L 433.00,766.35 L 431.39,766.36 L 430.47,766.37 L 426.50,766.44 L 424.23,766.51 L 419.55,766.66 L 417.14,766.76 L 412.34,766.97 L 410.09,767.08 L 405.75,767.32 L 403.96,767.45 L 402.25,767.57 L 401.52,767.63 L 400.16,767.75 L 399.64,767.81 L 398.71,767.93 L 398.43,767.99 L 398.00,768.10 L 398.00,768.15 L 398.13,768.29 L 398.38,768.36 L 398.98,768.49 L 399.44,768.54 L 400.46,768.64 L 401.10,768.69 L 402.46,768.77 L 403.26,768.81 L 406.71,768.92 L 408.72,768.95 L 412.89,768.99 L 415.07,768.98 L 419.46,768.94 L 421.58,768.89 L 425.70,768.78 L 427.49,768.69 L 429.22,768.60 L 429.99,768.55 L 430.03,768.55 L 429.20,768.64 L 426.20,768.81 L 424.59,768.89 L 420.74,768.96 L 413.85,769.00 L 411.68,769.00 L 408.08,769.01 L 406.39,769.02 L 403.64,769.05 L 402.36,769.07 L 400.32,769.14 L 399.37,769.19 L 397.91,769.31 L 397.24,769.38 L 396.21,769.58 L 395.74,769.68 L 395.01,769.96 L 393.31,771.17 L 392.60,771.85 L 391.67,773.56 L 391.29,774.46 L 391.04,776.44 L 391.00,777.44 L 391.45,779.42 L 392.91,782.14 L 393.38,782.72 L 394.42,783.50 L 394.75,783.67 L 395.69,783.94 L 396.22,784.07 L 397.71,784.26 L 398.54,784.35 L 400.76,784.49 L 401.99,784.56 L 405.16,784.67 L 406.02,784.70 L 407.95,784.75 L 408.95,784.78 L 411.19,784.83 L 412.35,784.86 L 414.91,784.91 L 419.16,785.00 L 420.63,785.03 L 423.30,785.09 L 424.60,785.11 L 426.96,785.17 L 428.10,785.19 L 430.16,785.25 L 431.15,785.27 L 432.94,785.33 L 434.66,785.39 L 437.38,785.51 L 438.64,785.58 L 440.59,785.75 L 441.48,785.84 L 442.84,786.07 L 443.46,786.20 L 444.43,786.51 L 446.77,787.83 L 447.78,788.55 L 449.48,790.27 L 450.28,791.18 L 451.60,793.31 L 452.20,794.43 L 453.15,797.03 L 454.18,801.50 L 454.44,803.14 L 454.91,806.04 L 455.14,807.43 L 455.54,809.89 L 455.74,811.07 L 456.09,813.19 L 456.26,814.21 L 456.59,816.07 L 456.90,817.88 L 457.50,821.09 L 458.47,826.00 L 458.77,827.51 L 459.31,830.31 L 459.57,831.68 L 460.03,834.22 L 460.46,836.69 L 461.05,840.93 L 461.30,842.93 L 461.51,846.33 L 461.56,847.94 L 461.38,850.64 L 461.24,851.92 L 460.64,854.06 L 460.29,855.07 L 459.27,856.78 L 458.70,857.60 L 457.24,859.02 L 454.53,860.98 L 453.78,861.45 L 452.20,862.08 L 451.75,862.22 L 450.65,862.43 L 450.06,862.53 L 448.57,862.69 L 447.77,862.75 L 445.75,862.85 L 444.66,862.89 L 441.97,862.95 L 440.53,862.97 L 437.04,862.99 L 430.72,863.00 L 410.18,863.00 L 407.59,866.08 L 406.78,867.03 L 405.77,868.78 L 405.36,869.63 L 405.14,871.28 L 405.12,872.10 L 405.68,873.78 L 407.41,876.50 L 409.81,879.50 L 504.83,880.00 L 507.78,880.02 L 513.41,880.05 L 516.18,880.06 L 521.46,880.09 L 524.05,880.10 L 528.99,880.13 L 531.42,880.14 L 536.03,880.17 L 538.29,880.18 L 542.58,880.21 L 544.69,880.22 L 548.68,880.25 L 550.63,880.26 L 554.33,880.28 L 556.14,880.30 L 559.55,880.32 L 562.90,880.35 L 568.79,880.40 L 571.62,880.43 L 576.54,880.49 L 578.89,880.52 L 582.93,880.59 L 584.85,880.62 L 588.11,880.70 L 589.64,880.74 L 592.21,880.83 L 593.41,880.88 L 595.38,880.99 L 596.30,881.04 L 597.76,881.17 L 598.43,881.23 L 599.48,881.38 L 599.96,881.45 L 600.70,881.62 L 601.03,881.71 L 601.54,881.90 L 602.68,882.59 L 603.72,883.36 L 605.41,885.21 L 606.19,886.17 L 607.33,888.31 L 607.84,889.40 L 608.45,891.73 L 608.69,892.90 L 608.77,895.29 L 608.74,896.49 L 608.29,898.84 L 608.00,900.00 L 607.02,902.21 L 606.46,903.28 L 604.95,905.22 L 602.10,907.71 L 598.70,910.00 L 532.66,910.00 L 524.49,910.02 L 520.47,910.03 L 512.88,910.06 L 509.18,910.08 L 502.35,910.13 L 499.05,910.16 L 493.14,910.22 L 491.73,910.24 L 489.12,910.27 L 487.84,910.29 L 485.52,910.33 L 484.39,910.35 L 482.38,910.39 L 481.41,910.41 L 479.73,910.46 L 478.93,910.48 L 477.60,910.53 L 476.99,910.55 L 476.03,910.60 L 475.61,910.62 L 475.05,910.67 L 474.68,910.75 L 474.63,910.84 L 474.58,911.20 L 474.56,911.42 L 474.57,912.05 L 474.58,912.41 L 474.67,913.36 L 474.72,913.87 L 474.88,915.16 L 474.97,915.86 L 475.22,917.53 L 475.35,918.42 L 475.68,920.50 L 475.86,921.60 L 476.28,924.14 L 477.03,928.50 L 477.32,930.21 L 477.80,933.20 L 478.02,934.63 L 478.35,937.10 L 478.50,938.29 L 478.67,940.32 L 478.74,941.30 L 478.77,942.97 L 478.76,943.77 L 478.63,945.15 L 478.54,945.81 L 478.26,946.97 L 476.83,950.00 L 475.99,951.25 L 473.77,953.35 L 472.57,954.34 L 469.73,955.87 L 468.25,956.56 L 464.94,957.45 L 459.60,958.00 L 458.41,958.00 L 456.56,958.10 L 455.70,958.16 L 454.37,958.44 L 453.74,958.60 L 452.72,959.10 L 451.31,960.17 L 450.59,960.86 L 449.66,962.49 L 449.29,963.34 L 449.07,965.21 L 449.05,966.16 L 449.54,968.14 L 451.07,971.10 L 451.58,971.82 L 452.43,972.77 L 452.89,973.18 L 454.22,973.63 L 454.62,973.73 L 455.65,973.85 L 456.21,973.90 L 457.62,973.96 L 458.39,973.98 L 460.30,974.00 L 463.82,974.01 L 466.00,974.01 L 469.73,974.11 L 471.50,974.18 L 474.52,974.49 L 475.95,974.67 L 478.39,975.24 L 479.55,975.56 L 481.53,976.46 L 482.48,976.96 L 484.13,978.26 L 484.94,978.97 L 486.40,980.75 L 487.12,981.70 L 488.52,984.01 L 490.69,988.16 L 491.50,989.82 L 493.31,993.00 L 494.24,994.56 L 496.29,997.52 L 497.34,998.97 L 499.62,1001.71 L 500.79,1003.05 L 503.28,1005.55 L 504.55,1006.77 L 507.24,1009.02 L 508.61,1010.12 L 511.49,1012.11 L 512.96,1013.07 L 516.01,1014.79 L 520.77,1017.04 L 523.29,1018.10 L 527.85,1019.58 L 529.00,1019.90 L 531.38,1020.42 L 532.60,1020.66 L 535.22,1021.01 L 536.58,1021.18 L 539.62,1021.39 L 541.20,1021.49 L 544.81,1021.59 L 546.69,1021.62 L 551.02,1021.62 L 558.50,1021.51 L 560.47,1021.48 L 563.88,1021.39 L 565.51,1021.35 L 568.33,1021.25 L 569.67,1021.20 L 571.97,1021.07 L 573.07,1021.00 L 574.96,1020.84 L 575.86,1020.76 L 577.43,1020.55 L 578.18,1020.44 L 579.52,1020.18 L 580.82,1019.91 L 583.11,1019.17 L 585.80,1018.22 L 590.95,1015.92 L 592.19,1015.33 L 594.51,1014.10 L 595.64,1013.49 L 597.68,1012.26 L 598.65,1011.65 L 600.31,1010.47 L 601.09,1009.90 L 602.30,1008.82 L 602.83,1008.30 L 603.50,1007.38 L 603.80,1006.22 L 603.77,1006.05 L 603.57,1005.75 L 603.44,1005.61 L 602.98,1005.38 L 602.71,1005.27 L 601.88,1005.08 L 601.42,1005.00 L 600.14,1004.86 L 599.43,1004.80 L 597.61,1004.69 L 596.61,1004.65 L 594.14,1004.57 L 592.81,1004.54 L 589.59,1004.48 L 583.82,1004.40 L 581.12,1004.37 L 576.01,1004.26 L 573.55,1004.20 L 569.30,1004.05 L 568.31,1004.01 L 566.58,1003.92 L 565.76,1003.88 L 564.40,1003.79 L 563.77,1003.74 L 562.85,1003.65 L 562.02,1003.51 L 561.73,1003.41 L 560.96,1002.92 L 560.56,1002.64 L 559.65,1001.83 L 556.94,998.77 L 556.32,997.90 L 555.37,996.03 L 554.95,995.08 L 554.40,993.08 L 554.18,992.08 L 554.01,990.02 L 553.98,989.00 L 554.20,986.95 L 554.35,985.94 L 554.94,983.97 L 555.27,983.00 L 556.21,981.18 L 556.73,980.29 L 558.01,978.68 L 560.32,976.57 L 560.66,976.32 L 561.37,975.90 L 561.75,975.71 L 562.77,975.39 L 563.35,975.25 L 565.02,975.02 L 565.49,974.96 L 566.62,974.87 L 567.21,974.82 L 568.60,974.74 L 569.34,974.71 L 571.04,974.64 L 571.94,974.61 L 574.00,974.55 L 575.08,974.52 L 577.53,974.48 L 578.81,974.46 L 581.70,974.42 L 583.20,974.40 L 586.56,974.36 L 588.31,974.34 L 592.18,974.31 L 594.19,974.29 L 598.62,974.26 L 605.94,974.21 L 648.73,973.92 L 651.03,971.47 L 651.59,970.87 L 652.37,969.52 L 652.71,968.83 L 653.08,967.36 L 653.22,966.61 L 653.20,965.12 L 653.15,964.37 L 652.78,962.95 L 652.55,962.26 L 651.86,961.01 L 651.48,960.41 L 650.50,959.43 L 649.98,958.99 L 648.74,958.38 L 646.63,957.98 L 645.71,957.98 L 643.52,957.64 L 642.39,957.42 L 640.09,956.74 L 638.96,956.37 L 636.92,955.48 L 634.55,954.04 L 633.95,953.54 L 632.93,952.38 L 632.45,951.77 L 631.68,950.36 L 631.32,949.62 L 630.79,947.91 L 630.55,947.02 L 630.26,944.97 L 630.14,943.90 L 630.07,941.46 L 630.07,940.20 L 630.23,937.33 L 630.34,935.85 L 630.72,932.51 L 631.54,926.93 L 631.76,925.63 L 632.30,922.28 L 632.59,920.52 L 633.23,916.60 L 633.56,914.61 L 634.21,910.60 L 635.13,905.00 L 635.46,903.00 L 636.03,899.62 L 636.30,898.03 L 636.80,895.37 L 637.04,894.12 L 637.51,892.07 L 637.74,891.11 L 638.21,889.53 L 638.44,888.79 L 638.96,887.58 L 639.22,887.00 L 639.81,886.03 L 642.09,883.41 L 645.13,880.50 L 668.65,880.00 L 692.18,879.50 L 694.59,876.69 L 695.38,875.77 L 696.36,873.87 L 696.75,872.92 L 696.92,871.02 L 696.90,870.08 L 696.25,868.25 L 694.36,865.64 L 691.73,863.00 L 655.30,863.00 L 651.20,860.03 L 650.41,859.46 L 649.10,858.34 L 648.48,857.77 L 647.49,856.57 L 647.03,855.96 L 646.33,854.60 L 646.02,853.89 L 645.62,852.28 L 645.45,851.43 L 645.30,849.46 L 645.26,848.42 L 645.37,846.01 L 645.45,844.74 L 645.77,841.78 L 646.50,836.64 L 646.76,834.97 L 647.24,831.59 L 647.47,829.92 L 647.85,826.80 L 648.03,825.31 L 648.28,822.82 L 648.33,822.26 L 648.40,821.31 L 648.45,820.20 L 648.50,815.89 L 576.00,815.70 L 572.43,815.69 L 565.76,815.66 L 562.50,815.65 L 556.45,815.63 L 553.49,815.62 L 548.03,815.59 L 545.36,815.57 L 540.45,815.54 L 538.07,815.52 L 533.69,815.49 L 531.56,815.47 L 527.69,815.43 L 525.82,815.40 L 522.43,815.36 L 520.79,815.33 L 517.85,815.28 L 516.44,815.25 L 513.92,815.19 L 512.72,815.15 L 510.60,815.09 L 509.59,815.05 L 507.85,814.97 L 507.03,814.93 L 505.63,814.85 L 504.98,814.80 L 503.90,814.71 L 503.40,814.66 L 502.62,814.56 L 501.24,814.21 L 500.27,813.66 L 498.48,811.85 L 497.62,810.86 L 496.18,808.43 L 495.51,807.17 L 494.59,804.46 L 494.00,800.47 L 494.00,799.06 L 494.37,796.55 L 494.62,795.34 L 495.51,793.19 L 496.02,792.15 L 497.46,790.30 L 500.23,787.83 L 503.50,785.50 L 604.96,785.22 L 608.12,785.21 L 614.14,785.20 L 617.11,785.19 L 622.75,785.17 L 625.53,785.17 L 630.80,785.15 L 633.40,785.14 L 638.33,785.13 L 640.75,785.12 L 645.34,785.10 L 647.59,785.10 L 651.85,785.08 L 653.94,785.07 L 657.89,785.05 L 659.82,785.05 L 663.46,785.03 L 665.25,785.02 L 668.60,785.00 L 670.24,784.99 L 673.32,784.97 L 676.33,784.95 L 681.57,784.90 L 684.07,784.88 L 688.37,784.82 L 690.40,784.79 L 693.85,784.72 L 695.48,784.68 L 698.18,784.60 L 699.44,784.55 L 701.50,784.45 L 702.45,784.40 L 703.96,784.28 L 704.65,784.21 L 705.71,784.07 L 706.19,784.00 L 706.91,783.83 L 707.23,783.75 L 707.69,783.56 L 708.63,782.88 L 709.42,782.14 L 710.51,780.57 L 710.98,779.77 L 711.43,778.12 L 711.57,777.29 L 711.37,775.58 L 710.33,772.99 L 709.86,772.18 L 708.66,770.71 L 708.36,770.38 L 707.79,769.85 L 707.05,769.34 L 706.95,769.29 L 706.36,769.18 L 706.00,769.13 L 704.96,769.01 L 704.39,768.96 L 702.95,768.84 L 702.19,768.78 L 700.41,768.66 L 698.56,768.55 L 694.08,768.33 L 686.63,768.06 L 667.77,767.50 L 664.51,763.73 L 663.62,762.69 L 662.05,760.07 L 661.71,759.42 L 661.18,758.18 L 660.70,756.57 L 660.64,756.15 L 660.60,754.95 L 660.59,754.29 L 660.69,752.53 L 660.76,751.58 L 661.00,749.19 L 661.14,747.91 L 661.54,744.80 L 661.76,743.15 L 662.32,739.25 L 662.63,737.20 L 663.37,732.43 L 663.77,729.93 L 664.70,724.21 L 664.94,722.72 L 665.47,719.54 L 666.32,714.48 L 666.64,712.60 L 667.19,709.43 L 667.46,707.93 L 667.94,705.45 L 668.17,704.29 L 668.63,702.38 L 668.86,701.48 L 669.33,700.02 L 669.57,699.33 L 670.10,698.18 L 670.37,697.64 L 671.00,696.69 L 673.47,694.01 L 674.10,693.42 L 675.30,692.62 L 675.63,692.44 L 676.42,692.16 L 676.85,692.02 L 677.92,691.81 L 678.51,691.71 L 679.99,691.56 L 680.79,691.48 L 682.79,691.36 L 683.86,691.30 L 686.50,691.19 L 691.31,691.01 L 693.40,690.94 L 697.31,690.75 L 699.19,690.64 L 702.41,690.41 L 703.15,690.35 L 704.45,690.22 L 705.07,690.16 L 706.07,690.04 L 706.53,689.98 L 707.19,689.86 L 707.76,689.68 L 708.31,689.32 L 709.37,688.00 L 709.87,687.27 L 710.69,685.52 L 711.06,684.63 L 711.47,682.87 L 711.44,680.70 L 711.25,680.10 L 710.36,678.49 L 708.71,676.25 L 708.24,675.74 L 707.31,675.03 L 706.79,674.72 L 705.33,674.35 L 704.91,674.28 L 703.86,674.17 L 703.29,674.12 L 701.91,674.06 L 701.17,674.04 L 699.39,674.01 L 696.17,674.00 L 694.95,674.00 L 692.90,673.99 L 691.93,673.98 L 690.32,673.93 L 689.56,673.91 L 688.31,673.81 L 687.72,673.76 L 686.74,673.60 L 685.82,673.43 L 684.40,672.82 L 682.24,671.37 L 681.24,670.60 L 679.57,668.78 L 678.80,667.83 L 677.61,665.68 L 677.09,664.57 L 676.41,662.15 L 676.01,658.28 L 676.01,658.02 L 676.05,657.26 L 676.07,656.84 L 676.16,655.79 L 676.26,654.68 L 676.58,651.80 L 676.76,650.28 L 677.20,646.87 L 677.95,641.53 L 678.12,640.37 L 678.42,638.30 L 678.55,637.30 L 678.78,635.53 L 678.88,634.68 L 679.03,633.19 L 679.10,632.49 L 679.19,631.28 L 679.26,630.13 L 679.20,628.59 L 678.82,627.28 L 678.77,627.22 L 678.36,627.10 L 678.11,627.04 L 677.26,626.93 L 676.78,626.88 L 675.44,626.78 L 674.70,626.73 L 672.81,626.65 L 671.80,626.61 L 669.31,626.53 L 667.99,626.49 L 664.86,626.42 L 663.20,626.39 L 659.37,626.33 L 657.36,626.30 L 652.77,626.25 L 650.38,626.23 L 644.99,626.19 L 642.19,626.17 L 635.95,626.13 L 632.71,626.12 L 625.56,626.09 L 621.86,626.08 L 613.75,626.06 L 609.57,626.05 L 600.45,626.03 L 598.10,626.03 L 593.21,626.02 L 590.73,626.02 L 585.57,626.01 L 582.96,626.01 L 577.52,626.01 L 574.77,626.01 L 569.05,626.00 L 566.15,626.00 L 560.14,626.00 L 550.79,626.00 M 376.50,501.50 L 376.64,523.21 L 376.65,524.67 L 376.67,527.35 L 376.68,528.65 L 376.71,531.03 L 376.75,533.35 L 376.86,537.22 L 376.94,539.05 L 377.16,542.16 L 377.29,543.64 L 377.67,546.24 L 377.88,547.49 L 378.44,549.83 L 378.75,550.99 L 379.55,553.31 L 379.98,554.50 L 381.05,557.08 L 383.02,561.50 L 384.10,563.87 L 386.66,568.34 L 388.00,570.52 L 391.05,574.56 L 392.63,576.53 L 396.12,580.12 L 397.91,581.86 L 401.78,584.96 L 403.76,586.45 L 407.98,589.02 L 410.12,590.24 L 414.62,592.25 L 416.91,593.18 L 421.65,594.59 L 428.98,595.98 L 429.17,596.00 L 430.17,596.05 L 430.76,596.07 L 432.55,596.11 L 433.53,596.13 L 436.06,596.17 L 437.41,596.19 L 440.63,596.23 L 442.32,596.25 L 446.20,596.28 L 448.22,596.30 L 452.71,596.33 L 455.03,596.34 L 460.09,596.37 L 462.69,596.38 L 468.27,596.41 L 471.13,596.42 L 477.20,596.44 L 480.29,596.45 L 486.80,596.47 L 490.11,596.47 L 497.02,596.49 L 500.51,596.49 L 507.78,596.50 L 511.45,596.50 L 519.02,596.51 L 522.84,596.51 L 530.68,596.51 L 555.00,596.49 L 560.69,596.48 L 571.36,596.47 L 576.58,596.46 L 586.35,596.43 L 591.13,596.42 L 600.03,596.40 L 604.37,596.38 L 612.44,596.35 L 616.37,596.34 L 623.62,596.30 L 627.15,596.28 L 633.64,596.24 L 636.78,596.22 L 642.53,596.18 L 645.31,596.15 L 650.34,596.10 L 652.77,596.07 L 657.13,596.02 L 659.23,595.99 L 662.94,595.92 L 664.72,595.89 L 667.83,595.82 L 669.31,595.78 L 671.83,595.70 L 673.02,595.66 L 675.00,595.57 L 675.92,595.53 L 677.39,595.43 L 678.06,595.38 L 679.04,595.28 L 679.47,595.23 L 680.00,595.11 L 682.41,594.46 L 687.09,592.66 L 689.40,591.68 L 693.85,589.25 L 696.04,587.96 L 700.20,584.96 L 702.24,583.39 L 706.07,579.87 L 707.94,578.04 L 711.38,574.05 L 713.05,571.99 L 716.05,567.58 L 717.49,565.32 L 720.00,560.54 L 723.15,553.00 L 723.66,551.53 L 724.38,548.84 L 724.54,548.14 L 724.80,546.59 L 724.93,545.77 L 725.12,543.88 L 725.21,542.88 L 725.36,540.49 L 725.42,539.22 L 725.53,536.17 L 725.58,534.54 L 725.67,530.67 L 725.80,523.75 L 726.16,500.99 M 688.45,111.05 L 686.40,111.11 L 682.52,111.32 L 680.64,111.44 L 677.29,111.78 L 673.14,112.44 L 672.23,112.64 L 670.09,113.10 L 668.99,113.34 L 666.69,113.83 L 665.54,114.07 L 663.35,114.53 L 660.50,115.13 L 659.67,115.30 L 657.42,115.88 L 656.22,116.20 L 653.47,117.00 L 645.00,119.77 L 643.69,120.24 L 641.15,121.13 L 639.92,121.57 L 637.70,122.34 L 636.66,122.70 L 635.03,123.26 L 633.50,123.75 L 633.23,123.84 L 632.38,124.17 L 631.91,124.36 L 630.80,124.86 L 627.10,126.67 L 625.89,127.31 L 623.78,128.32 L 623.32,128.53 L 622.61,128.82 L 621.99,129.00 L 621.91,129.00 L 621.38,129.21 L 621.06,129.35 L 620.12,129.81 L 619.59,130.07 L 618.28,130.75 L 617.58,131.12 L 615.95,131.99 L 615.10,132.45 L 613.22,133.48 L 612.26,134.01 L 610.18,135.17 L 603.50,138.98 L 601.17,140.32 L 596.55,142.78 L 594.24,143.96 L 589.66,146.09 L 587.37,147.11 L 582.86,148.91 L 580.61,149.77 L 576.17,151.23 L 573.96,151.92 L 569.61,153.04 L 567.46,153.56 L 563.22,154.34 L 561.12,154.69 L 557.01,155.12 L 551.00,155.37 L 549.36,155.36 L 545.74,155.16 L 543.91,155.02 L 540.34,154.62 L 538.61,154.40 L 535.64,153.86 L 534.97,153.72 L 533.83,153.44 L 532.50,153.00 L 531.95,152.76 L 530.35,152.26 L 528.00,151.68 L 527.25,151.53 L 525.55,151.09 L 524.66,150.84 L 522.72,150.20 L 521.72,149.85 L 519.56,149.01 L 518.45,148.56 L 516.07,147.53 L 513.65,146.46 L 508.26,143.78 L 499.50,139.03 L 496.50,137.32 L 490.49,134.12 L 487.47,132.55 L 481.41,129.61 L 478.37,128.17 L 472.25,125.49 L 463.00,121.75 L 461.37,121.13 L 458.54,120.07 L 457.18,119.56 L 454.80,118.70 L 453.65,118.30 L 451.57,117.60 L 450.57,117.27 L 448.68,116.70 L 446.82,116.15 L 443.10,115.27 L 442.13,115.06 L 440.03,114.64 L 436.50,113.98 L 435.12,113.73 L 431.79,113.04 L 430.98,112.87 L 429.45,112.53 L 427.50,112.06 L 427.22,111.99 L 426.38,111.86 L 425.92,111.79 L 424.73,111.67 L 424.10,111.60 L 422.62,111.49 L 421.85,111.44 L 420.14,111.34 L 418.38,111.24 L 414.37,111.11 L 408.07,111.02 L 406.22,111.02 L 402.96,111.05 L 401.40,111.07 L 398.60,111.16 L 397.25,111.22 L 394.79,111.39 L 393.59,111.48 L 391.34,111.75 L 389.12,112.04 L 384.79,112.98 L 383.67,113.25 L 381.30,113.90 L 377.43,115.05 L 376.58,115.31 L 374.91,115.72 L 374.52,115.81 L 373.87,115.92 L 373.16,116.00 L 372.87,116.00 L 371.68,116.37 L 371.00,116.61 L 369.15,117.39 L 368.16,117.82 L 365.83,118.92 L 364.63,119.50 L 362.01,120.83 L 359.35,122.19 L 353.92,125.19 L 352.61,125.94 L 350.19,127.38 L 347.03,129.38 L 345.79,130.22 L 343.10,132.24 L 341.73,133.30 L 338.89,135.69 L 336.02,138.15 L 330.23,143.75 L 327.39,146.59 L 322.27,152.34 L 321.07,153.74 L 318.94,156.45 L 316.24,160.23 L 315.54,161.30 L 313.95,163.93 L 313.13,165.30 L 311.44,168.27 L 310.60,169.76 L 309.02,172.72 L 306.99,176.73 L 306.42,177.94 L 305.29,180.27 L 304.75,181.41 L 303.77,183.43 L 303.30,184.39 L 302.58,185.87 L 301.90,187.24 L 301.65,187.71 L 301.26,189.01 L 301.00,190.82 L 301.00,191.33 L 300.78,192.34 L 300.27,193.40 L 299.99,193.68 L 299.37,194.81 L 299.05,195.46 L 298.38,197.32 L 298.03,198.33 L 297.29,200.87 L 296.92,202.22 L 296.14,205.42 L 295.74,207.09 L 294.92,210.91 L 294.50,212.89 L 293.65,217.28 L 293.22,219.55 L 292.34,224.50 L 291.01,232.50 L 290.78,233.92 L 290.40,236.50 L 290.22,237.76 L 289.93,240.16 L 289.66,242.55 L 289.36,247.57 L 289.30,248.90 L 289.23,251.87 L 289.20,253.41 L 289.20,256.94 L 289.20,258.79 L 289.24,263.06 L 289.35,270.50 L 289.42,274.53 L 289.65,281.96 L 289.77,285.56 L 290.11,292.01 L 290.20,293.56 L 290.39,296.44 L 290.50,297.85 L 290.72,300.44 L 290.83,301.69 L 291.08,303.96 L 291.47,307.00 L 291.94,310.16 L 292.92,316.88 L 293.15,318.47 L 293.56,321.26 L 294.03,324.50 L 294.44,327.28 L 295.19,332.10 L 295.56,334.41 L 296.27,338.47 L 296.63,340.43 L 297.35,343.98 L 298.49,349.00 L 298.93,350.81 L 299.74,354.17 L 300.13,355.82 L 300.86,358.96 L 302.90,368.25 L 303.02,368.83 L 303.38,370.33 L 303.57,371.12 L 304.02,372.87 L 305.47,378.00 L 305.94,379.51 L 306.82,382.84 L 307.02,383.64 L 307.35,385.06 L 307.69,386.76 L 307.84,387.66 L 308.33,389.22 L 308.45,389.57 L 308.72,390.10 L 309.11,390.57 L 309.36,390.72 L 309.74,391.68 L 310.00,393.57 L 310.00,394.25 L 310.25,395.82 L 310.87,397.76 L 311.22,398.47 L 311.99,400.33 L 312.37,401.31 L 313.12,403.46 L 313.48,404.53 L 314.10,406.61 L 314.73,409.26 L 314.87,410.02 L 315.34,411.37 L 316.12,412.57 L 316.36,412.72 L 316.74,413.66 L 317.00,415.50 L 317.00,416.16 L 317.29,417.36 L 318.00,418.50 L 318.27,418.67 L 318.71,419.64 L 319.00,421.50 L 319.00,422.16 L 319.26,423.34 L 319.88,424.43 L 320.00,424.50 L 320.35,425.05 L 320.54,425.38 L 320.99,426.36 L 322.42,430.23 L 322.87,431.68 L 323.91,434.69 L 324.16,435.39 L 324.62,436.61 L 325.18,438.00 L 325.69,439.15 L 326.82,441.81 L 327.40,443.18 L 328.60,446.06 L 329.19,447.51 L 330.33,450.34 L 331.86,454.25 L 331.98,454.56 L 332.33,455.42 L 332.51,455.88 L 332.95,456.95 L 334.36,460.28 L 334.81,461.32 L 335.52,463.32 L 335.67,463.78 L 335.87,464.53 L 336.00,465.31 L 336.00,465.65 L 336.46,466.84 L 337.56,468.78 L 339.11,471.00 L 556.45,471.00 L 567.08,471.00 L 572.32,471.00 L 582.41,471.00 L 587.39,471.00 L 596.96,470.99 L 601.68,470.99 L 610.74,470.99 L 615.21,470.99 L 623.77,470.98 L 627.99,470.98 L 636.08,470.97 L 640.06,470.97 L 647.67,470.96 L 651.42,470.96 L 658.57,470.95 L 662.09,470.94 L 668.80,470.93 L 672.10,470.93 L 678.38,470.91 L 681.47,470.91 L 687.33,470.89 L 690.21,470.89 L 695.66,470.87 L 698.34,470.86 L 703.40,470.84 L 705.89,470.83 L 710.57,470.81 L 712.87,470.80 L 717.19,470.78 L 719.30,470.77 L 723.27,470.75 L 725.21,470.73 L 728.84,470.71 L 730.61,470.70 L 733.91,470.67 L 735.52,470.65 L 738.51,470.62 L 739.96,470.61 L 742.65,470.57 L 743.95,470.55 L 746.35,470.52 L 747.52,470.50 L 749.64,470.46 L 751.70,470.42 L 755.04,470.34 L 756.59,470.29 L 759.01,470.19 L 760.11,470.14 L 761.70,470.03 L 762.40,469.97 L 763.27,469.85 L 763.62,469.79 L 763.88,469.65 L 763.95,469.56 L 764.21,469.09 L 764.36,468.80 L 764.76,467.98 L 764.97,467.53 L 765.49,466.38 L 765.76,465.78 L 766.38,464.36 L 767.03,462.87 L 768.56,459.22 L 769.37,457.30 L 771.13,452.99 L 772.93,448.58 L 776.70,439.05 L 777.62,436.70 L 779.35,432.19 L 781.67,426.00 L 784.82,417.40 L 790.47,400.15 L 793.18,391.53 L 797.92,374.36 L 800.18,365.80 L 803.98,348.88 L 804.87,344.68 L 806.47,336.34 L 807.25,332.19 L 808.60,323.99 L 809.25,319.90 L 810.37,311.84 L 810.89,307.83 L 811.75,299.94 L 812.15,296.01 L 812.76,288.31 L 813.03,284.49 L 813.38,277.00 L 813.53,273.28 L 813.62,266.03 L 813.63,262.43 L 813.45,255.43 L 813.33,251.96 L 812.89,245.24 L 811.92,235.50 L 811.33,230.68 L 809.79,221.49 L 808.96,216.97 L 806.95,208.35 L 805.88,204.11 L 803.39,196.05 L 802.08,192.08 L 799.10,184.55 L 797.54,180.85 L 794.06,173.83 L 792.25,170.38 L 788.26,163.86 L 786.21,160.65 L 781.70,154.60 L 774.36,146.04 L 771.83,143.36 L 766.64,138.50 L 764.02,136.15 L 758.57,131.92 L 755.80,129.88 L 750.02,126.22 L 740.88,121.31 L 739.59,120.69 L 737.35,119.64 L 736.28,119.14 L 734.38,118.29 L 732.54,117.48 L 729.23,116.24 L 728.38,115.95 L 726.59,115.39 L 725.67,115.11 L 723.63,114.55 L 722.57,114.26 L 720.12,113.65 L 715.84,112.60 L 714.75,112.34 L 711.89,111.91 L 710.36,111.71 L 706.81,111.41 L 704.97,111.28 L 700.97,111.10 L 698.93,111.03 L 694.72,110.98 L 692.62,110.97 M 480.68,184.17 L 481.78,184.30 L 484.12,184.94 L 485.30,185.32 L 487.77,186.45 L 491.60,188.72 L 494.61,190.77 L 501.18,194.44 L 504.54,196.20 L 511.69,199.27 L 515.33,200.72 L 522.90,203.11 L 534.56,205.88 L 535.51,206.05 L 537.87,206.34 L 539.11,206.47 L 541.92,206.68 L 544.81,206.86 L 551.19,206.96 L 552.77,206.97 L 555.86,206.91 L 557.38,206.87 L 560.20,206.73 L 561.57,206.65 L 563.94,206.42 L 566.81,205.97 L 568.74,205.55 L 572.12,204.79 L 573.73,204.42 L 576.54,203.75 L 577.89,203.43 L 580.27,202.80 L 581.41,202.49 L 583.48,201.88 L 585.49,201.27 L 589.10,199.91 L 594.87,197.38 L 596.15,196.78 L 598.99,195.35 L 600.42,194.62 L 603.28,193.06 L 604.69,192.29 L 607.25,190.79 L 610.37,188.81 L 611.66,187.92 L 613.70,186.65 L 614.66,186.09 L 616.30,185.37 L 617.10,185.06 L 618.72,184.75 L 621.53,184.59 L 622.59,184.58 L 624.55,184.83 L 625.50,184.99 L 627.22,185.55 L 628.05,185.87 L 629.53,186.74 L 630.24,187.22 L 631.45,188.39 L 632.03,189.01 L 632.98,190.46 L 633.42,191.22 L 634.09,192.95 L 634.39,193.84 L 634.77,195.83 L 635.00,199.09 L 635.00,200.06 L 634.83,201.84 L 634.71,202.71 L 634.26,204.34 L 634.00,205.15 L 633.24,206.69 L 632.81,207.45 L 631.70,208.94 L 631.09,209.69 L 629.58,211.20 L 628.76,211.96 L 626.81,213.52 L 625.77,214.32 L 623.34,215.99 L 619.09,218.69 L 618.65,218.96 L 617.43,219.65 L 616.78,220.01 L 615.23,220.84 L 613.62,221.69 L 609.91,223.57 L 608.05,224.50 L 604.54,226.18 L 603.71,226.56 L 602.26,227.22 L 600.50,227.97 L 597.94,228.98 L 592.90,230.76 L 590.39,231.61 L 585.42,233.05 L 582.94,233.74 L 577.99,234.86 L 575.51,235.38 L 570.51,236.18 L 568.00,236.55 L 562.90,237.04 L 560.34,237.25 L 555.09,237.45 L 552.44,237.51 L 546.98,237.42 L 544.22,237.33 L 538.50,236.95 L 537.26,236.86 L 534.49,236.55 L 533.09,236.38 L 530.23,235.97 L 528.83,235.75 L 526.23,235.28 L 523.00,234.57 L 521.21,234.11 L 517.67,233.23 L 516.86,233.03 L 515.48,232.70 L 514.00,232.37 L 513.31,232.22 L 511.65,231.75 L 509.50,230.98 L 509.22,230.86 L 508.09,230.38 L 507.45,230.11 L 505.74,229.41 L 504.83,229.04 L 502.76,228.19 L 499.50,226.87 L 497.62,226.11 L 494.30,224.61 L 492.65,223.83 L 489.26,222.01 L 488.38,221.51 L 486.48,220.39 L 485.50,219.80 L 483.33,218.46 L 482.21,217.76 L 479.71,216.15 L 475.46,213.39 L 474.35,212.66 L 472.44,211.13 L 471.53,210.34 L 470.01,208.69 L 469.29,207.85 L 468.16,206.10 L 467.65,205.22 L 466.92,203.38 L 466.60,202.45 L 466.27,200.53 L 466.16,199.57 L 466.24,197.59 L 466.33,196.59 L 466.82,194.56 L 468.02,191.46 L 468.55,190.37 L 469.82,188.54 L 470.49,187.68 L 472.03,186.34 L 472.83,185.73 L 474.60,184.88 L 475.51,184.51 L 477.49,184.15 L 478.51,184.04 Z" fill="rgba(0,0,0,1)"/>
<path d="M 398.00,768.15 L 398.00,768.10 L 398.43,767.99 L 398.71,767.93 L 399.64,767.81 L 400.16,767.75 L 401.52,767.63 L 402.25,767.57 L 403.96,767.45 L 405.75,767.32 L 410.09,767.08 L 412.34,766.97 L 417.14,766.76 L 419.55,766.66 L 424.23,766.51 L 426.50,766.44 L 430.47,766.37 L 431.39,766.36 L 433.00,766.35 L 433.76,766.36 L 434.99,766.38 L 435.55,766.39 L 436.32,766.45 L 436.89,766.57 L 436.94,766.62 L 436.83,766.80 L 436.74,766.89 L 436.37,767.14 L 434.57,767.97 L 434.37,768.05 L 433.63,768.19 L 433.21,768.26 L 432.07,768.38 L 431.46,768.44 L 429.99,768.55 L 429.22,768.60 L 427.49,768.69 L 425.70,768.78 L 421.58,768.89 L 419.46,768.94 L 415.07,768.98 L 412.89,768.99 L 408.72,768.95 L 406.71,768.92 L 403.26,768.81 L 402.46,768.77 L 401.10,768.69 L 400.46,768.64 L 399.44,768.54 L 398.98,768.49 L 398.38,768.36 L 398.13,768.29 Z" fill="rgba(17,17,17,1)"/>
</g>
</svg>