<?xml version="1.0" encoding="UTF-8"?>
<!DOCTYPE svg PUBLIC "-//W3C//DTD SVG 1.1//EN" "http://www.w3.org/Graphics/SVG/1.1/DTD/svg11.dtd">
<svg xmlns="http://www.w3.org/2000/svg" version="1.1" width="432px" height="480px" style="shape-rendering:geometricPrecision; text-rendering:geometricPrecision; image-rendering:optimizeQuality; fill-rule:evenodd; clip-rule:evenodd" xmlns:xlink="http://www.w3.org/1999/xlink">
<g><path style="opacity:0.993" fill="#000000" d="M 32.5,-0.5 C 153.5,-0.5 274.5,-0.5 395.5,-0.5C 397.144,0.316435 398.31,1.64977 399,3.5C 399.186,5.90049 399.686,8.23382 400.5,10.5C 411.412,15.4489 421.745,21.1156 431.5,27.5C 431.5,56.8333 431.5,86.1667 431.5,115.5C 430.733,116.172 430.066,117.005 429.5,118C 423.342,120.912 417.342,124.079 411.5,127.5C 417.342,130.921 423.342,134.088 429.5,137C 430.066,137.995 430.733,138.828 431.5,139.5C 431.5,168.833 431.5,198.167 431.5,227.5C 430.733,228.172 430.066,229.005 429.5,230C 423.342,232.912 417.342,236.079 411.5,239.5C 417.342,242.921 423.342,246.088 429.5,249C 430.066,249.995 430.733,250.828 431.5,251.5C 431.5,280.833 431.5,310.167 431.5,339.5C 430.733,340.172 430.066,341.005 429.5,342C 423.342,344.912 417.342,348.079 411.5,351.5C 417.342,354.921 423.342,358.088 429.5,361C 430.066,361.995 430.733,362.828 431.5,363.5C 431.5,392.833 431.5,422.167 431.5,451.5C 421.745,457.884 411.412,463.551 400.5,468.5C 399.686,470.766 399.186,473.1 399,475.5C 398.31,477.35 397.144,478.684 395.5,479.5C 274.5,479.5 153.5,479.5 32.5,479.5C 25.6589,476.832 20.4922,472.166 17,465.5C 15.8834,451.222 15.0501,436.889 14.5,422.5C 7.36337,419.034 2.36337,413.701 -0.5,406.5C -0.5,401.833 -0.5,397.167 -0.5,392.5C 2.36337,385.299 7.36337,379.966 14.5,376.5C 15.8333,365.167 15.8333,353.833 14.5,342.5C 7.36337,339.034 2.36337,333.701 -0.5,326.5C -0.5,321.833 -0.5,317.167 -0.5,312.5C 2.36337,305.299 7.36337,299.966 14.5,296.5C 15.8333,285.167 15.8333,273.833 14.5,262.5C 7.36337,259.034 2.36337,253.701 -0.5,246.5C -0.5,241.833 -0.5,237.167 -0.5,232.5C 2.36337,225.299 7.36337,219.966 14.5,216.5C 15.8333,205.167 15.8333,193.833 14.5,182.5C 7.36337,179.034 2.36337,173.701 -0.5,166.5C -0.5,161.833 -0.5,157.167 -0.5,152.5C 2.36337,145.299 7.36337,139.966 14.5,136.5C 15.8333,125.167 15.8333,113.833 14.5,102.5C 7.36337,99.0344 2.36337,93.701 -0.5,86.5C -0.5,81.8333 -0.5,77.1667 -0.5,72.5C 2.36337,65.299 7.36337,59.9656 14.5,56.5C 15.0501,42.1108 15.8834,27.7775 17,13.5C 20.4922,6.83442 25.6589,2.16775 32.5,-0.5 Z"/></g>
<g><path style="opacity:1" fill="#beb0a2" d="M 36.5,15.5 C 40.1667,15.5 43.8333,15.5 47.5,15.5C 47.5,28.8333 47.5,42.1667 47.5,55.5C 42.1667,55.5 36.8333,55.5 31.5,55.5C 31.3335,43.8286 31.5001,32.1619 32,20.5C 33.025,18.313 34.525,16.6464 36.5,15.5 Z"/></g>
<g><path style="opacity:1" fill="#fae8d7" d="M 63.5,15.5 C 170.167,15.5 276.833,15.5 383.5,15.5C 383.5,164.833 383.5,314.167 383.5,463.5C 276.833,463.5 170.167,463.5 63.5,463.5C 63.5,450.167 63.5,436.833 63.5,423.5C 82.2172,425.597 92.8838,417.43 95.5,399C 92.389,381.249 81.7223,373.415 63.5,375.5C 63.5,364.833 63.5,354.167 63.5,343.5C 82.2172,345.597 92.8838,337.43 95.5,319C 92.389,301.249 81.7223,293.415 63.5,295.5C 63.5,284.833 63.5,274.167 63.5,263.5C 82.2172,265.597 92.8838,257.43 95.5,239C 92.389,221.249 81.7223,213.415 63.5,215.5C 63.5,204.833 63.5,194.167 63.5,183.5C 82.2172,185.597 92.8838,177.43 95.5,159C 92.389,141.249 81.7223,133.415 63.5,135.5C 63.5,124.833 63.5,114.167 63.5,103.5C 82.2172,105.597 92.8838,97.4305 95.5,79C 92.389,61.2487 81.7223,53.4153 63.5,55.5C 63.5,42.1667 63.5,28.8333 63.5,15.5 Z"/></g>
<g><path style="opacity:1" fill="#a2d3f6" d="M 399.5,28.5 C 404.718,31.0261 409.885,33.6928 415,36.5C 415.667,59.8333 415.667,83.1667 415,106.5C 410,109.167 405,111.833 400,114.5C 399.5,85.8353 399.333,57.1686 399.5,28.5 Z"/></g>
<g><path style="opacity:1" fill="#060607" d="M 207.5,56.5 C 213.1,57.9429 218.933,58.6095 225,58.5C 228.683,58.4986 232.183,58.1652 235.5,57.5C 238.518,57.6646 241.518,57.498 244.5,57C 253.665,54.0576 262.998,51.7242 272.5,50C 291.763,48.2681 307.597,54.7681 320,69.5C 320.49,71.5454 320.323,73.5454 319.5,75.5C 317.84,77.2484 315.84,77.7484 313.5,77C 307.309,70.4064 299.976,65.573 291.5,62.5C 284.597,60.7511 277.597,60.2511 270.5,61C 262.747,64.041 254.747,66.2076 246.5,67.5C 240.979,67.7819 235.646,68.4486 230.5,69.5C 221.071,69.7492 211.738,68.9158 202.5,67C 164.867,52.7334 139.367,64.5668 126,102.5C 123.906,110.391 123.239,118.391 124,126.5C 129.346,151.577 135.013,176.577 141,201.5C 155.092,202.324 169.259,202.824 183.5,203C 185.037,204.11 185.703,205.61 185.5,207.5C 185.671,209.993 184.671,211.826 182.5,213C 173.84,213.5 165.173,213.666 156.5,213.5C 156.972,219.456 157.972,225.289 159.5,231C 204.669,231.831 249.669,231.665 294.5,230.5C 295.327,226.193 295.993,221.86 296.5,217.5C 297.451,216.081 297.784,214.415 297.5,212.5C 264.833,212.5 232.167,212.5 199.5,212.5C 198.058,211.18 197.392,209.514 197.5,207.5C 197.273,205.067 198.273,203.401 200.5,202.5C 237.833,202.5 275.167,202.5 312.5,202.5C 318.105,177.872 323.605,153.206 329,128.5C 329.667,122.167 329.667,115.833 329,109.5C 327.652,103.293 325.819,97.2934 323.5,91.5C 323.719,89.3069 324.385,87.3069 325.5,85.5C 327.467,85.2606 329.301,85.5939 331,86.5C 338.105,101.397 340.438,117.063 338,133.5C 332.415,158.257 326.415,182.923 320,207.5C 316.766,212.087 312.266,214.087 306.5,213.5C 305.567,220.53 304.4,227.53 303,234.5C 302.31,237.196 300.81,239.363 298.5,241C 290.277,242.438 281.943,242.938 273.5,242.5C 273.5,245.167 273.5,247.833 273.5,250.5C 277.719,251.548 280.553,254.215 282,258.5C 283.693,265.844 282.193,272.344 277.5,278C 275.091,279.707 272.425,280.54 269.5,280.5C 268.92,284.81 268.586,289.143 268.5,293.5C 267.844,294.622 267.511,295.955 267.5,297.5C 267.585,299.333 268.252,300.666 269.5,301.5C 278.258,305.353 281.424,312.02 279,321.5C 276.59,328.051 271.923,332.051 265,333.5C 263.865,339.275 263.032,345.108 262.5,351C 265.744,353.487 268.911,356.32 272,359.5C 276.856,372.27 272.856,380.937 260,385.5C 258.177,396.755 256.843,408.088 256,419.5C 255.355,424.808 252.522,428.308 247.5,430C 233.167,430.667 218.833,430.667 204.5,430C 200.42,427.688 197.92,424.188 197,419.5C 196.501,415.179 196.334,410.846 196.5,406.5C 187.948,407.453 182.448,403.786 180,395.5C 178.052,388.135 179.885,381.968 185.5,377C 187.65,375.589 189.984,374.755 192.5,374.5C 192.625,368.797 192.292,363.13 191.5,357.5C 182.918,359.13 177.418,355.796 175,347.5C 172.284,336.593 176.118,329.26 186.5,325.5C 187.663,320.198 187.829,314.864 187,309.5C 173.583,307.692 168.249,300.025 171,286.5C 173.386,280.896 177.553,277.563 183.5,276.5C 182.632,265.153 181.632,253.82 180.5,242.5C 172.493,242.666 164.493,242.5 156.5,242C 153.527,240.235 151.36,237.735 150,234.5C 149.025,227.509 148.192,220.509 147.5,213.5C 142.031,214.29 137.531,212.623 134,208.5C 129.01,189.206 124.01,169.873 119,150.5C 111.748,127.112 113.415,104.445 124,82.5C 134.376,62.9532 150.542,51.9532 172.5,49.5C 184.335,51.0425 196.001,53.3758 207.5,56.5 Z"/></g>
<g><path style="opacity:1" fill="#9c9186" d="M 207.5,56.5 C 216.815,57.2324 226.148,57.5657 235.5,57.5C 232.183,58.1652 228.683,58.4986 225,58.5C 218.933,58.6095 213.1,57.9429 207.5,56.5 Z"/></g>
<g><path style="opacity:1" fill="#e4fbf8" d="M 230.5,69.5 C 236.098,69.8443 241.432,69.1776 246.5,67.5C 254.747,66.2076 262.747,64.041 270.5,61C 277.597,60.2511 284.597,60.7511 291.5,62.5C 298.77,101.881 292.27,138.881 272,173.5C 264.876,184.291 256.043,193.458 245.5,201C 230.328,201.169 215.328,201.669 200.5,202.5C 198.273,203.401 197.273,205.067 197.5,207.5C 193.5,207.5 189.5,207.5 185.5,207.5C 185.703,205.61 185.037,204.11 183.5,203C 169.259,202.824 155.092,202.324 141,201.5C 135.013,176.577 129.346,151.577 124,126.5C 123.239,118.391 123.906,110.391 126,102.5C 139.367,64.5668 164.867,52.7334 202.5,67C 211.738,68.9158 221.071,69.7492 230.5,69.5 Z"/></g>
<g><path style="opacity:1" fill="#cbe5e0" d="M 291.5,62.5 C 299.976,65.573 307.309,70.4064 313.5,77C 315.84,77.7484 317.84,77.2484 319.5,75.5C 321.5,78.8333 323.5,82.1667 325.5,85.5C 324.385,87.3069 323.719,89.3069 323.5,91.5C 325.819,97.2934 327.652,103.293 329,109.5C 329.667,115.833 329.667,122.167 329,128.5C 323.605,153.206 318.105,177.872 312.5,202.5C 275.167,202.5 237.833,202.5 200.5,202.5C 215.328,201.669 230.328,201.169 245.5,201C 256.043,193.458 264.876,184.291 272,173.5C 292.27,138.881 298.77,101.881 291.5,62.5 Z"/></g>
<g><path style="opacity:1" fill="#798584" d="M 246.5,67.5 C 241.432,69.1776 236.098,69.8443 230.5,69.5C 235.646,68.4486 240.979,67.7819 246.5,67.5 Z"/></g>
<g><path style="opacity:1" fill="#7c8387" d="M 20.5,71.5 C 38.5031,71.3334 56.5031,71.5001 74.5,72C 79.5352,75.0133 80.7019,79.1799 78,84.5C 77.0975,85.7014 75.9308,86.5348 74.5,87C 56.5,87.6667 38.5,87.6667 20.5,87C 15.4648,83.9867 14.2981,79.8201 17,74.5C 18.1451,73.3636 19.3117,72.3636 20.5,71.5 Z"/></g>
<g><path style="opacity:1" fill="#0d0e0e" d="M 187.5,82.5 C 212.638,89.1571 237.805,89.1571 263,82.5C 266.071,82.7378 267.571,84.4044 267.5,87.5C 267.594,89.9116 266.594,91.745 264.5,93C 239.143,101.664 213.81,101.664 188.5,93C 185.066,89.7017 184.733,86.2017 187.5,82.5 Z"/></g>
<g><path style="opacity:1" fill="#beb1a2" d="M 31.5,103.5 C 36.8333,103.5 42.1667,103.5 47.5,103.5C 47.5,114.167 47.5,124.833 47.5,135.5C 42.1667,135.5 36.8333,135.5 31.5,135.5C 31.5,124.833 31.5,114.167 31.5,103.5 Z"/></g>
<g><path style="opacity:1" fill="#fee66b" d="M 399.5,140.5 C 404.718,143.026 409.885,145.693 415,148.5C 415.667,171.833 415.667,195.167 415,218.5C 410,221.167 405,223.833 400,226.5C 399.5,197.835 399.333,169.169 399.5,140.5 Z"/></g>
<g><path style="opacity:1" fill="#7c8387" d="M 20.5,151.5 C 38.5031,151.333 56.5031,151.5 74.5,152C 79.5352,155.013 80.7019,159.18 78,164.5C 77.0975,165.701 75.9308,166.535 74.5,167C 56.5,167.667 38.5,167.667 20.5,167C 15.4648,163.987 14.2981,159.82 17,154.5C 18.1451,153.364 19.3117,152.364 20.5,151.5 Z"/></g>
<g><path style="opacity:1" fill="#beb1a2" d="M 31.5,183.5 C 36.8333,183.5 42.1667,183.5 47.5,183.5C 47.5,194.167 47.5,204.833 47.5,215.5C 42.1667,215.5 36.8333,215.5 31.5,215.5C 31.5,204.833 31.5,194.167 31.5,183.5 Z"/></g>
<g><path style="opacity:1" fill="#f9805c" d="M 185.5,207.5 C 189.5,207.5 193.5,207.5 197.5,207.5C 197.392,209.514 198.058,211.18 199.5,212.5C 228.995,213.498 258.662,213.831 288.5,213.5C 286.98,219.023 286.314,224.69 286.5,230.5C 289.167,230.5 291.833,230.5 294.5,230.5C 249.669,231.665 204.669,231.831 159.5,231C 157.972,225.289 156.972,219.456 156.5,213.5C 165.173,213.666 173.84,213.5 182.5,213C 184.671,211.826 185.671,209.993 185.5,207.5 Z"/></g>
<g><path style="opacity:1" fill="#45221a" d="M 199.5,212.5 C 232.167,212.5 264.833,212.5 297.5,212.5C 297.784,214.415 297.451,216.081 296.5,217.5C 296.5,216.167 296.5,214.833 296.5,213.5C 293.833,213.5 291.167,213.5 288.5,213.5C 258.662,213.831 228.995,213.498 199.5,212.5 Z"/></g>
<g><path style="opacity:1" fill="#f56753" d="M 288.5,213.5 C 291.167,213.5 293.833,213.5 296.5,213.5C 296.5,214.833 296.5,216.167 296.5,217.5C 295.993,221.86 295.327,226.193 294.5,230.5C 291.833,230.5 289.167,230.5 286.5,230.5C 286.314,224.69 286.98,219.023 288.5,213.5 Z"/></g>
<g><path style="opacity:1" fill="#7c8387" d="M 20.5,231.5 C 38.5031,231.333 56.5031,231.5 74.5,232C 79.5352,235.013 80.7019,239.18 78,244.5C 77.0975,245.701 75.9308,246.535 74.5,247C 56.5,247.667 38.5,247.667 20.5,247C 15.4648,243.987 14.2981,239.82 17,234.5C 18.1451,233.364 19.3117,232.364 20.5,231.5 Z"/></g>
<g><path style="opacity:1" fill="#5f8cae" d="M 189.5,242.5 C 214.167,242.5 238.833,242.5 263.5,242.5C 263.777,245.448 263.444,248.281 262.5,251C 239.211,258.487 215.878,265.654 192.5,272.5C 191.664,262.481 190.664,252.481 189.5,242.5 Z"/></g>
<g><path style="opacity:1" fill="#ec6e6c" d="M 399.5,252.5 C 404.718,255.026 409.885,257.693 415,260.5C 415.667,283.833 415.667,307.167 415,330.5C 410,333.167 405,335.833 400,338.5C 399.5,309.835 399.333,281.169 399.5,252.5 Z"/></g>
<g><path style="opacity:1" fill="#91c1da" d="M 239.5,281.5 C 238.549,282.919 238.216,284.585 238.5,286.5C 235.031,286.547 231.698,287.213 228.5,288.5C 228.116,285.95 226.616,284.617 224,284.5C 210.47,288.679 196.97,293.012 183.5,297.5C 178.732,294.9 178.399,291.734 182.5,288C 211.503,278.669 240.503,269.502 269.5,260.5C 270.772,260.57 271.938,260.903 273,261.5C 273.944,264.347 273.444,266.847 271.5,269C 262.061,271.813 252.728,274.813 243.5,278C 241.676,278.66 240.343,279.827 239.5,281.5 Z"/></g>
<g><path style="opacity:1" fill="#beb1a2" d="M 31.5,263.5 C 36.8333,263.5 42.1667,263.5 47.5,263.5C 47.5,274.167 47.5,284.833 47.5,295.5C 42.1667,295.5 36.8333,295.5 31.5,295.5C 31.5,284.833 31.5,274.167 31.5,263.5 Z"/></g>
<g><path style="opacity:1" fill="#608dae" d="M 239.5,281.5 C 239.075,288.348 242.075,290.681 248.5,288.5C 249.805,290.397 250.471,292.731 250.5,295.5C 250.355,298.867 250.022,302.201 249.5,305.5C 232.266,311.212 214.933,316.545 197.5,321.5C 196.646,315.858 195.98,310.191 195.5,304.5C 205.834,301.445 216.168,298.278 226.5,295C 228.229,293.211 228.896,291.044 228.5,288.5C 231.698,287.213 235.031,286.547 238.5,286.5C 238.216,284.585 238.549,282.919 239.5,281.5 Z"/></g>
<g><path style="opacity:1" fill="#4b779f" d="M 249.5,305.5 C 250.022,302.201 250.355,298.867 250.5,295.5C 250.471,292.731 249.805,290.397 248.5,288.5C 251.799,286.517 255.466,285.517 259.5,285.5C 259.109,291.193 258.442,296.859 257.5,302.5C 254.805,303.508 252.138,304.508 249.5,305.5 Z"/></g>
<g><path style="opacity:1" fill="#6e665f" d="M 268.5,293.5 C 268.279,296.279 268.612,298.946 269.5,301.5C 268.252,300.666 267.585,299.333 267.5,297.5C 267.511,295.955 267.844,294.622 268.5,293.5 Z"/></g>
<g><path style="opacity:1" fill="#7c8387" d="M 20.5,311.5 C 38.5031,311.333 56.5031,311.5 74.5,312C 79.5352,315.013 80.7019,319.18 78,324.5C 77.0975,325.701 75.9308,326.535 74.5,327C 56.5,327.667 38.5,327.667 20.5,327C 15.4648,323.987 14.2981,319.82 17,314.5C 18.1451,313.364 19.3117,312.364 20.5,311.5 Z"/></g>
<g><path style="opacity:1" fill="#91c1da" d="M 261.5,312.5 C 264.685,312.02 267.519,312.686 270,314.5C 270.92,317.308 270.087,319.475 267.5,321C 241.477,329.206 215.477,337.54 189.5,346C 184.504,346.664 182.67,344.498 184,339.5C 185.579,337.959 187.413,336.792 189.5,336C 213.811,328.764 237.811,320.93 261.5,312.5 Z"/></g>
<g><path style="opacity:1" fill="#4a759c" d="M 243.5,357.5 C 244.003,353.15 244.67,348.817 245.5,344.5C 245.415,342.667 244.748,341.334 243.5,340.5C 246.799,338.517 250.466,337.517 254.5,337.5C 254.631,343.221 254.131,348.888 253,354.5C 249.873,355.598 246.707,356.598 243.5,357.5 Z"/></g>
<g><path style="opacity:1" fill="#608cae" d="M 243.5,340.5 C 244.748,341.334 245.415,342.667 245.5,344.5C 244.67,348.817 244.003,353.15 243.5,357.5C 229.95,362.438 216.283,367.105 202.5,371.5C 201.668,366.521 201.002,361.521 200.5,356.5C 200.709,355.006 201.376,353.839 202.5,353C 216.099,348.522 229.765,344.355 243.5,340.5 Z"/></g>
<g><path style="opacity:1" fill="#beb1a2" d="M 31.5,343.5 C 36.8333,343.5 42.1667,343.5 47.5,343.5C 47.5,354.167 47.5,364.833 47.5,375.5C 42.1667,375.5 36.8333,375.5 31.5,375.5C 31.5,364.833 31.5,354.167 31.5,343.5 Z"/></g>
<g><path style="opacity:1" fill="#90c0d8" d="M 256.5,364.5 C 263.107,362.749 265.607,365.082 264,371.5C 263.097,372.701 261.931,373.535 260.5,374C 238.343,380.407 216.343,387.407 194.5,395C 189.504,395.664 187.67,393.498 189,388.5C 189.833,387.667 190.667,386.833 191.5,386C 213.472,379.326 235.138,372.159 256.5,364.5 Z"/></g>
<g><path style="opacity:1" fill="#87c690" d="M 399.5,364.5 C 404.718,367.026 409.885,369.693 415,372.5C 415.667,395.833 415.667,419.167 415,442.5C 410,445.167 405,447.833 400,450.5C 399.5,421.835 399.333,393.169 399.5,364.5 Z"/></g>
<g><path style="opacity:1" fill="#7c8387" d="M 20.5,391.5 C 38.5031,391.333 56.5031,391.5 74.5,392C 79.5352,395.013 80.7019,399.18 78,404.5C 77.0975,405.701 75.9308,406.535 74.5,407C 56.5,407.667 38.5,407.667 20.5,407C 15.4648,403.987 14.2981,399.82 17,394.5C 18.1451,393.364 19.3117,392.364 20.5,391.5 Z"/></g>
<g><path style="opacity:1" fill="#4b769d" d="M 207.5,418.5 C 213.206,418.829 218.872,418.495 224.5,417.5C 228.123,410.131 231.457,402.631 234.5,395C 233.552,394.517 232.552,394.351 231.5,394.5C 237.189,392.053 243.189,390.386 249.5,389.5C 248.726,399.402 247.726,409.235 246.5,419C 233.327,419.827 220.327,419.66 207.5,418.5 Z"/></g>
<g><path style="opacity:1" fill="#618eaf" d="M 231.5,394.5 C 232.552,394.351 233.552,394.517 234.5,395C 231.457,402.631 228.123,410.131 224.5,417.5C 218.872,418.495 213.206,418.829 207.5,418.5C 206.043,413.402 205.376,408.069 205.5,402.5C 214.095,399.635 222.761,396.969 231.5,394.5 Z"/></g>
<g><path style="opacity:1" fill="#beb0a2" d="M 31.5,423.5 C 36.8333,423.5 42.1667,423.5 47.5,423.5C 47.5,436.833 47.5,450.167 47.5,463.5C 43.8183,463.665 40.1516,463.499 36.5,463C 34.3333,462.167 32.8333,460.667 32,458.5C 31.5001,446.838 31.3335,435.171 31.5,423.5 Z"/></g>
</svg>
