<?xml version="1.0" encoding="UTF-8"?>
<svg width="128px" height="128px" viewBox="0 0 128 128" version="1.1" xmlns="http://www.w3.org/2000/svg" xmlns:xlink="http://www.w3.org/1999/xlink">
    <!-- Generator: Sketch 43.1 (39012) - http://www.bohemiancoding.com/sketch -->
    <title>Untitled</title>
    <desc>Created with Sketch.</desc>
    <defs></defs>
    <g id="Page-1" stroke="none" stroke-width="1" fill="none" fill-rule="evenodd">
        <g id="apex_hole__oblong" transform="translate(22.000000, -34.000000)">
            <path d="M42.4263602,91.0099007 C42.4391373,50.8169802 42.5076832,0 42.5076832,0 L17.4709358,0 L6.58751538,1.73166464 L0.0134534013,3.5051693 L0,10.234936 L9.13508937,24.147546 L9.03658908,29.504902 L14.8654245,34.5794397 L10.4469832,38.9076852 L14.8654245,43.6282617 L10.2364524,48.2928895 L15.270791,52.6653649 L10.3289994,58.3118901 L15.270791,62.9260384 L10.4469832,68.0490845 L15.7719518,73.1404212 L10.4469832,77.9331958 L16.5128688,82.2672487 L10.9459792,86.9153834 L16.2222388,92.2166242 L11.2577163,96.4389289 L16.0961368,101.817874 L10.9459792,106.167015 L16.4684895,111.045631 L10.9589682,116.080769 L16.1886838,120.740254 L11.2095486,125.271284 L16.1784008,129.893529 L12.0246114,134.053225 L17.8031142,139.049502 L42.5076832,139.049502 C42.4666417,139.049502 42.4435614,132.391704 42.4325469,121.989783 C42.2892182,121.996569 42.1450103,122 42,122 C37.0294373,122 33,117.979072 33,112.991874 L33,100.008126 C33,95.0330753 37.0283444,91 42,91 C42.1429226,91 42.2850672,91.0033244 42.4263602,91.0099007 Z" id="Combined-Shape" fill="#CACACA"></path>
            <path d="M41.9248743,121.999694 C41.9358929,132.395932 41.9589716,139.049502 42,139.049502 L66.704569,139.049502 L72.4830718,134.053225 L68.3292824,129.893529 L73.2981346,125.271284 L68.3189994,120.740254 L73.5487149,116.080769 L68.0391937,111.045631 L73.561704,106.167015 L68.4115464,101.817874 L73.2499668,96.4389289 L68.2854444,92.2166242 L73.561704,86.9153834 L67.9948144,82.2672487 L74.0606999,77.9331958 L68.7357314,73.1404212 L74.0606999,68.0490845 L69.2368921,62.9260384 L74.1786838,58.3118901 L69.2368921,52.6653649 L74.2712307,48.2928895 L69.6422587,43.6282617 L74.0606999,38.9076852 L69.6422587,34.5794397 L75.4710941,29.504902 L75.3725938,24.147546 L84.5076832,10.234936 L84.4942298,3.5051693 L77.9201678,1.73166464 L67.0367474,0 L42,0 C42,0 41.931465,50.8089389 41.9186801,91.0003599 C41.9457583,91.0001201 41.9728651,91 42,91 C46.9705627,91 51,95.0209279 51,100.008126 L51,112.991874 C51,117.966925 46.9716556,122 42,122 C41.974934,122 41.949892,121.999898 41.9248743,121.999694 Z" id="Combined-Shape" fill="#CACACA"></path>
            <rect id="Rectangle-Copy-2" stroke="#0465CE" stroke-width="4" x="33" y="89" width="18" height="35" rx="9"></rect>
        </g>
    </g>
</svg>