<?xml version="1.0" encoding="UTF-8"?>
<svg width="128px" height="128px" viewBox="0 0 128 128" version="1.1" xmlns="http://www.w3.org/2000/svg" xmlns:xlink="http://www.w3.org/1999/xlink">
    <!-- Generator: Sketch 43.1 (39012) - http://www.bohemiancoding.com/sketch -->
    <title>Untitled</title>
    <desc>Created with Sketch.</desc>
    <defs></defs>
    <g id="Page-1" stroke="none" stroke-width="1" fill="none" fill-rule="evenodd">
        <g id="apex_hole__round" transform="translate(22.000000, -34.000000)">
            <path d="M42.424339,102.000244 C42.4256601,60.808365 42.5076832,0 42.5076832,0 L17.4709358,0 L6.58751538,1.73166464 L0.0134534013,3.5051693 L0,10.234936 L9.13508937,24.147546 L9.03658908,29.504902 L14.8654245,34.5794397 L10.4469832,38.9076852 L14.8654245,43.6282617 L10.2364524,48.2928895 L15.270791,52.6653649 L10.3289994,58.3118901 L15.270791,62.9260384 L10.4469832,68.0490845 L15.7719518,73.1404212 L10.4469832,77.9331958 L16.5128688,82.2672487 L10.9459792,86.9153834 L16.2222388,92.2166242 L11.2577163,96.4389289 L16.0961368,101.817874 L10.9459792,106.167015 L16.4684895,111.045631 L10.9589682,116.080769 L16.1886838,120.740254 L11.2095486,125.271284 L16.1784008,129.893529 L12.0246114,134.053225 L17.8031142,139.049502 L42.5076832,139.049502 C42.4707526,139.049502 42.4483652,133.658638 42.4362257,124.999827 C36.114295,124.965498 31,119.830003 31,113.5 C31,107.173965 36.1078855,102.04094 42.424339,102.000244 Z" id="Combined-Shape" fill="#CACACA"></path>
            <path d="M41.9285233,124.986048 C41.9406583,133.652919 41.9630498,139.049502 42,139.049502 L66.704569,139.049502 L72.4830718,134.053225 L68.3292824,129.893529 L73.2981346,125.271284 L68.3189994,120.740254 L73.5487149,116.080769 L68.0391937,111.045631 L73.561704,106.167015 L68.4115464,101.817874 L73.2499668,96.4389289 L68.2854444,92.2166242 L73.561704,86.9153834 L67.9948144,82.2672487 L74.0606999,77.9331958 L68.7357314,73.1404212 L74.0606999,68.0490845 L69.2368921,62.9260384 L74.1786838,58.3118901 L69.2368921,52.6653649 L74.2712307,48.2928895 L69.6422587,43.6282617 L74.0606999,38.9076852 L69.6422587,34.5794397 L75.4710941,29.504902 L75.3725938,24.147546 L84.5076832,10.234936 L84.4942298,3.5051693 L77.9201678,1.73166464 L67.0367474,0 L42,0 C42,0 41.917958,60.8224351 41.9166554,102.014539 C42.1098858,102.004885 42.3043725,102 42.5,102 C48.8512746,102 54,107.148725 54,113.5 C54,119.851275 48.8512746,125 42.5,125 C42.308377,125 42.1178486,124.995313 41.9285233,124.986048 Z" id="Combined-Shape" fill="#CACACA"></path>
            <circle id="Oval-3" stroke="#0465CE" stroke-width="4" cx="42" cy="113" r="12"></circle>
        </g>
        <g id="apex_hole__none" transform="translate(22.000000, -34.000000)" fill="#CACACA">
            <path d="M0,10.234936 L9.13508937,24.147546 L9.03658908,29.504902 L14.8654245,34.5794397 L10.4469832,38.9076852 L14.8654245,43.6282617 L10.2364524,48.2928895 L15.270791,52.6653649 L10.3289994,58.3118901 L15.270791,62.9260384 L10.4469832,68.0490845 L15.7719518,73.1404212 L10.4469832,77.9331958 L16.5128688,82.2672487 L10.9459792,86.9153834 L16.2222388,92.2166242 L11.2577163,96.4389289 L16.0961368,101.817874 L10.9459792,106.167015 L16.4684895,111.045631 L10.9589682,116.080769 L16.1886838,120.740254 L11.2095486,125.271284 L16.1784008,129.893529 L12.0246114,134.053225 L17.8031142,139.049502 L42.5076832,139.049502 C42.3201225,139.049502 42.5076832,0 42.5076832,0 L17.4709358,0 L6.58751538,1.73166464 L0.0134534013,3.5051693 L0,10.234936 Z" id="Combined-Shape"></path>
            <path d="M84.5076832,10.234936 L75.3725938,24.147546 L75.4710941,29.504902 L69.6422587,34.5794397 L74.0606999,38.9076852 L69.6422587,43.6282617 L74.2712307,48.2928895 L69.2368921,52.6653649 L74.1786838,58.3118901 L69.2368921,62.9260384 L74.0606999,68.0490845 L68.7357314,73.1404212 L74.0606999,77.9331958 L67.9948144,82.2672487 L73.561704,86.9153834 L68.2854444,92.2166242 L73.2499668,96.4389289 L68.4115464,101.817874 L73.561704,106.167015 L68.0391937,111.045631 L73.5487149,116.080769 L68.3189994,120.740254 L73.2981346,125.271284 L68.3292824,129.893529 L72.4830718,134.053225 L66.704569,139.049502 L42,139.049502 C41.8124393,139.049502 42,0 42,0 L67.0367474,0 L77.9201678,1.73166464 L84.4942298,3.5051693 L84.5076832,10.234936 Z" id="Combined-Shape"></path>
        </g>
    </g>
</svg>