<?xml version="1.0" encoding="UTF-8"?>
<svg width="128px" height="128px" viewBox="0 0 128 128" version="1.1" xmlns="http://www.w3.org/2000/svg" xmlns:xlink="http://www.w3.org/1999/xlink">
    <!-- Generator: Sketch 43.1 (39012) - http://www.bohemiancoding.com/sketch -->
    <title>Untitled</title>
    <desc>Created with Sketch.</desc>
    <defs></defs>
    <g id="Page-1" stroke="none" stroke-width="1" fill="none" fill-rule="evenodd">
        <g id="apex_shape_dome" transform="translate(22.000000, -60.000000)">
            <path d="M0,10.234936 L9.13508937,24.147546 L9.03658908,29.504902 L14.8654245,34.5794397 L10.4469832,38.9076852 L14.8654245,43.6282617 L10.2364524,48.2928895 L15.270791,52.6653649 L10.3289994,58.3118901 L15.270791,62.9260384 L10.4469832,68.0490845 L15.7719518,73.1404212 L10.4469832,77.9331958 L16.5128688,82.2672487 L10.9459792,86.9153834 L16.2222388,92.2166242 L11.2577163,96.4389289 L16.0961368,101.817874 L10.9459792,106.167015 L16.4684895,111.045631 L10.9589682,116.080769 L16.1886838,120.740254 L11.2095486,125.271284 L16.1784008,129.893529 L12.0246114,134.053225 L17.8031142,139.049502 C17.8031142,139.049502 20,153 42.5076832,153 C42.6952439,153 42.5076832,0 42.5076832,0 L17.4709358,0 L6.58751538,1.73166464 L0.0134534013,3.5051693 L0,10.234936 Z" id="Path" fill="#CACACA"></path>
            <path d="M42,10.234936 L51.1350894,24.147546 L51.0365891,29.504902 L56.8654245,34.5794397 L52.4469832,38.9076852 L56.8654245,43.6282617 L52.2364524,48.2928895 L57.270791,52.6653649 L52.3289994,58.3118901 L57.270791,62.9260384 L52.4469832,68.0490845 L57.7719518,73.1404212 L52.4469832,77.9331958 L58.5128688,82.2672487 L52.9459792,86.9153834 L58.2222388,92.2166242 L53.2577163,96.4389289 L58.0961368,101.817874 L52.9459792,106.167015 L58.4684895,111.045631 L52.9589682,116.080769 L58.1886838,120.740254 L53.2095486,125.271284 L58.1784008,129.893529 L54.0246114,134.053225 L59.8031142,139.049502 C59.8031142,139.049502 62,153 84.5076832,153 C84.6952439,153 84.5076832,0 84.5076832,0 L59.4709358,0 L48.5875154,1.73166464 L42.0134534,3.5051693 L42,10.234936 Z" id="Path-Copy-7" fill="#CACACA" transform="translate(63.253842, 76.500000) scale(-1, 1) translate(-63.253842, -76.500000) "></path>
            <path d="M18.0493827,2.10948789 L22.6846177,16.2453136 L24.2381269,36.2940776 L24.9117136,45.9772775 L27.6779452,55.1998152 L27.7551547,70.1706742 L31.5064736,75.2923886 L32.0349596,111.473624 C32.0349596,111.473624 37.0415991,117.792795 41.1563352,117.792795 C43.1051243,117.792795 42.4633446,117.792795 42.4633446,117.792795 C42.4633446,117.792795 42.4633446,0.0117444199 42.4633446,0.0117444199 L20.1673203,0 L18.0493827,2.10948789 Z" id="Path-2" fill="#ADADAD"></path>
            <path d="M17.5,138.5 C17.5,143 21,154 41.5,154 C62,154 65.5,143 65.5,138.5" id="Line-Copy" stroke="#0465CE" stroke-width="7" stroke-linecap="round" transform="translate(41.500000, 146.250000) scale(-1, 1) translate(-41.500000, -146.250000) "></path>
            <path d="M41.4074074,2.10948789 L46.0426424,16.2453136 L47.5961516,36.2940776 L48.2697383,45.9772775 L51.0359699,55.1998152 L51.1131794,70.1706742 L54.8644982,75.2923886 L55.3929843,111.473624 C55.3929843,111.473624 60.3996237,117.792795 64.5143599,117.792795 C66.463149,117.792795 65.8213693,117.792795 65.8213693,117.792795 C65.8213693,117.792795 65.8213693,0.0117444199 65.8213693,0.0117444199 L43.525345,0 L41.4074074,2.10948789 Z" id="Path-2" fill="#ADADAD" transform="translate(53.664988, 58.896397) scale(-1, 1) translate(-53.664988, -58.896397) "></path>
        </g>
    </g>
</svg>