<?xml version="1.0" encoding="UTF-8"?>
<svg width="128px" height="128px" viewBox="0 0 128 128" version="1.1" xmlns="http://www.w3.org/2000/svg" xmlns:xlink="http://www.w3.org/1999/xlink">
    <!-- Generator: Sketch 43.1 (39012) - http://www.bohemiancoding.com/sketch -->
    <title>Untitled</title>
    <desc>Created with Sketch.</desc>
    <defs></defs>
    <g id="Page-1" stroke="none" stroke-width="1" fill="none" fill-rule="evenodd">
        <g id="apex_grooves__false" transform="translate(9.000000, -129.000000)">
            <polygon id="Path" fill="#CACACA" points="0 13.3622775 11.9147506 31.5259628 11.7862782 38.5202887 19.3887348 45.1453796 13.6258327 50.7961445 19.3887348 56.9591194 13.3512407 63.0490501 19.9174479 68.7575597 13.4719483 76.129412 19.9174479 82.1534391 13.6258327 88.8418604 20.5711038 95.4888832 13.6258327 101.746117 21.5374699 107.404464 14.2766651 113.472862 21.158406 120.393926 14.6832589 125.906379 20.9939331 132.928891 14.2766651 138.606937 21.4795868 144.976241 14.2936065 151.549892 21.1146407 157.63311 14.6204345 163.548621 21.1012287 169.583218 15.6835078 175.013932 23.2203164 181.536849 19.4204999 186.25587 26.8556601 194.806761 23.2203164 199.137387 27.2395629 206.496122 24.1421126 211.697048 29.4172349 220.05191 26.2277831 223.935822 31.5357188 232.098279 35.5236503 234.647793 55.4420896 234.647793 55.4420896 0 22.7870614 0 8.59199069 2.26078439 0.0175470556 4.57619325"></polygon>
            <polygon id="Path" fill="#CACACA" transform="translate(83.112858, 117.323896) scale(-1, 1) translate(-83.112858, -117.323896) " points="55.3918129 13.3622775 67.3065635 31.5259628 67.1780911 38.5202887 74.7805476 45.1453796 69.0176456 50.7961445 74.7805476 56.9591194 68.7430536 63.0490501 75.3092607 68.7575597 68.8637611 76.129412 75.3092607 82.1534391 69.0176456 88.8418604 75.9629167 95.4888832 69.0176456 101.746117 76.9292828 107.404464 69.668478 113.472862 76.5502188 120.393926 70.0750718 125.906379 76.385746 132.928891 69.668478 138.606937 76.8713997 144.976241 69.6854194 151.549892 76.5064535 157.63311 70.0122474 163.548621 76.4930416 169.583218 71.0753207 175.013932 78.6121293 181.536849 74.8123128 186.25587 82.2474729 194.806761 78.6121293 199.137387 82.6313758 206.496122 79.5339254 211.697048 84.8090477 220.05191 81.6195959 223.935822 86.9275317 232.098279 90.9154632 234.647793 110.833902 234.647793 110.833902 0 78.1788743 0 63.9838036 2.26078439 55.4093599 4.57619325"></polygon>
            <path d="M23.5415205,2.75405363 L29.5871831,21.2091594 L31.6134003,47.3839347 L32.4919487,60.0258901 L36.0999001,72.0664254 L36.2006033,91.6117135 L41.0933883,98.2983962 L41.7826841,145.535009 C41.7826841,145.535009 48.3127637,153.785037 53.6795481,153.785037 C56.2213224,153.785037 55.3842595,153.785037 55.3842595,153.785037 C55.3842595,153.785037 55.3842595,0.0153329927 55.3842595,0.0153329927 L26.3039126,0 L23.5415205,2.75405363 Z" id="Path-2" fill="#ADADAD"></path>
            <path d="M54.0070175,2.75405363 L60.0526802,21.2091594 L62.0788974,47.3839347 L62.9574457,60.0258901 L66.5653972,72.0664254 L66.6661004,91.6117135 L71.5588853,98.2983962 L72.2481812,145.535009 C72.2481812,145.535009 78.7782608,153.785037 84.1450452,153.785037 C86.6868195,153.785037 85.8497566,153.785037 85.8497566,153.785037 C85.8497566,153.785037 85.8497566,0.0153329927 85.8497566,0.0153329927 L56.7694096,0 L54.0070175,2.75405363 Z" id="Path-2" fill="#ADADAD" transform="translate(69.994384, 76.892519) scale(-1, 1) translate(-69.994384, -76.892519) "></path>
        </g>
    </g>
</svg>