<?xml version="1.0" encoding="UTF-8"?>
<svg width="128px" height="128px" viewBox="0 0 128 128" version="1.1" xmlns="http://www.w3.org/2000/svg" xmlns:xlink="http://www.w3.org/1999/xlink">
    <!-- Generator: Sketch 43.1 (39012) - http://www.bohemiancoding.com/sketch -->
    <title>Untitled</title>
    <desc>Created with Sketch.</desc>
    <defs></defs>
    <g id="Page-1" stroke="none" stroke-width="1" fill="none" fill-rule="evenodd">
        <g id="apex_shape_flared" transform="translate(22.000000, -84.000000)">
            <path d="M0,34.234936 L9.13508937,48.147546 L9.03658908,53.504902 L14.8654245,58.5794397 L10.4469832,62.9076852 L14.8654245,67.6282617 L12,72 L15.270791,77 L12,82 L15.270791,87 L12,92 L15.270791,97 L12,102 L15.270791,106 L12,111 L15.270791,116 L12,121 L16.0961368,125.817874 L12,130 L13,135 L9.03658908,140 L10.2364524,145 L6,149 L7,155 L4,158 L5,163.049502 L42.5076832,163.049502 C42.3201225,163.049502 42.5076832,24 42.5076832,24 L17.4709358,24 L6.58751538,25.7316646 L0.0134534013,27.5051693 L0,34.234936 Z" id="Path" fill="#CACACA"></path>
            <path d="M42,34.234936 L51.1350894,48.147546 L51.0365891,53.504902 L56.8654245,58.5794397 L52.4469832,62.9076852 L56.8654245,67.6282617 L54,72 L57.270791,77 L54,82 L57.270791,87 L54,92 L57.270791,97 L54,102 L57.270791,106 L54,111 L57.270791,116 L54,121 L58.0961368,125.817874 L54,130 L55,135 L51.0365891,140 L52.2364524,145 L48,149 L49,155 L46,158 L47,163.049502 L84.5076832,163.049502 C84.3201225,163.049502 84.5076832,24 84.5076832,24 L59.4709358,24 L48.5875154,25.7316646 L42.0134534,27.5051693 L42,34.234936 Z" id="Path-Copy-8" fill="#CACACA" transform="translate(63.253842, 93.524751) scale(-1, 1) translate(-63.253842, -93.524751) "></path>
            <path d="M18.0493827,2.10948789 L22.6846177,16.2453136 L24.2381269,36.2940776 L24.9117136,45.9772775 L27.6779452,55.1998152 L27.7551547,70.1706742 L31.5064736,75.2923886 L32.0349596,111.473624 C32.0349596,111.473624 37.0415991,117.792795 41.1563352,117.792795 C43.1051243,117.792795 42.4633446,117.792795 42.4633446,117.792795 C42.4633446,117.792795 42.4633446,0.0117444199 42.4633446,0.0117444199 L20.1673203,0 L18.0493827,2.10948789 Z" id="Path-2" fill="#ADADAD"></path>
            <path d="M2,161 L13,127" id="Line-Copy" stroke="#0465CE" stroke-width="7" stroke-linecap="round"></path>
            <path d="M41.4074074,2.10948789 L46.0426424,16.2453136 L47.5961516,36.2940776 L48.2697383,45.9772775 L51.0359699,55.1998152 L51.1131794,70.1706742 L54.8644982,75.2923886 L55.3929843,111.473624 C55.3929843,111.473624 60.3996237,117.792795 64.5143599,117.792795 C66.463149,117.792795 65.8213693,117.792795 65.8213693,117.792795 C65.8213693,117.792795 65.8213693,0.0117444199 65.8213693,0.0117444199 L43.525345,0 L41.4074074,2.10948789 Z" id="Path-2" fill="#ADADAD" transform="translate(53.664988, 58.896397) scale(-1, 1) translate(-53.664988, -58.896397) "></path>
            <polygon id="Path-5" stroke="#ADADAD" fill="#ADADAD" stroke-linejoin="round" points="13 160 22 131 31 131 31 160"></polygon>
            <polygon id="Path-5-Copy" stroke="#ADADAD" fill="#ADADAD" stroke-linejoin="round" transform="translate(63.000000, 145.500000) scale(-1, 1) translate(-63.000000, -145.500000) " points="54 160 63 131 72 131 72 160"></polygon>
        </g>
    </g>
</svg>