<?xml version="1.0" encoding="UTF-8"?>
<svg width="128px" height="128px" viewBox="0 0 128 128" version="1.1" xmlns="http://www.w3.org/2000/svg" xmlns:xlink="http://www.w3.org/1999/xlink">
    <!-- Generator: Sketch 43.1 (39012) - http://www.bohemiancoding.com/sketch -->
    <title>Untitled</title>
    <desc>Created with Sketch.</desc>
    <defs></defs>
    <g id="Page-1" stroke="none" stroke-width="1" fill="none" fill-rule="evenodd">
        <g id="body_shape__tapered" transform="translate(18.000000, -28.000000)">
            <polygon id="Path" fill="#CACACA" points="0 11.3721511 9.98486512 26.8306066 9.87720202 32.7832244 13.9831952 38.5267106 8.20227971 43.2003169 15.5673508 48.5650179 9.87720202 53.6424232 16.6913297 58.5170721 11.2898365 64.790989 18.0489496 69.9991379 12.3049458 75.3508913 19.4592179 81.2245699 13.9831952 86.2062897 20.2317066 91.5903605 14.8694986 97.0326025 21.9795517 102.370621 16.2482547 107.186714 22.827449 112.651578 16.2748747 117.903956 24.6523937 123.416488 18.0489496 128.657555 24.6523937 132.08481 19.4592179 136.174571 26.4277373 142.858607 20.2317066 148.052813 26.4277373 154.667323 23.2309431 158.589307 29.7697257 165.906774 26.9455606 169.788155 29.7697257 176.029419 27.5577292 180.461395 31.9968441 187.496873 29.169803 190.719681 33.4433824 197.507971 37.0713292 199.700249 46.4618862 199.700249 46.4618862 0 19.0961391 0 7.20030751 1.92407182 0.0147048805 3.89463256"></polygon>
            <polygon id="Path-Copy-6" fill="#CACACA" transform="translate(67.230943, 99.850125) scale(-1, 1) translate(-67.230943, -99.850125) " points="44 11.3721511 53.9848651 26.8306066 53.877202 32.7832244 57.9831952 38.5267106 52.2022797 43.2003169 59.5673508 48.5650179 53.877202 53.6424232 60.6913297 58.5170721 55.2898365 64.790989 62.0489496 69.9991379 56.3049458 75.3508913 63.4592179 81.2245699 57.9831952 86.2062897 64.2317066 91.5903605 58.8694986 97.0326025 65.9795517 102.370621 60.2482547 107.186714 66.827449 112.651578 60.2748747 117.903956 68.6523937 123.416488 62.0489496 128.657555 68.6523937 132.08481 63.4592179 136.174571 70.4277373 142.858607 64.2317066 148.052813 70.4277373 154.667323 67.2309431 158.589307 73.7697257 165.906774 70.9455606 169.788155 73.7697257 176.029419 71.5577292 180.461395 75.9968441 187.496873 73.169803 190.719681 77.4433824 197.507971 81.0713292 199.700249 90.4618862 199.700249 90.4618862 0 63.0961391 0 51.2003075 1.92407182 44.0147049 3.89463256"></polygon>
            <path d="M19.7283951,2.34387543 L24.7948147,18.0503484 L26.4928364,40.3267529 L27.2290823,51.0858639 L30.2526378,61.333128 L30.3370296,77.9674157 L34.4373083,83.6582096 L35.0149558,123.859582 C35.0149558,123.859582 40.4873292,130.880883 44.9848315,130.880883 C47.1149033,130.880883 46.4134232,130.880883 46.4134232,130.880883 C46.4134232,130.880883 46.4134232,0.0130493555 46.4134232,0.0130493555 L22.0433501,0 L19.7283951,2.34387543 Z" id="Path-2" fill="#ADADAD"></path>
            <path d="M45.2592593,2.34387543 L50.3256789,18.0503484 L52.0237006,40.3267529 L52.7599465,51.0858639 L55.783502,61.333128 L55.8678938,77.9674157 L59.9681725,83.6582096 L60.54582,123.859582 C60.54582,123.859582 66.0181934,130.880883 70.5156957,130.880883 C72.6457675,130.880883 71.9442874,130.880883 71.9442874,130.880883 C71.9442874,130.880883 71.9442874,0.0130493555 71.9442874,0.0130493555 L47.5742143,0 L45.2592593,2.34387543 Z" id="Path-2" fill="#ADADAD" transform="translate(58.657080, 65.440441) scale(-1, 1) translate(-58.657080, -65.440441) "></path>
            <path d="M10.5,35.5 L23.8471875,149.231257" id="Line" stroke="#0465CE" stroke-width="7" stroke-linecap="round"></path>
        </g>
    </g>
</svg>