<?xml version="1.0" encoding="UTF-8"?>
<svg width="128px" height="128px" viewBox="0 0 128 128" version="1.1" xmlns="http://www.w3.org/2000/svg" xmlns:xlink="http://www.w3.org/1999/xlink">
    <!-- Generator: Sketch 43.1 (39012) - http://www.bohemiancoding.com/sketch -->
    <title>Untitled</title>
    <desc>Created with Sketch.</desc>
    <defs></defs>
    <g id="Page-1" stroke="none" stroke-width="1" fill="none" fill-rule="evenodd">
        <g id="body_threads__square" transform="translate(58.000000, -1.000000)">
            <polygon id="Path-4" fill="#CACACA" points="0.218251547 0.832164333 0.218251547 11.9654817 13.7624461 11.9654817 13.7624461 24.4831151 0.218251547 24.4831151 0.218251547 39.036615 13.7624461 39.036615 13.7624461 52.487026 0.218251547 52.487026 0.218251547 68.3457473 13.7624461 68.3457473 13.7624461 81.4994903 0.218251547 81.4994903 0.218251547 96.2802804 13.7624461 96.2802804 13.7624461 110.060444 0.218251547 110.060444 0.218251547 125.16248 13.7624461 125.16248 13.7624461 129.441698 70.0449785 129.441698 70.1567119 0.832164333"></polygon>
            <polyline id="Line-Copy" stroke="#0465CE" stroke-width="7" stroke-linecap="round" stroke-linejoin="round" transform="translate(7.000000, 60.500000) scale(-1, 1) translate(-7.000000, -60.500000) " points="0 53 14 53 14 68 0 68"></polyline>
        </g>
    </g>
</svg>