<?xml version="1.0" encoding="UTF-8"?>
<svg width="128px" height="128px" viewBox="0 0 128 128" version="1.1" xmlns="http://www.w3.org/2000/svg" xmlns:xlink="http://www.w3.org/1999/xlink">
    <!-- Generator: Sketch 43.1 (39012) - http://www.bohemiancoding.com/sketch -->
    <title>Untitled</title>
    <desc>Created with Sketch.</desc>
    <defs></defs>
    <g id="Page-1" stroke="none" stroke-width="1" fill="none" fill-rule="evenodd">
        <g id="body_shape__straight" transform="translate(18.000000, -28.000000)">
            <polygon id="Path" fill="#CACACA" points="0 11.3721511 9.98486512 26.8306066 9.87720202 32.7832244 16.2482547 38.4215997 11.4187956 43.2307613 16.2482547 48.4758463 11.1886805 53.6587661 16.6913297 58.5170721 11.2898365 64.790989 16.6913297 69.9178205 11.4187956 75.6100939 17.2391101 81.2671346 11.4187956 86.5924397 18.0489496 91.4080542 11.9642098 96.5726482 17.7312843 102.462916 12.3049458 107.154365 17.5934518 113.130971 11.9642098 117.96335 18.000442 123.384035 11.9784071 128.978632 17.6946078 134.155838 12.2522973 139.190316 17.6833683 144.326143 13.1431799 148.948027 19.4592179 154.499446 16.2748747 158.515634 22.5057286 165.792988 19.4592179 169.478627 22.827449 175.74138 20.2317066 180.1677 24.6523937 187.278221 21.9795517 190.583678 26.4277373 197.53045 29.7697257 199.700249 46.4618862 199.700249 46.4618862 0 19.0961391 0 7.20030751 1.92407182 0.0147048805 3.89463256"></polygon>
            <polygon id="Path" fill="#CACACA" transform="translate(69.650696, 99.850125) scale(-1, 1) translate(-69.650696, -99.850125) " points="46.4197531 11.3721511 56.4046182 26.8306066 56.2969551 32.7832244 62.6680077 38.4215997 57.8385487 43.2307613 62.6680077 48.4758463 57.6084336 53.6587661 63.1110828 58.5170721 57.7095896 64.790989 63.1110828 69.9178205 57.8385487 75.6100939 63.6588632 81.2671346 57.8385487 86.5924397 64.4687027 91.4080542 58.3839629 96.5726482 64.1510374 102.462916 58.7246988 107.154365 64.0132049 113.130971 58.3839629 117.96335 64.4201951 123.384035 58.3981602 128.978632 64.1143609 134.155838 58.6720504 139.190316 64.1031214 144.326143 59.562933 148.948027 65.8789709 154.499446 62.6946277 158.515634 68.9254817 165.792988 65.8789709 169.478627 69.2472021 175.74138 66.6514597 180.1677 71.0721468 187.278221 68.3993048 190.583678 72.8474904 197.53045 76.1894788 199.700249 92.8816393 199.700249 92.8816393 0 65.5158922 0 53.6200606 1.92407182 46.434458 3.89463256"></polygon>
            <path d="M19.7283951,2.34387543 L24.7948147,18.0503484 L26.4928364,40.3267529 L27.2290823,51.0858639 L30.2526378,61.333128 L30.3370296,77.9674157 L34.4373083,83.6582096 L35.0149558,123.859582 C35.0149558,123.859582 40.4873292,130.880883 44.9848315,130.880883 C47.1149033,130.880883 46.4134232,130.880883 46.4134232,130.880883 C46.4134232,130.880883 46.4134232,0.0130493555 46.4134232,0.0130493555 L22.0433501,0 L19.7283951,2.34387543 Z" id="Path-2" fill="#ADADAD"></path>
            <path d="M45.2592593,2.34387543 L50.3256789,18.0503484 L52.0237006,40.3267529 L52.7599465,51.0858639 L55.783502,61.333128 L55.8678938,77.9674157 L59.9681725,83.6582096 L60.54582,123.859582 C60.54582,123.859582 66.0181934,130.880883 70.5156957,130.880883 C72.6457675,130.880883 71.9442874,130.880883 71.9442874,130.880883 C71.9442874,130.880883 71.9442874,0.0130493555 71.9442874,0.0130493555 L47.5742143,0 L45.2592593,2.34387543 Z" id="Path-2" fill="#ADADAD" transform="translate(58.657080, 65.440441) scale(-1, 1) translate(-58.657080, -65.440441) "></path>
            <path d="M14.5,35.5 L14.5,147.293667" id="Line" stroke="#0465CE" stroke-width="7" stroke-linecap="round"></path>
        </g>
    </g>
</svg>