<?xml version="1.0" encoding="UTF-8"?>
<svg width="128px" height="128px" viewBox="0 0 128 128" version="1.1" xmlns="http://www.w3.org/2000/svg" xmlns:xlink="http://www.w3.org/1999/xlink">
    <!-- Generator: Sketch 43.1 (39012) - http://www.bohemiancoding.com/sketch -->
    <title>Untitled</title>
    <desc>Created with Sketch.</desc>
    <defs></defs>
    <g id="Page-1" stroke="none" stroke-width="1" fill="none" fill-rule="evenodd">
        <g id="body_threads__rounded" transform="translate(56.000000, -13.000000)">
            <path d="M0.702807617,12.8321643 C0.702807617,23.2668869 14.931808,23.8515201 14.931808,31.02682 C14.931808,38.2021198 0.702807617,35.9294456 0.702807617,42.9256748 C0.702807617,49.9219041 14.931808,51.4126782 14.931808,58.6219732 C14.931808,65.8312682 0.702807617,64.4633196 0.702807617,72.0240138 C0.702807617,79.584708 14.931808,81.7782145 14.931808,88.5009557 C14.931808,95.2236969 0.702807617,92.4561779 0.702807617,99.4776382 C0.702807617,106.499098 14.931808,108.826617 14.931808,116.015661 C14.931808,123.204705 0.702807617,122.316407 0.702807617,128.677282 C0.702807617,135.038157 14.931808,134.883396 14.931808,141.441698 C14.931808,148 72.0449785,141.441698 72.0449785,141.441698 L72.1567119,12.8321643 C72.1567119,12.8321643 23,-10 14.931808,6 C6.86361605,22 0.702807617,6 0.702807617,12.8321643 Z" id="Path-4" fill="#CACACA"></path>
            <path d="M1.99804665,59 C1.99804665,67.6185831 14.8118575,65.6667568 14.9980467,73.5 C15.1842358,81.3332432 1.99804665,80.5 1.99804665,88" id="Line-Copy" stroke="#0465CE" stroke-width="7" stroke-linecap="round" stroke-linejoin="round" transform="translate(8.499023, 73.500000) scale(-1, 1) translate(-8.499023, -73.500000) "></path>
        </g>
    </g>
</svg>