<svg width="128" height="128" viewBox="0 0 128 128" fill="none" xmlns="http://www.w3.org/2000/svg">
<g clip-path="url(#clip0_505_6)">
<path fill-rule="evenodd" clip-rule="evenodd" d="M17 35.4291L27.101 50.9648L26.9921 56.9472L33.4372 62.6138L28.5516 67.447L33.4372 72.7183L28.3188 77.9271L33.8854 82.8097L28.4211 89.115L33.8854 94.2675L28.5516 99.9882L34.4396 105.674L28.5516 111.025L35.2588 115.865L29.1033 121.056L34.9375 126.975L29.448 131.69L34.798 137.697L29.1033 142.553L35.2097 148.001L29.1177 153.624L34.9004 158.827L29.3948 163.886L34.889 169.048L30.296 173.693L36.6855 179.272L33.4641 183.308L39.7674 190.622L36.6855 194.326L40.0929 200.62L37.467 205.069L41.939 212.215L39.2351 215.537L43.735 222.518L47.1159 224.699H64.0021V12.1855H37.579V24.0001H33.8854H20.3787L17.0149 27.9142L17 35.4291Z" fill="#CACACA"/>
<path fill-rule="evenodd" clip-rule="evenodd" d="M110.002 35.429L99.9012 50.9648L100.01 56.9472L93.5649 62.6137L98.4506 67.4469L93.5649 72.7183L98.6834 77.9271L93.1167 82.8097L98.581 89.115L93.1167 94.2674L98.4506 99.9882L92.5626 105.674L98.4506 111.025L91.7433 115.865L97.8988 121.056L92.0647 126.975L97.5541 131.69L92.2041 137.697L97.8988 142.553L91.7924 148.001L97.8844 153.624L92.1018 158.827L97.6074 163.886L92.1131 169.048L96.7061 173.693L90.3167 179.272L93.538 183.308L87.2347 190.622L90.3167 194.326L86.9092 200.62L89.5352 205.069L85.0631 212.215L87.767 215.537L83.2671 222.518L79.8863 224.699H63V12.0417H89.4231V24H93.1167H106.623L109.987 27.9141L110.002 35.429Z" fill="#CACACA"/>
<path d="M89.4155 22.2167V11.9423L38 12V22.2167" stroke="#0E64D1" stroke-width="4" stroke-linecap="round" stroke-linejoin="round"/>
<rect x="48" y="22" width="31" height="106" fill="#ADADAD"/>
</g>
<defs>
<clipPath id="clip0_505_6">
<rect width="128" height="128" fill="white"/>
</clipPath>
</defs>
</svg>
