<?xml version="1.0" encoding="UTF-8"?>
<svg width="128px" height="128px" viewBox="0 0 128 128" version="1.1" xmlns="http://www.w3.org/2000/svg" xmlns:xlink="http://www.w3.org/1999/xlink">
    <!-- Generator: Sketch 43.1 (39012) - http://www.bohemiancoding.com/sketch -->
    <title>Untitled</title>
    <desc>Created with Sketch.</desc>
    <defs></defs>
    <g id="Page-1" stroke="none" stroke-width="1" fill="none" fill-rule="evenodd">
        <g id="head_shape"></g>
        <g id="connection_type__internal" transform="translate(17.000000, 16.000000)">
            <polygon id="Path" fill="#CACACA" points="0 11.4290119 10.1009682 26.9647596 9.99205321 32.9471406 16.4371878 38.6137077 11.5515723 43.4469151 16.4371878 48.7182255 11.3187815 53.9270599 16.8854149 58.8096575 11.4211137 65.1149439 16.8854149 70.2674096 11.5515723 75.9881444 17.4395649 81.6734703 11.5515723 87.0254019 18.2588211 91.8650944 12.1033285 97.0555114 17.937462 102.97523 12.4480265 107.690137 17.7980269 113.696626 12.1033285 118.553167 18.2097495 124.000955 12.1176909 129.623525 17.9003591 134.826617 12.3947659 139.886267 17.8889888 145.047774 13.2960076 149.692768 19.6854878 155.271943 16.4641174 159.308212 22.7674231 166.621953 19.6854878 170.32602 23.0928845 176.620087 20.466959 181.068539 24.9390495 188.214613 22.2351279 191.536597 26.7350366 198.518102 30.1158853 200.69875 47.0021407 200.69875 47.0021407 0 19.3181872 0 7.28403202 1.93369218 0.0148758675 3.91410572"></polygon>
            <polygon id="Path" fill="#CACACA" transform="translate(70.460588, 100.349375) scale(-1, 1) translate(-70.460588, -100.349375) " points="46.9595177 11.4290119 57.0604859 26.9647596 56.9515709 32.9471406 63.3967055 38.6137077 58.51109 43.4469151 63.3967055 48.7182255 58.2782991 53.9270599 63.8449326 58.8096575 58.3806314 65.1149439 63.8449326 70.2674096 58.51109 75.9881444 64.3990825 81.6734703 58.51109 87.0254019 65.2183387 91.8650944 59.0628462 97.0555114 64.8969796 102.97523 59.4075442 107.690137 64.7575445 113.696626 59.0628462 118.553167 65.1692671 124.000955 59.0772086 129.623525 64.8598767 134.826617 59.3542835 139.886267 64.8485065 145.047774 60.2555252 149.692768 66.6450055 155.271943 63.423635 159.308212 69.7269408 166.621953 66.6450055 170.32602 70.0524022 176.620087 67.4264766 181.068539 71.8985671 188.214613 69.1946455 191.536597 73.6945542 198.518102 77.075403 200.69875 93.9616584 200.69875 93.9616584 0 66.2777049 0 54.2435497 1.93369218 46.9743935 3.91410572"></polygon>
            <path d="M19.957795,2.35559481 L25.0831265,18.1406002 L26.8008927,40.5283867 L27.5456996,51.3412932 L30.6044126,61.6397936 L30.6897857,78.3572528 L34.8377421,84.0765006 L35.4221064,124.47888 C35.4221064,124.47888 40.9581121,131.535287 45.5079109,131.535287 C47.662751,131.535287 46.9531141,131.535287 46.9531141,131.535287 C46.9531141,131.535287 46.9531141,0.0131146023 46.9531141,0.0131146023 L22.2996682,0 L19.957795,2.35559481 Z" id="Path-2" fill="#ADADAD"></path>
            <path d="M45.7855297,2.35559481 L50.9108612,18.1406002 L52.6286274,40.5283867 L53.3734343,51.3412932 L56.4321473,61.6397936 L56.5175205,78.3572528 L60.6654768,84.0765006 L61.2498412,124.47888 C61.2498412,124.47888 66.7858468,131.535287 71.3356456,131.535287 C73.4904857,131.535287 72.7808489,131.535287 72.7808489,131.535287 C72.7808489,131.535287 72.7808489,0.0131146023 72.7808489,0.0131146023 L48.1274029,0 L45.7855297,2.35559481 Z" id="Path-2" fill="#ADADAD" transform="translate(59.339139, 65.767644) scale(-1, 1) translate(-59.339139, -65.767644) "></path>
            <path d="M21.8969472,1.99373036 L27,22" id="Line" stroke="#0E64D1" stroke-width="4" stroke-linecap="round"></path>
            <path d="M27,49 L27,22" id="Line" stroke="#0E64D1" stroke-width="4" stroke-linecap="round"></path>
            <path d="M65.8969472,1.99373036 L71,22" id="Line-Copy-5" stroke="#0E64D1" stroke-width="4" stroke-linecap="round" transform="translate(68.448474, 11.996865) scale(-1, 1) translate(-68.448474, -11.996865) "></path>
            <path d="M66,49 L66,22" id="Line-Copy-4" stroke="#0E64D1" stroke-width="4" stroke-linecap="round"></path>
        </g>
    </g>
</svg>