<?xml version="1.0" encoding="UTF-8"?>
<svg width="128px" height="128px" viewBox="0 0 128 128" version="1.1" xmlns="http://www.w3.org/2000/svg" xmlns:xlink="http://www.w3.org/1999/xlink">
    <!-- Generator: Sketch 43.1 (39012) - http://www.bohemiancoding.com/sketch -->
    <title>Untitled</title>
    <desc>Created with Sketch.</desc>
    <defs></defs>
    <g id="Page-1" stroke="none" stroke-width="1" fill="none" fill-rule="evenodd">
        <g id="head_shape__wide" transform="translate(16.000000, 19.000000)">
            <polygon id="Path" fill="#CACACA" points="0.402554634 9.60907216 0.402554634 38.0067268 17.290779 38.0067268 17.290779 52.5347877 12.1514511 57.6084531 17.290779 63.1420179 11.9065713 68.6099982 17.7622827 73.7355111 12.0142177 80.3544934 17.7622827 85.7633006 12.1514511 91.7686491 18.3452099 97.736827 12.1514511 103.355024 19.2070105 108.435497 12.7318602 113.884144 18.8689631 120.098376 13.0944586 125.047856 18.722287 131.353175 12.7318602 136.451335 19.1553906 142.170157 12.7469685 148.072457 18.8299334 153.534409 13.0384321 158.845783 18.8179727 164.264081 13.9864757 169.140169 20.7077647 174.996916 17.319107 179.233994 23.9497465 186.911603 20.7077647 190.799952 24.2921092 197.407156 21.5298181 202.076924 26.2341464 209.578524 23.3898088 213.06578 28.1234 220.394625 31.6798178 222.683763 49.4429847 222.683763 49.4429847 0.282072779 20.7077647 0.282072779 7.90218771 0.282072779 2.54689988 0.282072779 0.402554634 2.47596716"></polygon>
            <polygon id="Path-Copy-2" fill="#CACACA" transform="translate(73.922770, 111.482918) scale(-1, 1) translate(-73.922770, -111.482918) " points="49.4025546 9.60907216 49.4025546 38.0067268 66.290779 38.0067268 66.290779 52.5347877 61.1514511 57.6084531 66.290779 63.1420179 60.9065713 68.6099982 66.7622827 73.7355111 61.0142177 80.3544934 66.7622827 85.7633006 61.1514511 91.7686491 67.3452099 97.736827 61.1514511 103.355024 68.2070105 108.435497 61.7318602 113.884144 67.8689631 120.098376 62.0944586 125.047856 67.722287 131.353175 61.7318602 136.451335 68.1553906 142.170157 61.7469685 148.072457 67.8299334 153.534409 62.0384321 158.845783 67.8179727 164.264081 62.9864757 169.140169 69.7077647 174.996916 66.319107 179.233994 72.9497465 186.911603 69.7077647 190.799952 73.2921092 197.407156 70.5298181 202.076924 75.2341464 209.578524 72.3898088 213.06578 77.1234 220.394625 80.6798178 222.683763 98.4429847 222.683763 98.4429847 0.282072779 69.7077647 0.282072779 56.9021877 0.282072779 51.5468999 0.282072779 49.4025546 2.47596716"></polygon>
            <path d="M21,4.47278858 L23.4634878,2 L49.1177115,2.01376707 C49.1177115,2.01376707 49.1177115,140.079332 49.1177115,140.079332 C49.1177115,140.079332 50.1436878,140.079332 47.8769458,140.079332 C43.0908737,140.079332 37.2673806,132.671859 37.2673806,132.671859 L36.65267,90.2594111 L32.2893082,84.2556236 L32.1995016,66.70645 L28.9819481,55.8955864 L28.198463,44.5447243 L26.3914924,21.0431176 L21,4.47278858 Z M77.5149106,4.47278858 L72.1234182,21.0431176 L70.3164476,44.5447243 L69.5329625,55.8955864 L66.315409,66.70645 L66.2256024,84.2556236 L61.8622406,90.2594111 L61.24753,132.671859 C61.24753,132.671859 55.4240369,140.079332 50.6379648,140.079332 C48.3712228,140.079332 49.1177115,140.079332 49.1177115,140.079332 C49.1177115,140.079332 49.1177115,2.01376707 49.1177115,2.01376707 L75.0514228,2 L77.5149106,4.47278858 Z" id="Combined-Shape-Copy" fill="#ADADAD"></path>
            <path d="M1,5 L1,34.5585578" id="Line" stroke="#0465CE" stroke-width="7" stroke-linecap="round"></path>
            <path d="M97.5,4.5 L97.5,34.0585578" id="Line-Copy-2" stroke="#0465CE" stroke-width="7" stroke-linecap="round"></path>
        </g>
    </g>
</svg>