<?xml version="1.0" encoding="UTF-8"?>
<svg width="128px" height="128px" viewBox="0 0 128 128" version="1.1" xmlns="http://www.w3.org/2000/svg" xmlns:xlink="http://www.w3.org/1999/xlink">
    <!-- Generator: Sketch 43.1 (39012) - http://www.bohemiancoding.com/sketch -->
    <title>Untitled</title>
    <desc>Created with Sketch.</desc>
    <defs></defs>
    <g id="Page-1" stroke="none" stroke-width="1" fill="none" fill-rule="evenodd">
        <g id="head_shape__angled" transform="translate(25.000000, 18.000000)">
            <polygon id="Path" fill="#CACACA" points="12.1464455 1.96107537 6.29045769 56.4803982 6.29045769 58.9874758 6.29045769 64.5347877 1.15112978 69.6084531 6.29045769 75.1420179 0.90625 80.6099982 6.76196144 85.7355111 1.01389638 92.3544934 6.76196144 97.7633006 1.15112978 103.768649 7.34488863 109.736827 1.15112978 115.355024 8.20668921 120.435497 1.73153894 125.884144 7.86864179 132.098376 2.09413728 137.047856 7.72196573 143.353175 1.73153894 148.451335 8.15506931 154.170157 1.7466472 160.072457 7.82961211 165.534409 2.0381108 170.845783 7.8176514 176.264081 2.98615438 181.140169 9.70744346 186.996916 6.31878568 191.233994 12.9494252 198.911603 9.70744346 202.799952 13.2917879 209.407156 10.5294968 214.076924 15.2338251 221.578524 12.3894875 225.06578 17.1230787 232.394625 20.6794965 234.683763 38.4426634 234.683763 38.4426634 11.198119 26.1468861 6.04311409 14.0464202 0.462510082"></polygon>
            <polygon id="Path-Copy" fill="#CACACA" transform="translate(63.246955, 122.786870) scale(-1, 1) translate(-63.246955, -122.786870) " points="37.6875 36.4127048 56.6542049 56.4803982 56.6542049 58.9874758 56.6542049 64.5347877 51.514877 69.6084531 56.6542049 75.1420179 51.2699973 80.6099982 57.1257087 85.7355111 51.3776436 92.3544934 57.1257087 97.7633006 51.514877 103.768649 57.7086359 109.736827 51.514877 115.355024 58.5704365 120.435497 52.0952862 125.884144 58.2323891 132.098376 52.4578845 137.047856 58.085713 143.353175 52.0952862 148.451335 58.5188166 154.170157 52.1103945 160.072457 58.1933594 165.534409 52.4018581 170.845783 58.1813987 176.264081 53.3499016 181.140169 60.0711907 186.996916 56.6825329 191.233994 63.3131724 198.911603 60.0711907 202.799952 63.6555352 209.407156 60.8932441 214.076924 65.5975723 221.578524 62.7532348 225.06578 67.486826 232.394625 71.0432438 234.683763 88.8064106 234.683763 88.8064106 10.8899777 54.8433823 25.9643604 38.4102461 33.3554758"></polygon>
            <polygon id="Path-2" fill="#ADADAD" transform="translate(45.393219, 34.950382) rotate(24.000000) translate(-45.393219, -34.950382) " points="17.1207338 21.1248546 22.5122263 37.6951836 25.2951173 51.1132327 44.9615421 51.248697 67.34081 51.0531056 69.8044399 38.1454068 73.6657041 21.2449681 71.1765302 18.7168598 19.5842216 18.6520661"></polygon>
            <path d="M12.5,5.5 L7.5,53.5" id="Line" stroke="#0465CE" stroke-width="7" stroke-linecap="round"></path>
            <path d="M68.5,35.5 L87.5,59.5" id="Line-Copy" stroke="#0465CE" stroke-width="7" stroke-linecap="round" transform="translate(78.000000, 47.500000) scale(-1, 1) translate(-78.000000, -47.500000) "></path>
        </g>
    </g>
</svg>