<?xml version="1.0" encoding="UTF-8"?>
<svg width="128px" height="128px" viewBox="0 0 128 128" version="1.1" xmlns="http://www.w3.org/2000/svg" xmlns:xlink="http://www.w3.org/1999/xlink">
    <!-- Generator: Sketch 43.1 (39012) - http://www.bohemiancoding.com/sketch -->
    <title>Untitled</title>
    <desc>Created with Sketch.</desc>
    <defs></defs>
    <g id="Page-1" stroke="none" stroke-width="1" fill="none" fill-rule="evenodd">
        <g id="head_shape__straight" transform="translate(27.000000, 19.000000)">
            <polygon id="Path" fill="#CACACA" points="6.29077897 34.7600841 7.86896308 36.6860655 6.29077897 38.0067268 6.29077897 52.5347877 1.15145107 57.6084531 6.29077897 63.1420179 0.906571284 68.6099982 6.76228272 73.7355111 1.01421767 80.3544934 6.76228272 85.7633006 1.15145107 91.7686491 7.34520992 97.736827 1.15145107 103.355024 8.20701049 108.435497 1.73186022 113.884144 7.86896308 120.098376 2.09445856 125.047856 7.72228701 131.353175 1.73186022 136.451335 8.15539059 142.170157 1.74696849 148.072457 7.8299334 153.534409 2.03843208 158.845783 7.81797269 164.264081 2.98647567 169.140169 9.70776475 174.996916 6.31910697 179.233994 12.9497465 186.911603 9.70776475 190.799952 13.2921092 197.407156 10.5298181 202.076924 15.2341464 209.578524 12.3898088 213.06578 17.1234 220.394625 20.6798178 222.683763 38.4429847 222.683763 38.4429847 0.282072779 9.70776475 0.282072779 6.29077897 2.27014773"></polygon>
            <polygon id="Path-Copy-3" fill="#CACACA" transform="translate(56.674778, 111.482918) scale(-1, 1) translate(-56.674778, -111.482918) " points="43.290779 34.7600841 44.8689631 36.6860655 43.290779 38.0067268 43.290779 52.5347877 38.1514511 57.6084531 43.290779 63.1420179 37.9065713 68.6099982 43.7622827 73.7355111 38.0142177 80.3544934 43.7622827 85.7633006 38.1514511 91.7686491 44.3452099 97.736827 38.1514511 103.355024 45.2070105 108.435497 38.7318602 113.884144 44.8689631 120.098376 39.0944586 125.047856 44.722287 131.353175 38.7318602 136.451335 45.1553906 142.170157 38.7469685 148.072457 44.8299334 153.534409 39.0384321 158.845783 44.8179727 164.264081 39.9864757 169.140169 46.7077647 174.996916 43.319107 179.233994 49.9497465 186.911603 46.7077647 190.799952 50.2921092 197.407156 47.5298181 202.076924 52.2341464 209.578524 49.3898088 213.06578 54.1234 220.394625 57.6798178 222.683763 75.4429847 222.683763 75.4429847 0.282072779 46.7077647 0.282072779 43.290779 2.27014773"></polygon>
            <path d="M16,4.88144877 L17.8743721,3 L37.3936743,3.01047483 C37.3936743,3.01047483 37.3936743,108.059199 37.3936743,108.059199 C37.3936743,108.059199 38.1742999,108.059199 36.449624,108.059199 C32.8080876,108.059199 28.377218,102.423141 28.377218,102.423141 L27.9095085,70.1531572 L24.5895961,65.5851085 L24.5212657,52.2326241 L22.0731543,44.007058 L21.4770309,35.370628 L20.1021771,17.4891684 L16,4.88144877 Z M59,4.88144877 L54.8978229,17.4891684 L53.5229691,35.370628 L52.9268457,44.007058 L50.4787343,52.2326241 L50.4104039,65.5851085 L47.0904915,70.1531572 L46.622782,102.423141 C46.622782,102.423141 42.1919124,108.059199 38.550376,108.059199 C36.8257001,108.059199 37.3936743,108.059199 37.3936743,108.059199 C37.3936743,108.059199 37.3936743,3.01047483 37.3936743,3.01047483 L57.1256279,3 L59,4.88144877 Z" id="Combined-Shape-Copy-2" fill="#ADADAD"></path>
            <path d="M7,3.5 L7,31.5585578" id="Line" stroke="#0465CE" stroke-width="7" stroke-linecap="round"></path>
            <path d="M69,3.5 L69,31.5585578" id="Line-Copy-3" stroke="#0465CE" stroke-width="7" stroke-linecap="round"></path>
        </g>
    </g>
</svg>