<svg width="128" height="128" viewBox="0 0 128 128" fill="none" xmlns="http://www.w3.org/2000/svg">
<g clip-path="url(#clip0_507_16)">
<path fill-rule="evenodd" clip-rule="evenodd" d="M20.6085 81.1526V101.088L13.5757 108.05L20.6085 115.643L13.2406 123.146L21.2537 130.18L13.3879 139.262L21.2537 146.684L13.5757 154.925L22.0514 163.114L13.5757 170.823L23.2307 177.795L14.3699 185.271L22.7681 193.799L14.8661 200.59L22.5674 209.242L14.3699 216.238L23.16 224.085L14.3906 232.185L22.7147 239.679L14.7895 246.968L22.6983 254.403L16.0868 261.094L25.2843 269.13L20.6472 274.944L29.7207 285.479L25.2843 290.815L30.1892 299.881L26.4093 306.289L32.8468 316.583L28.9545 321.368L35.432 331.425L40.2987 334.566H64.6062V29.387H20.6085V81.1526Z" fill="#CACACA"/>
<path fill-rule="evenodd" clip-rule="evenodd" d="M108.238 81.1526V101.088L115.271 108.05L108.238 115.643L115.606 123.146L107.593 130.18L115.459 139.262L107.593 146.684L115.271 154.925L106.795 163.114L115.271 170.823L105.616 177.795L114.477 185.271L106.079 193.799L113.981 200.59L106.279 209.242L114.477 216.238L105.687 224.085L114.456 232.185L106.132 239.679L114.057 246.968L106.148 254.403L112.76 261.094L103.562 269.13L108.2 274.944L99.1261 285.479L103.562 290.815L98.6576 299.881L102.438 306.289L96 316.583L99.8923 321.368L93.4147 331.425L88.5481 334.566H64.2406V29.387H108.238V81.1526Z" fill="#CACACA"/>
<path d="M19.3872 31.4626L23.3872 35L19.3872 38.7261L23.3872 41.987L19.3872 45.9896L23.3872 48.974L19.3872 53.253L23.3872 55.961L19.3872 60.5165L23.3872 62.948L19.3872 67.7799L23.3872 69.9349L19.3872 75.0434L22.5 77" stroke="#0465CE" stroke-width="4"/>
<path d="M109 31L105 34.5374L109 38.2635L105 41.5243L109 45.5269L105 48.5113L109 52.7904L105 55.4983L109 60.0538L105 62.4853L109 67.3173L105 69.4723L109 74.5808L105.887 76.5374" stroke="#0465CE" stroke-width="4"/>
<path fill-rule="evenodd" clip-rule="evenodd" d="M33.8948 35.6982L36.4597 33.1165L63.1703 33.1308V177.278C63.1703 177.278 64.2386 177.278 61.8785 177.278C56.8953 177.278 50.832 169.545 50.832 169.545L50.192 125.264L45.649 118.996L45.5555 100.673L42.2054 89.3862L41.3897 77.5353L39.5083 52.9985L33.8948 35.6982ZM92.7369 35.6982L87.1234 52.9985L85.242 77.5353L84.4262 89.3862L81.0762 100.673L80.9827 118.996L76.4397 125.264L75.7996 169.545C75.7996 169.545 69.7363 177.278 64.7532 177.278C62.3931 177.278 63.1703 177.278 63.1703 177.278V33.1308L90.172 33.1165L92.7369 35.6982Z" fill="#ADADAD"/>
</g>
<defs>
<clipPath id="clip0_507_16">
<rect width="128" height="128" fill="white"/>
</clipPath>
</defs>
</svg>
