<?xml version="1.0" encoding="UTF-8"?>
<svg width="128px" height="128px" viewBox="0 0 128 128" version="1.1" xmlns="http://www.w3.org/2000/svg" xmlns:xlink="http://www.w3.org/1999/xlink">
    <!-- Generator: Sketch 43.1 (39012) - http://www.bohemiancoding.com/sketch -->
    <title>Untitled</title>
    <desc>Created with Sketch.</desc>
    <defs></defs>
    <g id="Page-1" stroke="none" stroke-width="1" fill="none" fill-rule="evenodd">
        <g id="head_microthreaded__false">
            <polygon id="Path" fill="#CACACA" points="19.6084344 76.6976938 21.7680547 79.3405203 19.6084344 81.1527283 19.6084344 101.088094 12.5756699 108.050164 19.6084344 115.643307 12.2405712 123.146455 20.25365 130.17967 12.3878768 139.26222 20.25365 146.68417 12.5756699 154.924693 21.0513399 163.114211 12.5756699 170.823486 22.2306459 177.794897 13.369914 185.271516 21.7680547 193.798669 13.8661012 200.590331 21.5673401 209.242473 13.369914 216.238154 22.1600082 224.085506 13.3905885 232.184626 21.7146457 239.679503 13.7894334 246.967756 21.6982784 254.40273 15.0867562 261.093685 24.2843097 269.130297 19.647199 274.944404 28.7207057 285.479598 24.2843097 290.81518 29.189202 299.881569 25.4092247 306.289411 31.8467266 316.583086 27.9544752 321.368291 34.432021 331.424911 39.2986981 334.56606 63.6061895 334.56606 63.6061895 29.3870595 24.2843097 29.3870595 19.6084344 32.1150906"></polygon>
            <polygon id="Path-Copy-3" fill="#CACACA" transform="translate(88.554959, 181.976560) scale(-1, 1) translate(-88.554959, -181.976560) " points="70.2400133 76.6976938 72.3996337 79.3405203 70.2400133 81.1527283 70.2400133 101.088094 63.2072488 108.050164 70.2400133 115.643307 62.8721502 123.146455 70.885229 130.17967 63.0194558 139.26222 70.885229 146.68417 63.2072488 154.924693 71.6829188 163.114211 63.2072488 170.823486 72.8622249 177.794897 64.0014929 185.271516 72.3996337 193.798669 64.4976801 200.590331 72.1989191 209.242473 64.0014929 216.238154 72.7915871 224.085506 64.0221674 232.184626 72.3462246 239.679503 64.4210123 246.967756 72.3298574 254.40273 65.7183351 261.093685 74.9158886 269.130297 70.278778 274.944404 79.3522846 285.479598 74.9158886 290.81518 79.820781 299.881569 76.0408037 306.289411 82.4783056 316.583086 78.5860542 321.368291 85.0636 331.424911 89.930277 334.56606 114.237768 334.56606 114.237768 29.3870595 74.9158886 29.3870595 70.2400133 32.1150906"></polygon>
            <path d="M32.8947368,35.6983109 L35.4596671,33.1165919 L62.1702912,33.1309655 C62.1702912,33.1309655 62.1702912,177.278543 62.1702912,177.278543 C62.1702912,177.278543 63.2385156,177.278543 60.8784328,177.278543 C55.8952778,177.278543 49.8319825,169.544759 49.8319825,169.544759 L49.191959,125.263974 L44.6489209,118.995709 L44.5554162,100.673466 L41.205369,89.3863666 L40.3896212,77.5354805 L38.5082424,52.9985898 L32.8947368,35.6983109 Z M91.7368421,35.6983109 L86.1233366,52.9985898 L84.2419578,77.5354805 L83.42621,89.3863666 L80.0761627,100.673466 L79.982658,118.995709 L75.4396199,125.263974 L74.7995965,169.544759 C74.7995965,169.544759 68.7363011,177.278543 63.7531461,177.278543 C61.3930633,177.278543 62.1702912,177.278543 62.1702912,177.278543 C62.1702912,177.278543 62.1702912,33.1309655 62.1702912,33.1309655 L89.1719118,33.1165919 L91.7368421,35.6983109 Z" id="Combined-Shape-Copy-3" fill="#ADADAD"></path>
            <path d="M22.5,33.5 L22.5,74.5" id="Line-Copy-6" stroke="#0465CE" stroke-width="7" stroke-linecap="round"></path>
        </g>
    </g>
</svg>