<?xml version="1.0" encoding="UTF-8"?>
<svg width="128px" height="128px" viewBox="0 0 128 128" version="1.1" xmlns="http://www.w3.org/2000/svg" xmlns:xlink="http://www.w3.org/1999/xlink">
    <!-- Generator: Sketch 43.1 (39012) - http://www.bohemiancoding.com/sketch -->
    <title>Untitled</title>
    <desc>Created with Sketch.</desc>
    <defs></defs>
    <g id="Page-1" stroke="none" stroke-width="1" fill="none" fill-rule="evenodd">
        <g id="head_shape_flared" transform="translate(7.000000, 19.000000)">
            <polygon id="Path" fill="#CACACA" points="0.689700137 9.86371572 24.290779 44.4803982 24.290779 46.9874758 24.290779 52.5347877 19.1514511 57.6084531 24.290779 63.1420179 18.9065713 68.6099982 24.7622827 73.7355111 19.0142177 80.3544934 24.7622827 85.7633006 19.1514511 91.7686491 25.3452099 97.736827 19.1514511 103.355024 26.2070105 108.435497 19.7318602 113.884144 25.8689631 120.098376 20.0944586 125.047856 25.722287 131.353175 19.7318602 136.451335 26.1553906 142.170157 19.7469685 148.072457 25.8299334 153.534409 20.0384321 158.845783 25.8179727 164.264081 20.9864757 169.140169 27.7077647 174.996916 24.319107 179.233994 30.9497465 186.911603 27.7077647 190.799952 31.2921092 197.407156 28.5298181 202.076924 33.2341464 209.578524 30.3898088 213.06578 35.1234 220.394625 38.6798178 222.683763 56.4429847 222.683763 56.4429847 0.282072779 27.7077647 0.282072779 14.9021877 0.282072779 2.67415316 0.282072779 0.689700137 2.00594627"></polygon>
            <polygon id="Path-Copy" fill="#CACACA" transform="translate(83.566342, 111.482918) scale(-1, 1) translate(-83.566342, -111.482918) " points="55.6897001 9.86371572 79.290779 44.4803982 79.290779 46.9874758 79.290779 52.5347877 74.1514511 57.6084531 79.290779 63.1420179 73.9065713 68.6099982 79.7622827 73.7355111 74.0142177 80.3544934 79.7622827 85.7633006 74.1514511 91.7686491 80.3452099 97.736827 74.1514511 103.355024 81.2070105 108.435497 74.7318602 113.884144 80.8689631 120.098376 75.0944586 125.047856 80.722287 131.353175 74.7318602 136.451335 81.1553906 142.170157 74.7469685 148.072457 80.8299334 153.534409 75.0384321 158.845783 80.8179727 164.264081 75.9864757 169.140169 82.7077647 174.996916 79.319107 179.233994 85.9497465 186.911603 82.7077647 190.799952 86.2921092 197.407156 83.5298181 202.076924 88.2341464 209.578524 85.3898088 213.06578 90.1234 220.394625 93.6798178 222.683763 111.442985 222.683763 111.442985 0.282072779 82.7077647 0.282072779 69.9021877 0.282072779 57.6741532 0.282072779 55.6897001 2.00594627"></polygon>
            <path d="M28,4.47278858 L30.4634878,2 L56.1177115,2.01376707 C56.1177115,2.01376707 56.1177115,140.079332 56.1177115,140.079332 C56.1177115,140.079332 57.1436878,140.079332 54.8769458,140.079332 C50.0908737,140.079332 44.2673806,132.671859 44.2673806,132.671859 L43.65267,90.2594111 L39.2893082,84.2556236 L39.1995016,66.70645 L35.9819481,55.8955864 L35.198463,44.5447243 L33.3914924,21.0431176 L28,4.47278858 Z M84.5149106,4.47278858 L79.1234182,21.0431176 L77.3164476,44.5447243 L76.5329625,55.8955864 L73.315409,66.70645 L73.2256024,84.2556236 L68.8622406,90.2594111 L68.24753,132.671859 C68.24753,132.671859 62.4240369,140.079332 57.6379648,140.079332 C55.3712228,140.079332 56.1177115,140.079332 56.1177115,140.079332 C56.1177115,140.079332 56.1177115,2.01376707 56.1177115,2.01376707 L82.0514228,2 L84.5149106,4.47278858 Z" id="Combined-Shape" fill="#ADADAD"></path>
            <path d="M1.5,7.5 L24.5,43.5" id="Line" stroke="#0465CE" stroke-width="7" stroke-linecap="round"></path>
            <path d="M87.5,7.5 L110.5,43.5" id="Line-Copy" stroke="#0465CE" stroke-width="7" stroke-linecap="round" transform="translate(99.000000, 25.500000) scale(-1, 1) translate(-99.000000, -25.500000) "></path>
        </g>
    </g>
</svg>