<?xml version="1.0" encoding="UTF-8"?>
<svg width="128px" height="128px" viewBox="0 0 128 128" version="1.1" xmlns="http://www.w3.org/2000/svg" xmlns:xlink="http://www.w3.org/1999/xlink">
    <!-- Generator: Sketch 43.1 (39012) - http://www.bohemiancoding.com/sketch -->
    <title>Untitled</title>
    <desc>Created with Sketch.</desc>
    <defs></defs>
    <g id="Page-1" stroke="none" stroke-width="1" fill="none" fill-rule="evenodd">
        <g id="level__bone_level" transform="translate(0.000000, 34.000000)">
            <rect id="Rectangle-2" fill="#F6CEAA" x="0" y="41.1237259" width="128" height="52.8762741"></rect>
            <rect id="Rectangle-2-Copy" fill="#F08F8D" x="0" y="0" width="128" height="41.1237259"></rect>
            <path d="M125.5,44.5585578 L3,44.5" id="Line" stroke="#0465CE" stroke-width="7" stroke-linecap="round"></path>
            <polygon id="Path" fill="#CACACA" points="32.3842077 75.4780113 33.9623918 77.4039927 32.3842077 78.724654 32.3842077 93.2527149 27.2448798 98.3263804 32.3842077 103.859945 27 109.327925 32.8557114 114.453438 27.1076464 121.072421 32.8557114 126.481228 27.2448798 132.486576 33.4386386 138.454754 27.2448798 144.072951 34.3004392 149.153424 27.8252889 154.602071 33.9623918 160.816303 28.1878873 165.765783 33.8157157 172.071102 27.8252889 177.169262 34.2488193 182.888084 27.8403972 188.790384 33.9233621 194.252336 28.1318608 199.56371 33.9114014 204.982008 29.0799044 209.858096 35.8011935 215.714843 32.4125357 219.951921 39.0431752 227.62953 35.8011935 231.517879 39.3855379 238.125084 36.6232468 242.794851 41.3275751 250.296451 38.4832375 253.783708 43.2168287 261.112552 46.7732465 263.40169 64.5364134 263.40169 64.5364134 41 35.8011935 41 32.3842077 42.9880749"></polygon>
            <polygon id="Path-Copy-3" fill="#CACACA" transform="translate(82.768207, 152.200845) scale(-1, 1) translate(-82.768207, -152.200845) " points="69.3842077 75.4780113 70.9623918 77.4039927 69.3842077 78.724654 69.3842077 93.2527149 64.2448798 98.3263804 69.3842077 103.859945 64 109.327925 69.8557114 114.453438 64.1076464 121.072421 69.8557114 126.481228 64.2448798 132.486576 70.4386386 138.454754 64.2448798 144.072951 71.3004392 149.153424 64.8252889 154.602071 70.9623918 160.816303 65.1878873 165.765783 70.8157157 172.071102 64.8252889 177.169262 71.2488193 182.888084 64.8403972 188.790384 70.9233621 194.252336 65.1318608 199.56371 70.9114014 204.982008 66.0799044 209.858096 72.8011935 215.714843 69.4125357 219.951921 76.0431752 227.62953 72.8011935 231.517879 76.3855379 238.125084 73.6232468 242.794851 78.3275751 250.296451 75.4832375 253.783708 80.2168287 261.112552 83.7732465 263.40169 101.536413 263.40169 101.536413 41 72.8011935 41 69.3842077 42.9880749"></polygon>
            <path d="M43,44.8814488 L47.1021771,57.4891684 L48.4770309,75.370628 L49.0731543,84.007058 L51.5212657,92.2326241 L51.5895961,105.585109 L54.9095085,110.153157 L55.377218,142.423141 C55.377218,142.423141 59.8080876,148.059199 63.449624,148.059199 C65.1742999,148.059199 64.3936743,148.059199 64.3936743,148.059199 C64.3936743,148.059199 64.3936743,43.0104748 64.3936743,43.0104748 L44.8743721,43 L43,44.8814488 Z" id="Path-2" fill="#ADADAD"></path>
            <path d="M85.6958877,44.8814488 L81.5937106,57.4891684 L80.2188569,75.370628 L79.6227335,84.007058 L77.174622,92.2326241 L77.1062917,105.585109 L73.7863792,110.153157 L73.3186698,142.423141 C73.3186698,142.423141 68.8878001,148.059199 65.2462638,148.059199 C63.5215879,148.059199 64.0895621,148.059199 64.0895621,148.059199 C64.0895621,148.059199 64.0895621,43.0104748 64.0895621,43.0104748 L83.8215156,43 L85.6958877,44.8814488 Z" id="Path-2" fill="#ADADAD"></path>
        </g>
    </g>
</svg>