<?xml version="1.0" encoding="utf-8"?>
<!-- Generator: Adobe Illustrator 24.2.1, SVG Export Plug-In . SVG Version: 6.00 Build 0)  -->
<svg version="1.1" id="Layer_1" xmlns="http://www.w3.org/2000/svg" xmlns:xlink="http://www.w3.org/1999/xlink" x="0px" y="0px"
	 viewBox="0 0 88 88" style="enable-background:new 0 0 88 88;" xml:space="preserve">
<style type="text/css">
	.st0{fill:#F1E8F4;}
	.st1{fill:#4C4C9B;}
</style>
<g>
	<path class="st0" d="M6,0h76c3.31,0,6,2.69,6,6v76c0,3.31-2.69,6-6,6H6c-3.31,0-6-2.69-6-6V6C0,2.69,2.69,0,6,0z"/>
	<path class="st1" d="M13.66,14.28v1.54H6.48l-0.09-1.2l4.15-6.58h1.57l-1.7,2.84l-2.06,3.4H13.66z M12.53,8.05V18h-1.97V8.05H12.53
		z M21.42,12.15v1.72c0,0.75-0.08,1.39-0.24,1.93c-0.16,0.54-0.39,0.98-0.69,1.33c-0.3,0.34-0.65,0.6-1.06,0.76
		c-0.41,0.16-0.87,0.25-1.37,0.25c-0.4,0-0.77-0.05-1.12-0.15c-0.35-0.1-0.66-0.27-0.94-0.48c-0.27-0.22-0.51-0.49-0.71-0.83
		c-0.2-0.34-0.35-0.74-0.45-1.2c-0.11-0.46-0.16-1-0.16-1.6v-1.72c0-0.75,0.08-1.39,0.24-1.92c0.16-0.54,0.39-0.98,0.69-1.32
		c0.3-0.34,0.66-0.59,1.07-0.75c0.41-0.16,0.86-0.25,1.37-0.25c0.4,0,0.77,0.05,1.11,0.16c0.35,0.1,0.66,0.26,0.94,0.47
		c0.28,0.21,0.52,0.49,0.71,0.83c0.2,0.33,0.35,0.73,0.45,1.2C21.37,11.02,21.42,11.55,21.42,12.15z M19.45,14.13v-2.25
		c0-0.36-0.02-0.67-0.06-0.94c-0.04-0.27-0.09-0.5-0.17-0.68c-0.08-0.19-0.17-0.35-0.29-0.46c-0.11-0.12-0.24-0.21-0.39-0.26
		c-0.15-0.05-0.31-0.08-0.48-0.08c-0.22,0-0.42,0.04-0.6,0.13c-0.17,0.09-0.31,0.23-0.43,0.42c-0.12,0.19-0.21,0.44-0.27,0.75
		c-0.06,0.31-0.09,0.69-0.09,1.13v2.25c0,0.36,0.02,0.68,0.05,0.95c0.04,0.27,0.1,0.51,0.18,0.7c0.08,0.19,0.18,0.35,0.29,0.47
		c0.11,0.12,0.24,0.21,0.39,0.26c0.15,0.05,0.32,0.08,0.49,0.08c0.22,0,0.41-0.04,0.58-0.13c0.17-0.09,0.32-0.23,0.44-0.42
		c0.12-0.2,0.21-0.45,0.27-0.77C19.42,14.96,19.45,14.58,19.45,14.13z"/>
	<path class="st1" d="M46.54,45.28V48H32.72v-2.72H46.54z M46.23,30.21L33.99,48h-2.3v-2.17l12.28-17.73h2.26V30.21z M44.96,28.09
		v2.73H31.78v-2.73H44.96z M52.5,36.02V48h-3.29V33.21h3.14L52.5,36.02z M57.03,33.11L57,36.17c-0.2-0.04-0.42-0.06-0.66-0.08
		c-0.23-0.02-0.46-0.03-0.68-0.03c-0.57,0-1.06,0.08-1.49,0.25c-0.43,0.15-0.79,0.38-1.08,0.68c-0.28,0.29-0.5,0.65-0.66,1.07
		c-0.15,0.42-0.25,0.89-0.27,1.41l-0.75,0.05c0-0.93,0.09-1.79,0.27-2.58c0.18-0.79,0.46-1.49,0.82-2.09
		c0.37-0.6,0.84-1.07,1.39-1.41c0.57-0.34,1.22-0.51,1.96-0.51c0.2,0,0.41,0.02,0.64,0.05C56.73,33.02,56.91,33.07,57.03,33.11z"/>
	<path class="st1" d="M25.46,64.16V65h-5.3v-0.84H25.46z M25.29,57.93L20.41,65h-0.64v-0.77l4.87-7.05h0.64V57.93z M24.85,57.18
		v0.85h-5.01v-0.85H24.85z M27.74,59.19V65h-1v-5.81H27.74z M26.66,57.65c0-0.16,0.05-0.3,0.15-0.41c0.1-0.11,0.25-0.17,0.44-0.17
		c0.19,0,0.33,0.06,0.44,0.17c0.1,0.11,0.15,0.25,0.15,0.41c0,0.15-0.05,0.29-0.15,0.4c-0.1,0.11-0.25,0.16-0.44,0.16
		c-0.19,0-0.34-0.05-0.44-0.16C26.71,57.93,26.66,57.8,26.66,57.65z M30.33,60.1V65h-0.99v-5.81h0.97L30.33,60.1z M32.14,59.16
		l-0.01,0.92c-0.08-0.02-0.16-0.03-0.24-0.03c-0.07-0.01-0.15-0.01-0.25-0.01c-0.23,0-0.43,0.04-0.61,0.11
		c-0.18,0.07-0.32,0.17-0.45,0.3s-0.22,0.28-0.29,0.46c-0.07,0.18-0.11,0.37-0.13,0.58l-0.28,0.16c0-0.35,0.03-0.68,0.1-0.99
		c0.07-0.31,0.18-0.58,0.33-0.82c0.15-0.24,0.33-0.43,0.56-0.56c0.23-0.14,0.5-0.2,0.82-0.2c0.07,0,0.15,0.01,0.25,0.03
		C32.04,59.12,32.11,59.14,32.14,59.16z M35.28,64.29c0.24,0,0.45-0.05,0.66-0.14c0.2-0.1,0.36-0.23,0.49-0.4
		c0.13-0.17,0.2-0.37,0.22-0.59h0.95c-0.02,0.34-0.13,0.66-0.35,0.96c-0.21,0.29-0.49,0.53-0.83,0.71
		c-0.34,0.18-0.72,0.27-1.13,0.27c-0.44,0-0.82-0.08-1.14-0.23c-0.32-0.15-0.59-0.37-0.8-0.63c-0.21-0.27-0.37-0.58-0.48-0.92
		c-0.1-0.35-0.16-0.72-0.16-1.11v-0.23c0-0.39,0.05-0.76,0.16-1.11c0.11-0.35,0.27-0.66,0.48-0.93c0.21-0.27,0.48-0.48,0.8-0.63
		c0.33-0.15,0.71-0.23,1.14-0.23c0.45,0,0.85,0.09,1.19,0.28c0.34,0.18,0.61,0.43,0.8,0.75c0.2,0.32,0.3,0.67,0.32,1.08h-0.95
		c-0.02-0.24-0.09-0.46-0.2-0.65c-0.11-0.19-0.27-0.35-0.47-0.46c-0.2-0.12-0.43-0.18-0.69-0.18c-0.3,0-0.56,0.06-0.77,0.18
		c-0.2,0.12-0.37,0.28-0.49,0.48c-0.12,0.2-0.2,0.43-0.26,0.67c-0.05,0.24-0.08,0.49-0.08,0.75v0.23c0,0.25,0.03,0.51,0.08,0.75
		c0.05,0.25,0.13,0.47,0.25,0.67c0.12,0.2,0.28,0.36,0.49,0.48C34.71,64.23,34.97,64.29,35.28,64.29z M38.45,62.16v-0.12
		c0-0.42,0.06-0.81,0.18-1.17c0.12-0.36,0.3-0.67,0.53-0.94c0.23-0.27,0.51-0.48,0.83-0.62c0.33-0.15,0.69-0.23,1.1-0.23
		c0.41,0,0.78,0.08,1.1,0.23c0.33,0.15,0.61,0.35,0.84,0.62c0.23,0.27,0.41,0.58,0.53,0.94c0.12,0.36,0.18,0.75,0.18,1.17v0.12
		c0,0.42-0.06,0.81-0.18,1.17c-0.12,0.36-0.3,0.67-0.53,0.94c-0.23,0.26-0.51,0.47-0.83,0.62c-0.32,0.15-0.69,0.22-1.1,0.22
		c-0.41,0-0.77-0.07-1.1-0.22c-0.33-0.15-0.61-0.36-0.84-0.62c-0.23-0.27-0.4-0.58-0.53-0.94S38.45,62.58,38.45,62.16z M39.44,62.04
		v0.12c0,0.29,0.03,0.56,0.1,0.82c0.07,0.25,0.17,0.48,0.31,0.68c0.14,0.2,0.31,0.35,0.52,0.47c0.21,0.11,0.45,0.17,0.73,0.17
		c0.27,0,0.51-0.05,0.71-0.17c0.21-0.11,0.38-0.27,0.52-0.47c0.14-0.2,0.24-0.42,0.31-0.68c0.07-0.26,0.11-0.53,0.11-0.82v-0.12
		c0-0.29-0.04-0.56-0.11-0.81c-0.07-0.26-0.17-0.48-0.31-0.68c-0.14-0.2-0.31-0.36-0.52-0.47c-0.2-0.11-0.44-0.17-0.72-0.17
		c-0.27,0-0.51,0.06-0.72,0.17c-0.2,0.11-0.38,0.27-0.52,0.47c-0.14,0.2-0.24,0.42-0.31,0.68C39.47,61.48,39.44,61.75,39.44,62.04z
		 M45.98,60.43V65h-0.99v-5.81h0.94L45.98,60.43z M45.74,61.87l-0.41-0.02c0-0.4,0.06-0.77,0.18-1.1c0.11-0.34,0.28-0.64,0.48-0.89
		c0.21-0.25,0.45-0.44,0.74-0.58c0.29-0.14,0.61-0.21,0.96-0.21c0.29,0,0.54,0.04,0.77,0.12c0.23,0.07,0.42,0.2,0.59,0.36
		c0.16,0.17,0.29,0.39,0.38,0.66c0.09,0.26,0.13,0.59,0.13,0.97V65h-1v-3.82c0-0.3-0.04-0.55-0.13-0.73
		c-0.09-0.19-0.22-0.32-0.39-0.4c-0.17-0.09-0.38-0.13-0.63-0.13c-0.25,0-0.47,0.05-0.68,0.16c-0.2,0.1-0.37,0.25-0.52,0.43
		c-0.14,0.18-0.26,0.39-0.34,0.63C45.78,61.37,45.74,61.61,45.74,61.87z M52.14,59.19V65h-1v-5.81H52.14z M51.07,57.65
		c0-0.16,0.05-0.3,0.15-0.41c0.1-0.11,0.25-0.17,0.44-0.17c0.19,0,0.34,0.06,0.43,0.17c0.1,0.11,0.16,0.25,0.16,0.41
		c0,0.15-0.05,0.29-0.16,0.4c-0.1,0.11-0.24,0.16-0.43,0.16c-0.19,0-0.34-0.05-0.44-0.16C51.12,57.93,51.07,57.8,51.07,57.65z
		 M57.29,63.66v-4.47h1V65h-0.95L57.29,63.66z M57.48,62.43l0.41-0.01c0,0.39-0.04,0.74-0.12,1.07c-0.08,0.33-0.21,0.61-0.39,0.85
		c-0.18,0.24-0.41,0.43-0.7,0.56c-0.29,0.13-0.64,0.2-1.06,0.2c-0.28,0-0.54-0.04-0.78-0.12c-0.23-0.08-0.43-0.21-0.6-0.38
		c-0.17-0.17-0.3-0.4-0.39-0.67c-0.09-0.28-0.14-0.61-0.14-0.99v-3.75h0.99v3.76c0,0.26,0.03,0.48,0.09,0.65
		c0.06,0.17,0.14,0.3,0.24,0.4c0.1,0.1,0.22,0.16,0.34,0.2c0.13,0.04,0.26,0.06,0.4,0.06c0.42,0,0.76-0.08,1-0.24
		c0.25-0.16,0.43-0.38,0.53-0.66C57.43,63.08,57.48,62.77,57.48,62.43z M60.8,60.34V65h-1v-5.81h0.95L60.8,60.34z M60.59,61.87
		l-0.46-0.02c0-0.4,0.06-0.77,0.16-1.1c0.1-0.34,0.25-0.64,0.45-0.89c0.2-0.25,0.44-0.44,0.74-0.58c0.29-0.14,0.63-0.21,1.02-0.21
		c0.27,0,0.52,0.04,0.75,0.12c0.23,0.07,0.43,0.2,0.6,0.36c0.17,0.17,0.3,0.38,0.39,0.63c0.09,0.26,0.14,0.57,0.14,0.93V65h-0.99
		v-3.82c0-0.3-0.05-0.55-0.16-0.73c-0.1-0.18-0.24-0.32-0.43-0.4c-0.19-0.09-0.4-0.13-0.65-0.13c-0.29,0-0.54,0.05-0.74,0.16
		c-0.2,0.1-0.36,0.25-0.47,0.43c-0.12,0.18-0.2,0.39-0.26,0.63C60.62,61.37,60.59,61.61,60.59,61.87z M64.36,61.33l-0.67,0.2
		c0-0.32,0.06-0.63,0.16-0.92c0.1-0.29,0.25-0.55,0.45-0.78c0.2-0.23,0.44-0.41,0.73-0.54c0.29-0.14,0.61-0.2,0.98-0.2
		c0.31,0,0.59,0.04,0.83,0.12c0.24,0.08,0.45,0.21,0.61,0.38c0.17,0.17,0.3,0.39,0.38,0.65c0.09,0.27,0.13,0.58,0.13,0.95V65h-1
		v-3.83c0-0.33-0.05-0.58-0.16-0.76c-0.1-0.18-0.24-0.31-0.43-0.38c-0.18-0.08-0.4-0.11-0.65-0.11c-0.22,0-0.41,0.04-0.58,0.11
		c-0.17,0.07-0.31,0.18-0.42,0.31c-0.11,0.13-0.2,0.28-0.26,0.45C64.39,60.96,64.36,61.14,64.36,61.33z"/>
	<path class="st1" d="M34.54,73.28V79h-0.72v-4.82l-1.46,0.53v-0.65l2.07-0.78H34.54z M40.34,73.31v0.41L37.99,79h-0.76l2.35-5.09
		H36.5v-0.59H40.34z M44.75,77.46c0,0.35-0.08,0.64-0.24,0.88c-0.16,0.24-0.38,0.42-0.65,0.55c-0.27,0.13-0.58,0.19-0.92,0.19
		s-0.65-0.06-0.92-0.19c-0.27-0.13-0.49-0.31-0.65-0.55c-0.16-0.24-0.24-0.54-0.24-0.88c0-0.23,0.04-0.43,0.13-0.62
		c0.09-0.19,0.21-0.36,0.37-0.5c0.16-0.14,0.35-0.25,0.57-0.32c0.22-0.08,0.46-0.12,0.73-0.12c0.35,0,0.66,0.07,0.93,0.2
		c0.27,0.13,0.49,0.32,0.64,0.55C44.67,76.89,44.75,77.16,44.75,77.46z M44.03,77.45c0-0.21-0.05-0.4-0.14-0.56
		c-0.09-0.16-0.22-0.29-0.38-0.38s-0.35-0.14-0.57-0.14c-0.22,0-0.41,0.05-0.57,0.14c-0.16,0.09-0.28,0.22-0.37,0.38
		c-0.09,0.16-0.13,0.35-0.13,0.56c0,0.22,0.04,0.41,0.13,0.56c0.09,0.15,0.21,0.27,0.38,0.36c0.16,0.08,0.36,0.12,0.58,0.12
		s0.42-0.04,0.58-0.12c0.16-0.08,0.29-0.2,0.37-0.36C43.98,77.85,44.03,77.66,44.03,77.45z M44.62,74.79c0,0.28-0.07,0.52-0.22,0.75
		c-0.15,0.22-0.35,0.4-0.6,0.52c-0.25,0.13-0.54,0.19-0.86,0.19c-0.33,0-0.62-0.06-0.87-0.19c-0.25-0.13-0.45-0.3-0.59-0.52
		c-0.14-0.22-0.21-0.47-0.21-0.75c0-0.33,0.07-0.61,0.21-0.84c0.15-0.23,0.35-0.41,0.6-0.53c0.25-0.12,0.54-0.18,0.86-0.18
		c0.33,0,0.61,0.06,0.87,0.18c0.25,0.12,0.45,0.3,0.59,0.53C44.55,74.18,44.62,74.46,44.62,74.79z M43.9,74.8
		c0-0.19-0.04-0.36-0.12-0.5c-0.08-0.15-0.19-0.26-0.34-0.34c-0.14-0.09-0.31-0.13-0.5-0.13c-0.19,0-0.36,0.04-0.5,0.12
		c-0.14,0.08-0.25,0.19-0.33,0.34c-0.08,0.15-0.12,0.32-0.12,0.52c0,0.2,0.04,0.37,0.12,0.51c0.08,0.15,0.19,0.26,0.34,0.34
		c0.14,0.08,0.31,0.12,0.5,0.12s0.36-0.04,0.5-0.12c0.14-0.08,0.26-0.19,0.34-0.34C43.86,75.17,43.9,75,43.9,74.8z M45.76,78.62
		c0-0.12,0.04-0.23,0.11-0.31c0.08-0.09,0.19-0.13,0.34-0.13s0.26,0.04,0.33,0.13c0.08,0.08,0.12,0.19,0.12,0.31
		c0,0.12-0.04,0.22-0.12,0.3c-0.08,0.08-0.19,0.13-0.33,0.13s-0.26-0.04-0.34-0.13C45.8,78.84,45.76,78.74,45.76,78.62z
		 M51.62,77.09v0.59h-4.11v-0.43l2.55-3.94h0.59l-0.63,1.14l-1.68,2.63H51.62z M50.83,73.31V79h-0.72v-5.69H50.83z M53,78.39h0.07
		c0.42,0,0.76-0.06,1.02-0.18s0.46-0.27,0.6-0.47c0.14-0.2,0.24-0.42,0.29-0.67c0.05-0.25,0.08-0.51,0.08-0.77v-0.87
		c0-0.26-0.03-0.49-0.09-0.69c-0.06-0.2-0.14-0.37-0.24-0.5c-0.1-0.14-0.22-0.24-0.35-0.31c-0.13-0.07-0.27-0.11-0.41-0.11
		c-0.17,0-0.32,0.03-0.45,0.1c-0.13,0.07-0.24,0.16-0.33,0.28c-0.09,0.12-0.16,0.26-0.2,0.42c-0.05,0.16-0.07,0.34-0.07,0.53
		c0,0.17,0.02,0.33,0.06,0.49c0.04,0.16,0.11,0.3,0.19,0.43s0.19,0.23,0.32,0.3c0.13,0.07,0.28,0.11,0.46,0.11
		c0.16,0,0.31-0.03,0.45-0.09c0.14-0.07,0.27-0.15,0.38-0.26c0.11-0.11,0.2-0.24,0.27-0.38c0.07-0.14,0.11-0.29,0.12-0.44h0.34
		c0,0.22-0.04,0.43-0.13,0.64c-0.08,0.21-0.2,0.4-0.35,0.57s-0.33,0.31-0.53,0.41c-0.2,0.1-0.42,0.15-0.66,0.15
		c-0.28,0-0.52-0.05-0.73-0.16c-0.21-0.11-0.38-0.26-0.51-0.44c-0.13-0.18-0.23-0.39-0.29-0.61c-0.06-0.23-0.09-0.46-0.09-0.69
		c0-0.27,0.04-0.52,0.11-0.76c0.08-0.24,0.19-0.45,0.34-0.63c0.15-0.18,0.33-0.32,0.55-0.43c0.22-0.1,0.48-0.15,0.77-0.15
		c0.33,0,0.6,0.07,0.83,0.2c0.23,0.13,0.42,0.3,0.56,0.52c0.15,0.22,0.25,0.46,0.32,0.74c0.07,0.27,0.1,0.55,0.1,0.84v0.26
		c0,0.29-0.02,0.59-0.06,0.9c-0.04,0.3-0.11,0.59-0.21,0.87c-0.1,0.28-0.26,0.52-0.46,0.74c-0.2,0.22-0.46,0.39-0.79,0.52
		c-0.32,0.13-0.72,0.19-1.19,0.19H53V78.39z"/>
</g>
</svg>
