<?xml version="1.0" encoding="utf-8"?>
<!-- Generator: Adobe Illustrator 24.2.1, SVG Export Plug-In . SVG Version: 6.00 Build 0)  -->
<svg version="1.1" id="Layer_1" xmlns="http://www.w3.org/2000/svg" xmlns:xlink="http://www.w3.org/1999/xlink" x="0px" y="0px"
	 viewBox="0 0 88 88" style="enable-background:new 0 0 88 88;" xml:space="preserve">
<style type="text/css">
	.st0{fill:#F1E8F4;}
	.st1{fill:#4C4C9B;}
</style>
<g>
	<path class="st0" d="M6,0h76c3.31,0,6,2.69,6,6v76c0,3.31-2.69,6-6,6H6c-3.31,0-6-2.69-6-6V6C0,2.69,2.69,0,6,0z"/>
	<path class="st1" d="M13.49,16.46V18H6.68v-1.31l3.22-3.45c0.32-0.36,0.58-0.68,0.77-0.95c0.19-0.28,0.32-0.53,0.4-0.74
		c0.09-0.22,0.13-0.43,0.13-0.64c0-0.3-0.05-0.56-0.15-0.77c-0.1-0.22-0.25-0.39-0.45-0.51c-0.19-0.12-0.43-0.18-0.71-0.18
		c-0.3,0-0.56,0.07-0.78,0.22c-0.21,0.15-0.38,0.35-0.49,0.61c-0.11,0.26-0.16,0.55-0.16,0.88H6.48c0-0.59,0.14-1.14,0.42-1.63
		c0.28-0.5,0.68-0.89,1.2-1.18C8.62,8.05,9.23,7.9,9.94,7.9c0.7,0,1.29,0.11,1.76,0.34c0.48,0.22,0.85,0.55,1.09,0.97
		c0.25,0.42,0.38,0.92,0.38,1.5c0,0.33-0.05,0.65-0.16,0.96c-0.11,0.31-0.26,0.62-0.45,0.93c-0.19,0.31-0.42,0.62-0.7,0.93
		c-0.27,0.31-0.58,0.64-0.91,0.98l-1.73,1.94H13.49z M21.53,16.46V18h-6.81v-1.31l3.22-3.45c0.32-0.36,0.58-0.68,0.77-0.95
		c0.19-0.28,0.32-0.53,0.4-0.74c0.09-0.22,0.13-0.43,0.13-0.64c0-0.3-0.05-0.56-0.15-0.77c-0.1-0.22-0.25-0.39-0.45-0.51
		c-0.19-0.12-0.43-0.18-0.71-0.18c-0.3,0-0.56,0.07-0.78,0.22c-0.21,0.15-0.38,0.35-0.49,0.61c-0.11,0.26-0.16,0.55-0.16,0.88h-1.98
		c0-0.59,0.14-1.14,0.42-1.63c0.28-0.5,0.68-0.89,1.2-1.18c0.52-0.3,1.13-0.44,1.83-0.44c0.7,0,1.29,0.11,1.76,0.34
		c0.48,0.22,0.85,0.55,1.09,0.97c0.25,0.42,0.38,0.92,0.38,1.5c0,0.33-0.05,0.65-0.16,0.96c-0.11,0.31-0.26,0.62-0.45,0.93
		c-0.19,0.31-0.42,0.62-0.7,0.93c-0.27,0.31-0.58,0.64-0.91,0.98l-1.73,1.94H21.53z"/>
	<path class="st1" d="M42.11,28.09V48h-3.4V28.09H42.11z M48.36,28.09v2.73H32.52v-2.73H48.36z M54.19,33.21V48h-3.31V33.21H54.19z
		 M50.66,29.32c0-0.5,0.16-0.92,0.49-1.24c0.34-0.34,0.8-0.51,1.4-0.51c0.58,0,1.04,0.17,1.38,0.51c0.34,0.33,0.51,0.74,0.51,1.24
		c0,0.49-0.17,0.9-0.51,1.23s-0.8,0.49-1.38,0.49c-0.59,0-1.06-0.16-1.4-0.49C50.82,30.23,50.66,29.82,50.66,29.32z"/>
	<path class="st1" d="M26.15,57.18V65h-1.02v-7.82H26.15z M28.67,57.18v0.85h-6.04v-0.85H28.67z M30.76,59.19V65h-1v-5.81H30.76z
		 M29.68,57.65c0-0.16,0.05-0.3,0.14-0.41c0.1-0.11,0.25-0.17,0.44-0.17c0.19,0,0.34,0.06,0.43,0.17c0.1,0.11,0.16,0.25,0.16,0.41
		c0,0.15-0.05,0.29-0.16,0.4c-0.1,0.11-0.24,0.16-0.43,0.16c-0.19,0-0.34-0.05-0.44-0.16C29.73,57.93,29.68,57.8,29.68,57.65z
		 M34.78,59.19v0.76h-3.14v-0.76H34.78z M32.7,57.78h0.99v5.79c0,0.2,0.03,0.35,0.09,0.45c0.06,0.1,0.14,0.17,0.24,0.2
		c0.1,0.03,0.2,0.05,0.31,0.05c0.08,0,0.17-0.01,0.26-0.02c0.09-0.02,0.16-0.03,0.21-0.04L34.81,65c-0.08,0.02-0.18,0.05-0.31,0.07
		c-0.13,0.02-0.28,0.04-0.46,0.04c-0.24,0-0.47-0.05-0.67-0.14c-0.2-0.1-0.37-0.26-0.49-0.48c-0.12-0.23-0.18-0.54-0.18-0.92V57.78z
		 M39.38,64.01v-2.99c0-0.23-0.05-0.43-0.14-0.6c-0.09-0.17-0.23-0.3-0.41-0.4c-0.18-0.09-0.41-0.14-0.68-0.14
		c-0.25,0-0.47,0.04-0.66,0.13c-0.19,0.09-0.33,0.2-0.44,0.34c-0.1,0.14-0.16,0.29-0.16,0.45H35.9c0-0.21,0.05-0.41,0.16-0.62
		c0.11-0.2,0.26-0.39,0.46-0.55c0.2-0.17,0.45-0.3,0.73-0.4c0.29-0.1,0.61-0.15,0.96-0.15c0.42,0,0.8,0.07,1.12,0.21
		c0.33,0.14,0.58,0.36,0.76,0.65c0.19,0.29,0.28,0.65,0.28,1.08v2.71c0,0.19,0.02,0.4,0.05,0.62c0.04,0.22,0.09,0.41,0.16,0.56V65
		h-1.04c-0.05-0.11-0.09-0.27-0.12-0.46C39.39,64.35,39.38,64.17,39.38,64.01z M39.55,61.48l0.01,0.7h-1
		c-0.28,0-0.54,0.02-0.76,0.07c-0.22,0.04-0.41,0.11-0.56,0.2c-0.15,0.09-0.27,0.2-0.34,0.34c-0.08,0.13-0.12,0.29-0.12,0.47
		c0,0.18,0.04,0.35,0.12,0.5c0.08,0.15,0.21,0.27,0.37,0.36c0.17,0.09,0.37,0.13,0.62,0.13c0.3,0,0.57-0.06,0.8-0.19
		c0.23-0.13,0.42-0.29,0.55-0.47c0.14-0.19,0.21-0.37,0.22-0.54l0.42,0.48c-0.02,0.15-0.09,0.32-0.2,0.5
		c-0.11,0.18-0.26,0.36-0.44,0.53c-0.18,0.16-0.4,0.3-0.66,0.41c-0.25,0.11-0.53,0.16-0.85,0.16c-0.39,0-0.74-0.08-1.04-0.23
		c-0.29-0.15-0.52-0.36-0.69-0.62c-0.16-0.26-0.24-0.55-0.24-0.88c0-0.31,0.06-0.58,0.18-0.82c0.12-0.24,0.3-0.44,0.53-0.6
		c0.23-0.16,0.51-0.28,0.83-0.36c0.32-0.08,0.68-0.12,1.08-0.12H39.55z M42.93,60.43V65h-0.99v-5.81h0.94L42.93,60.43z M42.69,61.87
		l-0.41-0.02c0-0.4,0.06-0.77,0.18-1.1c0.11-0.34,0.28-0.64,0.48-0.89c0.21-0.25,0.45-0.44,0.74-0.58c0.29-0.14,0.61-0.21,0.96-0.21
		c0.29,0,0.54,0.04,0.77,0.12c0.23,0.07,0.42,0.2,0.58,0.36c0.17,0.17,0.29,0.39,0.38,0.66c0.09,0.26,0.13,0.59,0.13,0.97V65h-1
		v-3.82c0-0.3-0.04-0.55-0.13-0.73c-0.09-0.19-0.22-0.32-0.39-0.4c-0.17-0.09-0.38-0.13-0.63-0.13c-0.25,0-0.47,0.05-0.68,0.16
		c-0.2,0.1-0.37,0.25-0.52,0.43c-0.14,0.18-0.26,0.39-0.34,0.63C42.73,61.37,42.69,61.61,42.69,61.87z M49.09,59.19V65h-1v-5.81
		H49.09z M48.02,57.65c0-0.16,0.05-0.3,0.14-0.41c0.1-0.11,0.25-0.17,0.44-0.17c0.19,0,0.33,0.06,0.43,0.17
		c0.1,0.11,0.16,0.25,0.16,0.41c0,0.15-0.05,0.29-0.16,0.4c-0.1,0.11-0.24,0.16-0.43,0.16c-0.19,0-0.34-0.05-0.44-0.16
		C48.07,57.93,48.02,57.8,48.02,57.65z M54.24,63.66v-4.47h1V65h-0.95L54.24,63.66z M54.43,62.43l0.41-0.01
		c0,0.39-0.04,0.74-0.12,1.07c-0.08,0.33-0.21,0.61-0.39,0.85c-0.18,0.24-0.41,0.43-0.7,0.56c-0.29,0.13-0.64,0.2-1.06,0.2
		c-0.28,0-0.54-0.04-0.78-0.12c-0.23-0.08-0.43-0.21-0.6-0.38c-0.17-0.17-0.3-0.4-0.39-0.67c-0.09-0.28-0.13-0.61-0.13-0.99v-3.75
		h0.99v3.76c0,0.26,0.03,0.48,0.09,0.65c0.06,0.17,0.14,0.3,0.24,0.4c0.1,0.1,0.22,0.16,0.34,0.2c0.13,0.04,0.26,0.06,0.4,0.06
		c0.42,0,0.76-0.08,1-0.24c0.25-0.16,0.43-0.38,0.53-0.66C54.38,63.08,54.43,62.77,54.43,62.43z M57.74,60.34V65h-1v-5.81h0.95
		L57.74,60.34z M57.54,61.87l-0.46-0.02c0-0.4,0.05-0.77,0.15-1.1c0.1-0.34,0.25-0.64,0.45-0.89c0.2-0.25,0.44-0.44,0.74-0.58
		c0.29-0.14,0.63-0.21,1.02-0.21c0.27,0,0.52,0.04,0.75,0.12c0.23,0.07,0.43,0.2,0.6,0.36c0.17,0.17,0.3,0.38,0.39,0.63
		s0.14,0.57,0.14,0.93V65h-0.99v-3.82c0-0.3-0.05-0.55-0.16-0.73c-0.1-0.18-0.24-0.32-0.43-0.4c-0.19-0.09-0.4-0.13-0.65-0.13
		c-0.29,0-0.54,0.05-0.74,0.16c-0.2,0.1-0.35,0.25-0.47,0.43c-0.12,0.18-0.2,0.39-0.26,0.63C57.57,61.37,57.54,61.61,57.54,61.87z
		 M61.31,61.33l-0.67,0.2c0-0.32,0.05-0.63,0.15-0.92c0.1-0.29,0.25-0.55,0.45-0.78c0.2-0.23,0.44-0.41,0.73-0.54
		c0.29-0.14,0.61-0.2,0.98-0.2c0.31,0,0.59,0.04,0.83,0.12c0.24,0.08,0.45,0.21,0.61,0.38c0.17,0.17,0.29,0.39,0.38,0.65
		c0.09,0.27,0.13,0.58,0.13,0.95V65h-1v-3.83c0-0.33-0.05-0.58-0.16-0.76c-0.1-0.18-0.24-0.31-0.43-0.38
		c-0.18-0.08-0.4-0.11-0.65-0.11c-0.22,0-0.41,0.04-0.58,0.11c-0.17,0.07-0.31,0.18-0.42,0.31c-0.11,0.13-0.2,0.28-0.26,0.45
		C61.33,60.96,61.31,61.14,61.31,61.33z"/>
	<path class="st1" d="M36.01,77.09v0.59H31.9v-0.43l2.55-3.94h0.59l-0.63,1.14l-1.68,2.63H36.01z M35.22,73.31V79H34.5v-5.69H35.22z
		 M40.34,73.31v0.41L37.99,79h-0.76l2.35-5.09H36.5v-0.59H40.34z M41.26,78.62c0-0.12,0.04-0.23,0.11-0.31
		c0.08-0.09,0.19-0.13,0.34-0.13s0.26,0.04,0.33,0.13c0.08,0.08,0.12,0.19,0.12,0.31c0,0.12-0.04,0.22-0.12,0.3
		c-0.08,0.08-0.19,0.13-0.33,0.13s-0.26-0.04-0.34-0.13C41.3,78.84,41.26,78.74,41.26,78.62z M46.86,77.46
		c0,0.35-0.08,0.64-0.24,0.88c-0.16,0.24-0.38,0.42-0.65,0.55c-0.27,0.13-0.58,0.19-0.92,0.19s-0.65-0.06-0.92-0.19
		c-0.27-0.13-0.49-0.31-0.65-0.55c-0.16-0.24-0.24-0.54-0.24-0.88c0-0.23,0.04-0.43,0.13-0.62c0.09-0.19,0.21-0.36,0.37-0.5
		c0.16-0.14,0.35-0.25,0.57-0.32c0.22-0.08,0.46-0.12,0.73-0.12c0.35,0,0.66,0.07,0.93,0.2c0.27,0.13,0.49,0.32,0.64,0.55
		C46.78,76.89,46.86,77.16,46.86,77.46z M46.14,77.45c0-0.21-0.05-0.4-0.14-0.56c-0.09-0.16-0.22-0.29-0.38-0.38
		s-0.35-0.14-0.57-0.14c-0.22,0-0.41,0.05-0.57,0.14c-0.16,0.09-0.28,0.22-0.37,0.38c-0.09,0.16-0.13,0.35-0.13,0.56
		c0,0.22,0.04,0.41,0.13,0.56c0.09,0.15,0.21,0.27,0.38,0.36c0.16,0.08,0.36,0.12,0.58,0.12s0.42-0.04,0.58-0.12
		c0.16-0.08,0.29-0.2,0.37-0.36C46.09,77.85,46.14,77.66,46.14,77.45z M46.73,74.79c0,0.28-0.07,0.52-0.22,0.75s-0.35,0.4-0.6,0.52
		c-0.25,0.13-0.54,0.19-0.86,0.19c-0.33,0-0.62-0.06-0.87-0.19c-0.25-0.13-0.45-0.3-0.59-0.52s-0.21-0.47-0.21-0.75
		c0-0.33,0.07-0.61,0.21-0.84c0.15-0.23,0.35-0.41,0.6-0.53c0.25-0.12,0.54-0.18,0.86-0.18c0.33,0,0.61,0.06,0.87,0.18
		s0.45,0.3,0.59,0.53C46.66,74.18,46.73,74.46,46.73,74.79z M46.01,74.8c0-0.19-0.04-0.36-0.12-0.5c-0.08-0.15-0.19-0.26-0.34-0.34
		c-0.14-0.09-0.31-0.13-0.5-0.13s-0.36,0.04-0.5,0.12c-0.14,0.08-0.25,0.19-0.33,0.34c-0.08,0.15-0.12,0.32-0.12,0.52
		c0,0.2,0.04,0.37,0.12,0.51c0.08,0.15,0.19,0.26,0.34,0.34c0.14,0.08,0.31,0.12,0.5,0.12s0.36-0.04,0.5-0.12
		c0.14-0.08,0.26-0.19,0.34-0.34C45.97,75.17,46.01,75,46.01,74.8z M50.55,73.3h0.06v0.61h-0.06c-0.38,0-0.7,0.06-0.96,0.19
		c-0.26,0.12-0.46,0.29-0.61,0.5c-0.15,0.21-0.26,0.44-0.33,0.7c-0.07,0.26-0.1,0.52-0.1,0.79v0.84c0,0.25,0.03,0.48,0.09,0.67
		c0.06,0.19,0.14,0.36,0.25,0.49s0.22,0.23,0.35,0.3c0.13,0.07,0.27,0.1,0.41,0.1c0.17,0,0.32-0.03,0.45-0.09
		c0.13-0.07,0.24-0.15,0.33-0.27c0.09-0.12,0.16-0.26,0.21-0.41s0.07-0.33,0.07-0.52c0-0.17-0.02-0.33-0.06-0.49
		c-0.04-0.16-0.11-0.3-0.19-0.42c-0.09-0.13-0.19-0.22-0.32-0.29c-0.13-0.07-0.28-0.11-0.46-0.11c-0.2,0-0.39,0.05-0.56,0.15
		c-0.17,0.1-0.31,0.22-0.43,0.38c-0.11,0.16-0.17,0.33-0.19,0.51l-0.38,0c0.04-0.29,0.1-0.54,0.2-0.75c0.1-0.21,0.23-0.38,0.38-0.51
		c0.15-0.13,0.32-0.23,0.5-0.29c0.19-0.06,0.39-0.09,0.59-0.09c0.28,0,0.53,0.05,0.73,0.16c0.21,0.11,0.38,0.25,0.51,0.43
		c0.13,0.18,0.23,0.38,0.29,0.6c0.07,0.22,0.1,0.45,0.1,0.68c0,0.27-0.04,0.52-0.11,0.75c-0.08,0.23-0.19,0.44-0.34,0.62
		c-0.15,0.18-0.33,0.32-0.55,0.41s-0.47,0.15-0.76,0.15c-0.31,0-0.58-0.06-0.8-0.19c-0.23-0.13-0.42-0.3-0.57-0.51
		s-0.26-0.45-0.34-0.7c-0.08-0.26-0.11-0.52-0.11-0.79v-0.34c0-0.4,0.04-0.79,0.12-1.18c0.08-0.39,0.22-0.73,0.42-1.05
		c0.2-0.31,0.48-0.56,0.83-0.75S50,73.3,50.55,73.3z M55.95,73.31v0.41L53.6,79h-0.76l2.35-5.09h-3.08v-0.59H55.95z"/>
</g>
</svg>
