<?xml version="1.0" encoding="UTF-8"?>
<svg width="128px" height="128px" viewBox="0 0 128 128" version="1.1" xmlns="http://www.w3.org/2000/svg" xmlns:xlink="http://www.w3.org/1999/xlink">
    <!-- Generator: Sketch 43.1 (39012) - http://www.bohemiancoding.com/sketch -->
    <title>Untitled</title>
    <desc>Created with Sketch.</desc>
    <defs></defs>
    <g id="Page-1" stroke="none" stroke-width="1" fill="none" fill-rule="evenodd">
        <g id="head_shape"></g>
        <g id="connection_type__custom" transform="translate(17.000000, -28.000000)">
            <polygon id="Path" fill="#CACACA" points="0 98.4290119 10.1009682 113.96476 9.99205321 119.947141 16.4371878 125.613708 11.5515723 130.446915 16.4371878 135.718226 11.3187815 140.92706 16.8854149 145.809657 11.4211137 152.114944 16.8854149 157.26741 11.5515723 162.988144 17.4395649 168.67347 11.5515723 174.025402 18.2588211 178.865094 12.1033285 184.055511 17.937462 189.97523 12.4480265 194.690137 17.7980269 200.696626 12.1033285 205.553167 18.2097495 211.000955 12.1176909 216.623525 17.9003591 221.826617 12.3947659 226.886267 17.8889888 232.047774 13.2960076 236.692768 19.6854878 242.271943 16.4641174 246.308212 22.7674231 253.621953 19.6854878 257.32602 23.0928845 263.620087 20.466959 268.068539 24.9390495 275.214613 22.2351279 278.536597 26.7350366 285.518102 30.1158853 287.69875 47.0021407 287.69875 47.0021407 80.7674676 24.9390495 76.5792813 24.9390495 87 16.8854149 87 3.37872217 87 0.0148758675 90.9141057"></polygon>
            <polygon id="Path-Copy-5" fill="#CACACA" transform="translate(69.501070, 182.139016) scale(-1, 1) translate(-69.501070, -182.139016) " points="46 98.4290119 56.1009682 113.96476 55.9920532 119.947141 62.4371878 125.613708 57.5515723 130.446915 62.4371878 135.718226 57.3187815 140.92706 62.8854149 145.809657 57.4211137 152.114944 62.8854149 157.26741 57.5515723 162.988144 63.4395649 168.67347 57.5515723 174.025402 64.2588211 178.865094 58.1033285 184.055511 63.937462 189.97523 58.4480265 194.690137 63.7980269 200.696626 58.1033285 205.553167 64.2097495 211.000955 58.1176909 216.623525 63.9003591 221.826617 58.3947659 226.886267 63.8889888 232.047774 59.2960076 236.692768 65.6854878 242.271943 62.4641174 246.308212 68.7674231 253.621953 65.6854878 257.32602 69.0928845 263.620087 66.466959 268.068539 70.9390495 275.214613 68.2351279 278.536597 72.7350366 285.518102 76.1158853 287.69875 93.0021407 287.69875 93.0021407 80.7674676 70.9390495 76.5792813 70.9390495 87 62.8854149 87 49.3787222 87 46.0148759 90.9141057"></polygon>
            <path d="M25.0831265,102.414944 L25.0831265,118.1406 L26.8008927,140.528387 L27.5456996,151.341293 L30.6044126,161.639794 L30.6897857,178.357253 L34.8377421,184.076501 L35.4221064,224.47888 C35.4221064,224.47888 40.9581121,231.535287 45.5079109,231.535287 C47.662751,231.535287 46.9531141,231.535287 46.9531141,231.535287 C46.9531141,231.535287 46.9531141,96.1575043 46.9531141,96.1575043 L25.0831265,96.1575043 L25.0831265,102.414944 Z" id="Path-2" fill="#ADADAD"></path>
            <path d="M46,102.25744 L46,117.983096 L47.7177662,140.370882 L48.4625731,151.183789 L51.5212861,161.482289 L51.6066593,178.199749 L55.7546156,183.918996 L56.33898,224.321376 C56.33898,224.321376 61.8749856,231.377783 66.4247845,231.377783 C68.5796245,231.377783 67.8699877,231.377783 67.8699877,231.377783 C67.8699877,231.377783 67.8699877,96 67.8699877,96 L46,96 L46,102.25744 Z" id="Path-2-Copy" fill="#ADADAD" transform="translate(56.990944, 163.688892) scale(-1, 1) translate(-56.990944, -163.688892) "></path>
        </g>
        <circle id="Oval" stroke="#0E64D1" stroke-width="4" fill="#CACACA" cx="63.5" cy="34.5" r="26.5"></circle>
    </g>
</svg>