<svg width="128" height="128" viewBox="0 0 128 128" fill="none" xmlns="http://www.w3.org/2000/svg">
<g clip-path="url(#clip0_202_26)">
<path fill-rule="evenodd" clip-rule="evenodd" d="M14.2521 65.386L16.6709 68.1447L14.2521 70.0364V90.8463L6.37531 98.1137L14.2521 106.04L6 113.872L14.9747 121.214L6.16498 130.695L14.9747 138.442L6.37531 147.044L15.8681 155.593L6.37531 163.641L17.189 170.918L7.26487 178.722L16.6709 187.624L7.82061 194.713L16.4461 203.745L7.26487 211.048L17.1099 219.239L7.28803 227.693L16.6111 235.517L7.73474 243.125L16.5927 250.886L9.18775 257.871L19.4891 266.26L14.2955 272.329L24.4579 283.326L19.4891 288.896L24.9826 298.36L20.749 305.049L27.9591 315.794L23.5997 320.789L30.8546 331.287L36.3054 334.566H63.53V16H19.4891L14.2521 18.8477V65.386Z" fill="#CACACA"/>
<path fill-rule="evenodd" clip-rule="evenodd" d="M111.986 65.386L109.567 68.1447L111.986 70.0364V90.8463L119.862 98.1137L111.986 106.04L120.238 113.872L111.263 121.214L120.073 130.695L111.263 138.442L119.862 147.044L110.37 155.593L119.862 163.641L109.049 170.918L118.973 178.722L109.567 187.624L118.417 194.713L109.792 203.745L118.973 211.048L109.128 219.239L118.95 227.693L109.627 235.517L118.503 243.125L109.645 250.886L117.05 257.871L106.749 266.26L111.942 272.329L101.78 283.326L106.749 288.896L101.255 298.36L105.489 305.049L98.2787 315.794L102.638 320.789L95.3832 331.287L89.9324 334.566H62.7078V16H106.749L111.986 18.8477V65.386Z" fill="#CACACA"/>
<path fill-rule="evenodd" clip-rule="evenodd" d="M29.1328 22.588L32.0056 19.8931L61.9217 19.9081V170.379C61.9217 170.379 63.1181 170.379 60.4748 170.379C54.8936 170.379 48.1027 162.306 48.1027 162.306L47.3859 116.083L42.2976 109.539L42.1929 90.4134L38.4408 78.6312L37.5272 66.2604L35.42 40.6472L29.1328 22.588ZM95.0365 22.588L88.7493 40.6472L86.6422 66.2604L85.7285 78.6312L81.9764 90.4134L81.8717 109.539L76.7835 116.083L76.0666 162.306C76.0666 162.306 69.2757 170.379 63.6945 170.379C61.0512 170.379 61.9217 170.379 61.9217 170.379V19.9081L92.1638 19.8931L95.0365 22.588Z" fill="#ADADAD"/>
<path d="M83 68L97 23" stroke="#0465CE" stroke-width="7" stroke-linecap="round"/>
<path d="M41 68L27 23" stroke="#0465CE" stroke-width="7" stroke-linecap="round"/>
</g>
<defs>
<clipPath id="clip0_202_26">
<rect width="128" height="128" fill="white"/>
</clipPath>
</defs>
</svg>
