<?xml version="1.0" encoding="UTF-8"?>
<svg width="250px" height="250px" viewBox="0 0 250 250" version="1.1" xmlns="http://www.w3.org/2000/svg" xmlns:xlink="http://www.w3.org/1999/xlink">
    <!-- Generator: Sketch 43.1 (39012) - http://www.bohemiancoding.com/sketch -->
    <title>Artboard</title>
    <desc>Created with Sketch.</desc>
    <defs></defs>
    <g id="Page-1" stroke="none" stroke-width="1" fill="none" fill-rule="evenodd">
        <g id="Artboard">
            <g id="kind__narrow" transform="translate(105.000000, 8.000000)">
                <polygon id="Path-3" fill="#ADADAD" points="20 26.297619 5.55555556 26.297619 5.72594195 40.0996871 0 40.2857143 0 56.5119048 4.44444444 61.547619 4.44444444 72.1785714 7.22222222 73.297619 7.22222222 77.7738095 4.44444444 79.452381 7.22222222 81.1309524 7.22222222 90.0833333 4.44444444 91.202381 7.22222222 92.8809524 7.22222222 104.071429 4.44444444 106.309524 7.22222222 108.547619 7.22222222 114.702381 7.22222222 116.940476 4.44444444 119.178571 7.22222222 120.857143 7.22222222 130.541024 4.44444444 132.607143 7.22222222 134.845238 7.22222222 144.916667 4.44444444 146.035714 7.22222222 147.714286 7.22222222 155.547619 7.22222222 158.132074 4.44444444 160.02381 7.22222222 161.702381 7.22222222 171.317083 5.55555556 172.892857 7.77777778 175.690476 9.78639332 185.437479 7.77777778 186.880952 10.4391862 188.60522 11.4658388 198.071429 9.48642144 199.610894 12.0781028 201.042499 13.8888889 211.5 11.4658388 212.967022 14.4475267 214.210844 16.6666667 224.928571 14.7647954 226.177911 16.6666667 227.296958 18.8888889 234.440476 20 235"></polygon>
                <polygon id="Path-3-Copy" fill="#ADADAD" transform="translate(30.000000, 130.648810) scale(-1, 1) translate(-30.000000, -130.648810) " points="40 26.297619 25.5555556 26.297619 25.725942 40.0996871 20 40.2857143 20 56.5119048 24.4444444 61.547619 24.4444444 72.1785714 27.2222222 73.297619 27.2222222 77.7738095 24.4444444 79.452381 27.2222222 81.1309524 27.2222222 90.0833333 24.4444444 91.202381 27.2222222 92.8809524 27.2222222 104.071429 24.4444444 106.309524 27.2222222 108.547619 27.2222222 114.702381 27.2222222 116.940476 24.4444444 119.178571 27.2222222 120.857143 27.2222222 130.541024 24.4444444 132.607143 27.2222222 134.845238 27.2222222 144.916667 24.4444444 146.035714 27.2222222 147.714286 27.2222222 155.547619 27.2222222 158.132074 24.4444444 160.02381 27.2222222 161.702381 27.2222222 171.317083 25.5555556 172.892857 27.7777778 175.690476 29.7863933 185.437479 27.7777778 186.880952 30.4391862 188.60522 31.4658388 198.071429 29.4864214 199.610894 32.0781028 201.042499 33.8888889 211.5 31.4658388 212.967022 34.4475267 214.210844 36.6666667 224.928571 34.7647954 226.177911 36.6666667 227.296958 38.8888889 234.440476 40 235"></polygon>
                <ellipse id="Oval" fill="#CACACA" cx="20" cy="17.9047619" rx="17.7777778" ry="17.9047619"></ellipse>
            </g>
        </g>
    </g>
</svg>