<?xml version="1.0" encoding="UTF-8"?>
<svg width="250px" height="250px" viewBox="0 0 250 250" version="1.1" xmlns="http://www.w3.org/2000/svg" xmlns:xlink="http://www.w3.org/1999/xlink">
    <!-- Generator: Sketch 43.1 (39012) - http://www.bohemiancoding.com/sketch -->
    <title>Artboard</title>
    <desc>Created with Sketch.</desc>
    <defs></defs>
    <g id="Page-1" stroke="none" stroke-width="1" fill="none" fill-rule="evenodd">
        <g id="Artboard" fill-rule="nonzero">
            <g id="kind__standard" transform="translate(73.000000, 21.000000)">
                <polygon id="Path" fill="#CACACA" points="0 11.8838979 11.1633699 28.0379839 11.0429994 34.2584695 18.1660218 40.1505716 12.766546 45.1761455 18.1660218 50.6572594 12.5092706 56.0734105 18.6613926 61.1503403 12.622366 67.7065834 18.6613926 73.0641224 12.766546 79.0125482 19.273827 84.9241557 12.766546 90.4890998 20.1792511 95.5214169 13.3763349 100.918418 19.8240921 107.073747 13.7572876 111.976312 19.6699914 118.221865 13.3763349 123.271701 20.1250183 128.936316 13.3922079 134.78267 19.7830868 140.192851 13.6984251 145.45388 19.7705206 150.820819 14.6944578 155.650688 21.7559721 161.451921 18.1957837 165.648838 25.1620599 173.253673 21.7559721 177.105165 25.5217526 183.649743 22.619637 188.275247 27.562094 195.705741 24.5737788 199.159944 29.5469798 206.41932 33.2834201 208.686761 51.9457416 208.686761 51.9457416 0 21.3500395 0 8.05015344 2.01065505 0.0164404845 4.06989102"></polygon>
                <polygon id="Path" fill="#CACACA" transform="translate(77.871507, 104.343380) scale(-1, 1) translate(-77.871507, -104.343380) " points="51.8986365 11.8838979 63.0620065 28.0379839 62.9416359 34.2584695 70.0646582 40.1505716 64.6651825 45.1761455 70.0646582 50.6572594 64.4079071 56.0734105 70.5600291 61.1503403 64.5210024 67.7065834 70.5600291 73.0641224 64.6651825 79.0125482 71.1724635 84.9241557 64.6651825 90.4890998 72.0778876 95.5214169 65.2749714 100.918418 71.7227286 107.073747 65.6559242 111.976312 71.5686279 118.221865 65.2749714 123.271701 72.0236548 128.936316 65.2908444 134.78267 71.6817232 140.192851 65.5970617 145.45388 71.6691571 150.820819 66.5930943 155.650688 73.6546087 161.451921 70.0944202 165.648838 77.0606964 173.253673 73.6546087 177.105165 77.4203892 183.649743 74.5182735 188.275247 79.4607304 195.705741 76.4724152 199.159944 81.4456163 206.41932 85.1820566 208.686761 103.844378 208.686761 103.844378 0 73.2486761 0 59.94879 2.01065505 51.915077 4.06989102"></polygon>
                <path d="M22.0569201,2.44934982 L27.7213247,18.8626141 L29.6197624,42.1414568 L30.4429069,53.3847278 L33.8233298,64.0931188 L33.9176824,81.4759495 L38.5019134,87.422829 L39.1477401,129.433263 C39.1477401,129.433263 45.2660128,136.770522 50.2943514,136.770522 L51.8915585,136.770522 L51.8915585,0.0136365765 L24.6451073,0 L22.0569201,2.44934982 Z" id="Path-2" fill="#ADADAD"></path>
                <path d="M50.7248395,2.44934982 L56.3892442,18.8626141 L58.2876819,42.1414568 L59.1108263,53.3847278 L62.4912493,64.0931188 L62.5856019,81.4759495 L67.1698328,87.422829 L67.8156596,129.433263 C67.8156596,129.433263 73.9339323,136.770522 78.9622709,136.770522 L80.5594779,136.770522 L80.5594779,0.0136365765 L53.3130267,0 L50.7248395,2.44934982 Z" id="Path-2" fill="#ADADAD" transform="translate(65.642159, 68.385261) scale(-1, 1) translate(-65.642159, -68.385261) "></path>
            </g>
        </g>
    </g>
</svg>