<?xml version="1.0" encoding="UTF-8"?>
<svg width="128px" height="128px" viewBox="0 0 128 128" version="1.1" xmlns="http://www.w3.org/2000/svg" xmlns:xlink="http://www.w3.org/1999/xlink">
    <!-- Generator: Sketch 43.1 (39012) - http://www.bohemiancoding.com/sketch -->
    <title>Untitled</title>
    <desc>Created with Sketch.</desc>
    <defs></defs>
    <g id="Page-1" stroke="none" stroke-width="1" fill="none" fill-rule="evenodd">
        <g id="body_shape__tapered_apex" transform="translate(0.000000, -82.000000)">
            <polygon id="Path" fill="#CACACA" points="18 11.3721511 27.9848651 26.8306066 27.877202 32.7832244 34.2482547 38.4215997 29.4187956 43.2307613 34.2482547 48.4758463 29.1886805 53.6587661 34.6913297 58.5170721 29.2898365 64.790989 34.6913297 69.9178205 29.4187956 75.6100939 35.2391101 81.2671346 29.4187956 86.5924397 36.0489496 91.4080542 29.9642098 96.5726482 35.7312843 102.462916 30.3049458 107.154365 35.5934518 113.130971 29.9642098 117.96335 36.000442 123.384035 29.9784071 128.978632 35.6946078 134.155838 30.2522973 139.190316 35.6833683 144.326143 31.1431799 148.948027 37.4592179 154.499446 34.2748747 158.515634 40.5057286 165.792988 37.4592179 169.478627 40.827449 175.74138 38.2317066 180.1677 42.6523937 187.278221 41.7525055 189.791059 44.4277373 197.53045 47.7697257 199.700249 64.4618862 199.700249 64.4618862 0 37.0961391 0 25.2003075 1.92407182 18.0147049 3.89463256"></polygon>
            <polygon id="Path" fill="#CACACA" transform="translate(87.650696, 99.850125) scale(-1, 1) translate(-87.650696, -99.850125) " points="64.4197531 11.3721511 74.4046182 26.8306066 74.2969551 32.7832244 80.6680077 38.4215997 75.8385487 43.2307613 80.6680077 48.4758463 75.6084336 53.6587661 81.1110828 58.5170721 75.7095896 64.790989 81.1110828 69.9178205 75.8385487 75.6100939 81.6588632 81.2671346 75.8385487 86.5924397 82.4687027 91.4080542 76.3839629 96.5726482 82.1510374 102.462916 76.7246988 107.154365 82.0132049 113.130971 76.3839629 117.96335 82.4201951 123.384035 76.3981602 128.978632 82.1143609 134.155838 76.6720504 139.190316 82.1031214 144.326143 77.562933 148.948027 83.8789709 154.499446 80.6946277 158.515634 86.9254817 165.792988 83.8789709 169.478627 87.2472021 175.74138 84.6514597 180.1677 89.0721468 187.278221 86.3993048 190.583678 90.8474904 197.53045 94.1894788 199.700249 110.881639 199.700249 110.881639 0 83.5158922 0 71.6200606 1.92407182 64.434458 3.89463256"></polygon>
            <path d="M37.7283951,2.34387543 L42.7948147,18.0503484 L44.4928364,40.3267529 L45.2290823,51.0858639 L48.2526378,61.333128 L48.3370296,77.9674157 L52.4373083,83.6582096 L53.0149558,123.859582 C53.0149558,123.859582 58.4873292,130.880883 62.9848315,130.880883 C65.1149033,130.880883 64.4134232,130.880883 64.4134232,130.880883 C64.4134232,130.880883 64.4134232,0.0130493555 64.4134232,0.0130493555 L40.0433501,0 L37.7283951,2.34387543 Z" id="Path-2" fill="#ADADAD"></path>
            <path d="M63.2592593,2.34387543 L68.3256789,18.0503484 L70.0237006,40.3267529 L70.7599465,51.0858639 L73.783502,61.333128 L73.8678938,77.9674157 L77.9681725,83.6582096 L78.54582,123.859582 C78.54582,123.859582 84.0181934,130.880883 88.5156957,130.880883 C90.6457675,130.880883 89.9442874,130.880883 89.9442874,130.880883 C89.9442874,130.880883 89.9442874,0.0130493555 89.9442874,0.0130493555 L65.5742143,0 L63.2592593,2.34387543 Z" id="Path-2" fill="#ADADAD" transform="translate(76.657080, 65.440441) scale(-1, 1) translate(-76.657080, -65.440441) "></path>
            <path d="M31.2230969,148.924506 L37.5081623,154.54321 L34.4427253,158.46648 L40.617452,165.859134 L37.6429029,169.59454 L40.9028474,175.857143 L38.3470198,180.17801 L44.5510995,187.407829 L41.570831,189.334876 L44.5510995,197.675512 L47.8502991,199.669593 L56.7445933,199.669593 C56.7445933,199.669593 57.3633529,199.383958 57.3633529,198.266719 C57.3633529,198.042367 57.3633529,196.431227 57.2397031,193.750057 C56.9232302,186.887795 56.7445933,173.236495 52.5882509,163.533126 C48.4319085,153.829756 35.7300108,144.301767 35.7300108,144.301767 L31.2230969,148.924506 Z" id="Path-3" fill="#AEAEAE"></path>
            <path d="M71.614829,148.924506 L77.8998945,154.54321 L74.8344574,158.46648 L81.0091841,165.859134 L78.0346351,169.59454 L81.2945795,175.857143 L78.7387519,180.17801 L83.2028742,187.334042 L80.4825994,190.601223 L84.9428316,197.675512 L88.2420312,199.669593 L97.1363254,199.669593 C97.1363254,199.669593 97.7550851,199.383958 97.7550851,198.266719 C97.7550851,198.042367 97.7550851,196.431227 97.6314352,193.750057 C97.3149624,186.887795 97.1363254,173.236495 92.979983,163.533126 C88.8236406,153.829756 76.1217429,144.301767 76.1217429,144.301767 L71.614829,148.924506 Z" id="Path-3-Copy" fill="#AEAEAE" transform="translate(84.684957, 171.985680) scale(-1, 1) translate(-84.684957, -171.985680) "></path>
            <polyline id="Line" stroke="#0465CE" stroke-width="7" stroke-linecap="round" points="32.5 35.5 32.5 146.482109 47 197"></polyline>
        </g>
    </g>
</svg>