<?xml version="1.0" encoding="UTF-8"?>
<svg width="128px" height="128px" viewBox="0 0 128 128" version="1.1" xmlns="http://www.w3.org/2000/svg" xmlns:xlink="http://www.w3.org/1999/xlink">
    <!-- Generator: Sketch 43.1 (39012) - http://www.bohemiancoding.com/sketch -->
    <title>Untitled</title>
    <desc>Created with Sketch.</desc>
    <defs></defs>
    <g id="Page-1" stroke="none" stroke-width="1" fill="none" fill-rule="evenodd">
        <g id="level__tissue_level" transform="translate(0.000000, 30.000000)">
            <rect id="Rectangle-2" fill="#F6CEAA" x="0" y="45.1237259" width="128" height="52.8762741"></rect>
            <rect id="Rectangle-2-Copy" fill="#F08F8D" x="0" y="4" width="128" height="41.1237259"></rect>
            <path d="M125.5,6.55855781 L3,6.5" id="Line" stroke="#0465CE" stroke-width="7" stroke-linecap="round"></path>
            <polygon id="Path" fill="#CACACA" points="17 10.8604043 32.6039795 38.6232293 32.511206 44.3079793 38.0011556 49.6926277 33.8396005 54.285377 38.0011556 59.2944332 33.6413098 64.2441216 38.3829543 68.8838039 33.7284762 74.8753945 38.3829543 79.7715186 33.8396005 85.2076397 38.8549779 90.6101136 33.8396005 95.69578 39.5528182 100.294692 34.309585 105.226879 39.2790854 110.852085 34.6031979 115.332419 39.1603149 121.040078 34.309585 125.655 39.5110192 130.831753 34.3218189 136.174593 39.2474812 141.118825 34.5578307 145.926752 39.2377961 150.831466 35.3255061 155.245366 40.7680494 160.546971 38.0240941 164.382431 43.3932342 171.332304 40.7680494 174.852089 43.6704614 180.833018 41.4337046 185.060154 45.2430201 191.850701 42.9398264 195.007413 46.7728375 201.64158 49.652636 203.713738 64.0363062 203.713738 64.0363062 0 33.4551837 0 23.2045203 1.83748859 17.0126712 3.71937409"></polygon>
            <polygon id="Path-Copy-9" fill="#CACACA" transform="translate(87.518153, 101.856869) scale(-1, 1) translate(-87.518153, -101.856869) " points="64 10.8604043 79.6039795 38.6232293 79.511206 44.3079793 85.0011556 49.6926277 80.8396005 54.285377 85.0011556 59.2944332 80.6413098 64.2441216 85.3829543 68.8838039 80.7284762 74.8753945 85.3829543 79.7715186 80.8396005 85.2076397 85.8549779 90.6101136 80.8396005 95.69578 86.5528182 100.294692 81.309585 105.226879 86.2790854 110.852085 81.6031979 115.332419 86.1603149 121.040078 81.309585 125.655 86.5110192 130.831753 81.3218189 136.174593 86.2474812 141.118825 81.5578307 145.926752 86.2377961 150.831466 82.3255061 155.245366 87.7680494 160.546971 85.0240941 164.382431 90.3932342 171.332304 87.7680494 174.852089 90.6704614 180.833018 88.4337046 185.060154 92.2430201 191.850701 89.9398264 195.007413 93.7728375 201.64158 96.652636 203.713738 111.036306 203.713738 111.036306 0 80.4551837 0 70.2045203 1.83748859 64.0126712 3.71937409"></polygon>
            <path d="M42,5.23840104 L46.3657446,20.2380827 L47.8289335,41.512049 L48.4633582,51.787 L51.0687623,61.5731372 L51.1414829,77.458882 L54.6747018,82.8935901 L55.1724619,121.285901 C55.1724619,121.285901 59.8880177,127.991243 63.763525,127.991243 C65.5990124,127.991243 64.9945455,127.991243 64.9945455,127.991243 C64.9945455,127.991243 64.9945455,3.01246213 64.9945455,3.01246213 L43.9948017,3 L42,5.23840104 Z" id="Path-2" fill="#ADADAD"></path>
            <path d="M63,5.23840104 L67.3657446,20.2380827 L68.8289335,41.512049 L69.4633582,51.787 L72.0687623,61.5731372 L72.1414829,77.458882 L75.6747018,82.8935901 L76.1724619,121.285901 C76.1724619,121.285901 80.8880177,127.991243 84.763525,127.991243 C86.5990124,127.991243 85.9945455,127.991243 85.9945455,127.991243 C85.9945455,127.991243 85.9945455,3.01246213 85.9945455,3.01246213 L64.9948017,3 L63,5.23840104 Z" id="Path-2" fill="#ADADAD" transform="translate(74.544931, 65.495622) scale(-1, 1) translate(-74.544931, -65.495622) "></path>
        </g>
    </g>
</svg>