<?xml version="1.0" encoding="UTF-8"?>
<svg width="250px" height="250px" viewBox="0 0 250 250" version="1.1" xmlns="http://www.w3.org/2000/svg" xmlns:xlink="http://www.w3.org/1999/xlink">
    <!-- Generator: Sketch 43.1 (39012) - http://www.bohemiancoding.com/sketch -->
    <title>Artboard</title>
    <desc>Created with Sketch.</desc>
    <defs></defs>
    <g id="Page-1" stroke="none" stroke-width="1" fill="none" fill-rule="evenodd">
        <g id="Artboard">
            <g id="kind__zygomatic" transform="translate(96.000000, -6.000000)">
                <polygon id="Path-4" fill="#CACACA" points="22 169 22.5 38 19 34 19 26 24 18.5 30 14 31.5 16 34.5 14.5 42 26.5 40.5 28.5 42.5 32.5 39 37.5 38.5 169"></polygon>
                <g id="Group-2" transform="translate(20.500000, 168.000000)" fill-rule="nonzero" fill="#ADADAD">
                    <polygon id="Path" points="2.47372576 0.369160697 0.753854378 1.5 0.753854378 2.93456127 2.36189455 5.36453269 1.14294934 7.43713779 2.36189455 9.69761286 1.08486877 11.9312966 2.47372576 14.0250814 1.11040035 16.7289523 2.47372576 18.9384637 1.14294934 21.3916636 2.61198435 23.8296793 1.14294934 26.1247269 2.81638611 28.200113 1.28061071 30.4258989 2.73620808 32.9644282 1.36661175 34.9863029 2.70141946 37.5620416 1.28061071 39.644653 2.80414292 41.9808061 1.28419409 44.3919102 2.72695103 46.6231318 1.3533234 48.7928413 2.72411418 51.0062295 1.57818026 52.9981237 3.17233484 55.3906194 2.36861337 57.1214766 3.94126771 60.257799 3.17233484 61.8461994 4.02246924 64.5452591 3.36730936 66.4528709 4.48308141 69.5172931 3.80846176 70.9418464 4.93117436 73.9356978 5.77468514 74.8708164 9.98775103 74.8708164 9.98775103 0.369160697 3.36730936 0.369160697"></polygon>
                    <polygon id="Path" transform="translate(14.616948, 37.619989) scale(-1, 1) translate(-14.616948, -37.619989) " points="10 1.5 10 2.93456127 11.6080402 5.36453269 10.389095 7.43713779 11.6080402 9.69761286 10.3310144 11.9312966 11.7198714 14.0250814 10.3565459 16.7289523 11.7198714 18.9384637 10.389095 21.3916636 11.85813 23.8296793 10.389095 26.1247269 12.0625317 28.200113 10.5267563 30.4258989 11.9823537 32.9644282 10.6127574 34.9863029 11.9475651 37.5620416 10.5267563 39.644653 12.0502885 41.9808061 10.5303397 44.3919102 11.9730966 46.6231318 10.599469 48.7928413 11.9702598 51.0062295 10.8243259 52.9981237 12.4184805 55.3906194 11.614759 57.1214766 13.1874133 60.257799 12.4184805 61.8461994 13.2686149 64.5452591 12.613455 66.4528709 13.729227 69.5172931 13.0546074 70.9418464 14.17732 73.9356978 15.0208308 74.8708164 19.2338965 74.8708164 19.2338965 0.369160697 11.6043445 0.369160697"></polygon>
                </g>
            </g>
        </g>
    </g>
</svg>